Hubballi-Regular-21-22-23-25.ufo
<glyph name="quotedbl" format="1">
  <advance width="404"/>
  <unicode hex="0022"/>
  <outline>
    <contour>
      <point x="162" y="562" type="curve" smooth="yes"/>
      <point x="122" y="386" type="line" smooth="yes"/>
      <point x="119" y="373"/>
      <point x="106" y="365"/>
      <point x="92" y="368" type="curve" smooth="yes"/>
      <point x="79" y="371"/>
      <point x="71" y="384"/>
      <point x="74" y="398" type="curve" smooth="yes"/>
      <point x="114" y="574" type="line" smooth="yes"/>
      <point x="117" y="587"/>
      <point x="130" y="595"/>
      <point x="144" y="592" type="curve" smooth="yes"/>
      <point x="157" y="589"/>
      <point x="165" y="576"/>
    </contour>
    <contour>
      <point x="321" y="562" type="curve" smooth="yes"/>
      <point x="281" y="386" type="line" smooth="yes"/>
      <point x="278" y="373"/>
      <point x="265" y="365"/>
      <point x="251" y="368" type="curve" smooth="yes"/>
      <point x="238" y="371"/>
      <point x="230" y="384"/>
      <point x="233" y="398" type="curve" smooth="yes"/>
      <point x="273" y="574" type="line" smooth="yes"/>
      <point x="276" y="587"/>
      <point x="289" y="595"/>
      <point x="303" y="592" type="curve" smooth="yes"/>
      <point x="316" y="589"/>
      <point x="324" y="576"/>
    </contour>
  </outline>
</glyph>
<glyph name="ampersand" format="1">
  <advance width="634"/>
  <unicode hex="0026"/>
  <outline>
    <contour>
      <point x="540" y="263" type="curve" smooth="yes"/>
      <point x="454" y="141" type="line" smooth="yes"/>
      <point x="373" y="25"/>
      <point x="312" y="-10"/>
      <point x="233" y="-10" type="curve" smooth="yes"/>
      <point x="132" y="-10"/>
      <point x="67" y="54"/>
      <point x="67" y="133" type="curve" smooth="yes"/>
      <point x="67" y="204"/>
      <point x="97" y="264"/>
      <point x="262" y="332" type="curve" smooth="yes"/>
      <point x="312" y="353"/>
      <point x="339" y="381"/>
      <point x="339" y="419" type="curve" smooth="yes"/>
      <point x="339" y="460"/>
      <point x="302" y="490"/>
      <point x="258" y="490" type="curve" smooth="yes"/>
      <point x="214" y="490"/>
      <point x="180" y="460"/>
      <point x="180" y="415" type="curve" smooth="yes"/>
      <point x="180" y="367"/>
      <point x="219" y="332"/>
      <point x="271" y="287" type="curve" smooth="yes"/>
      <point x="551" y="42" type="line" smooth="yes"/>
      <point x="562" y="33"/>
      <point x="563" y="17"/>
      <point x="554" y="7" type="curve" smooth="yes"/>
      <point x="545" y="-4"/>
      <point x="529" y="-5"/>
      <point x="519" y="4" type="curve" smooth="yes"/>
      <point x="237" y="249" type="line" smooth="yes"/>
      <point x="171" y="308"/>
      <point x="130" y="355"/>
      <point x="130" y="415" type="curve" smooth="yes"/>
      <point x="130" y="490"/>
      <point x="184" y="540"/>
      <point x="258" y="540" type="curve" smooth="yes"/>
      <point x="334" y="540"/>
      <point x="389" y="486"/>
      <point x="389" y="419" type="curve" smooth="yes"/>
      <point x="389" y="363"/>
      <point x="358" y="317"/>
      <point x="282" y="286" type="curve" smooth="yes"/>
      <point x="155" y="234"/>
      <point x="117" y="192"/>
      <point x="117" y="133" type="curve" smooth="yes"/>
      <point x="117" y="78"/>
      <point x="168" y="40"/>
      <point x="233" y="40" type="curve" smooth="yes"/>
      <point x="300" y="40"/>
      <point x="347" y="75"/>
      <point x="414" y="169" type="curve" smooth="yes"/>
      <point x="500" y="291" type="line" smooth="yes"/>
      <point x="507" y="302"/>
      <point x="523" y="305"/>
      <point x="534" y="297" type="curve" smooth="yes"/>
      <point x="545" y="290"/>
      <point x="548" y="274"/>
    </contour>
  </outline>
</glyph>
<glyph name="asterisk" format="1">
  <advance width="431"/>
  <unicode hex="002A"/>
  <outline>
    <contour>
      <point x="237" y="538" type="curve" smooth="yes"/>
      <point x="237" y="290" type="line" smooth="yes"/>
      <point x="237" y="278"/>
      <point x="227" y="268"/>
      <point x="215" y="268" type="curve" smooth="yes"/>
      <point x="203" y="268"/>
      <point x="193" y="278"/>
      <point x="193" y="290" type="curve" smooth="yes"/>
      <point x="193" y="538" type="line" smooth="yes"/>
      <point x="193" y="550"/>
      <point x="203" y="560"/>
      <point x="215" y="560" type="curve" smooth="yes"/>
      <point x="227" y="560"/>
      <point x="237" y="550"/>
    </contour>
    <contour>
      <point x="110" y="499" type="curve" smooth="yes"/>
      <point x="343" y="363" type="line" smooth="yes"/>
      <point x="353" y="357"/>
      <point x="357" y="343"/>
      <point x="351" y="333" type="curve" smooth="yes"/>
      <point x="345" y="323"/>
      <point x="331" y="319"/>
      <point x="321" y="325" type="curve" smooth="yes"/>
      <point x="88" y="461" type="line" smooth="yes"/>
      <point x="78" y="467"/>
      <point x="74" y="481"/>
      <point x="80" y="491" type="curve" smooth="yes"/>
      <point x="86" y="501"/>
      <point x="100" y="505"/>
    </contour>
    <contour>
      <point x="88" y="363" type="curve" smooth="yes"/>
      <point x="321" y="499" type="line" smooth="yes"/>
      <point x="331" y="505"/>
      <point x="345" y="501"/>
      <point x="351" y="491" type="curve" smooth="yes"/>
      <point x="357" y="481"/>
      <point x="353" y="467"/>
      <point x="343" y="461" type="curve" smooth="yes"/>
      <point x="110" y="325" type="line" smooth="yes"/>
      <point x="100" y="319"/>
      <point x="86" y="323"/>
      <point x="80" y="333" type="curve" smooth="yes"/>
      <point x="74" y="343"/>
      <point x="78" y="357"/>
    </contour>
  </outline>
</glyph>
<glyph name="five" format="1">
  <advance width="521"/>
  <unicode hex="0035"/>
  <outline>
    <contour>
      <point x="144" y="533" type="curve" smooth="yes"/>
      <point x="401" y="533" type="line" smooth="yes"/>
      <point x="415" y="533"/>
      <point x="426" y="522"/>
      <point x="426" y="508" type="curve" smooth="yes"/>
      <point x="426" y="495"/>
      <point x="415" y="483"/>
      <point x="401" y="483" type="curve" smooth="yes"/>
      <point x="144" y="483" type="line" smooth="yes"/>
      <point x="131" y="483"/>
      <point x="119" y="495"/>
      <point x="119" y="508" type="curve" smooth="yes"/>
      <point x="119" y="522"/>
      <point x="131" y="533"/>
    </contour>
    <contour>
      <point x="107" y="77" type="curve" smooth="yes"/>
      <point x="147" y="58"/>
      <point x="204" y="44"/>
      <point x="266" y="44" type="curve" smooth="yes"/>
      <point x="361" y="44"/>
      <point x="407" y="97"/>
      <point x="407" y="167" type="curve" smooth="yes"/>
      <point x="407" y="233"/>
      <point x="352" y="278"/>
      <point x="270" y="278" type="curve" smooth="yes"/>
      <point x="209" y="278"/>
      <point x="164" y="262"/>
      <point x="135" y="248" type="curve" smooth="yes"/>
      <point x="122" y="243"/>
      <point x="107" y="248"/>
      <point x="101" y="260" type="curve" smooth="yes"/>
      <point x="96" y="273"/>
      <point x="101" y="288"/>
      <point x="113" y="294" type="curve" smooth="yes"/>
      <point x="148" y="310"/>
      <point x="199" y="328"/>
      <point x="270" y="328" type="curve" smooth="yes"/>
      <point x="390" y="328"/>
      <point x="457" y="257"/>
      <point x="457" y="167" type="curve" smooth="yes"/>
      <point x="457" y="72"/>
      <point x="399" y="-6"/>
      <point x="266" y="-6" type="curve" smooth="yes"/>
      <point x="196" y="-6"/>
      <point x="131" y="10"/>
      <point x="85" y="31" type="curve" smooth="yes"/>
      <point x="73" y="37"/>
      <point x="68" y="52"/>
      <point x="73" y="65" type="curve" smooth="yes"/>
      <point x="79" y="77"/>
      <point x="94" y="82"/>
    </contour>
    <contour>
      <point x="168" y="499" type="curve" smooth="yes"/>
      <point x="149" y="274" type="line" smooth="yes"/>
      <point x="148" y="260"/>
      <point x="135" y="250"/>
      <point x="122" y="251" type="curve" smooth="yes"/>
      <point x="108" y="252"/>
      <point x="98" y="265"/>
      <point x="99" y="278" type="curve" smooth="yes"/>
      <point x="118" y="503" type="line" smooth="yes"/>
      <point x="119" y="517"/>
      <point x="132" y="527"/>
      <point x="145" y="526" type="curve" smooth="yes"/>
      <point x="159" y="525"/>
      <point x="169" y="512"/>
    </contour>
  </outline>
</glyph>
<glyph name="six" format="1">
  <advance width="539"/>
  <unicode hex="0036"/>
  <outline>
    <contour>
      <point x="380" y="479" type="curve" smooth="yes"/>
      <point x="356" y="487"/>
      <point x="336" y="492"/>
      <point x="306" y="492" type="curve" smooth="yes"/>
      <point x="187" y="492"/>
      <point x="120" y="395"/>
      <point x="120" y="249" type="curve" smooth="yes"/>
      <point x="120" y="116"/>
      <point x="185" y="44"/>
      <point x="285" y="44" type="curve" smooth="yes"/>
      <point x="384" y="44"/>
      <point x="427" y="108"/>
      <point x="427" y="171" type="curve" smooth="yes"/>
      <point x="427" y="239"/>
      <point x="376" y="284"/>
      <point x="305" y="284" type="curve" smooth="yes"/>
      <point x="225" y="284"/>
      <point x="161" y="228"/>
      <point x="135" y="133" type="curve" smooth="yes"/>
      <point x="131" y="120"/>
      <point x="117" y="112"/>
      <point x="104" y="116" type="curve" smooth="yes"/>
      <point x="91" y="120"/>
      <point x="83" y="134"/>
      <point x="87" y="147" type="curve" smooth="yes"/>
      <point x="121" y="268"/>
      <point x="205" y="334"/>
      <point x="305" y="334" type="curve" smooth="yes"/>
      <point x="408" y="334"/>
      <point x="477" y="267"/>
      <point x="477" y="171" type="curve" smooth="yes"/>
      <point x="477" y="86"/>
      <point x="424" y="-6"/>
      <point x="285" y="-6" type="curve" smooth="yes"/>
      <point x="161" y="-6"/>
      <point x="70" y="76"/>
      <point x="70" y="249" type="curve" smooth="yes"/>
      <point x="70" y="435"/>
      <point x="163" y="542"/>
      <point x="306" y="542" type="curve" smooth="yes"/>
      <point x="342" y="542"/>
      <point x="366" y="537"/>
      <point x="396" y="527" type="curve" smooth="yes"/>
      <point x="409" y="522"/>
      <point x="416" y="508"/>
      <point x="412" y="495" type="curve" smooth="yes"/>
      <point x="407" y="482"/>
      <point x="393" y="475"/>
    </contour>
  </outline>
</glyph>
<glyph name="seven" format="1">
  <advance width="466"/>
  <unicode hex="0037"/>
  <outline>
    <contour>
      <point x="433" y="495" type="curve" smooth="yes"/>
      <point x="395" y="424"/>
      <point x="292" y="285"/>
      <point x="263" y="234" type="curve" smooth="yes"/>
      <point x="238" y="188"/>
      <point x="217" y="133"/>
      <point x="217" y="78" type="curve" smooth="yes"/>
      <point x="217" y="23" type="line" smooth="yes"/>
      <point x="217" y="9"/>
      <point x="206" y="-2"/>
      <point x="192" y="-2" type="curve" smooth="yes"/>
      <point x="179" y="-2"/>
      <point x="167" y="10"/>
      <point x="167" y="23" type="curve" smooth="yes"/>
      <point x="167" y="78" type="line" smooth="yes"/>
      <point x="167" y="141"/>
      <point x="190" y="206"/>
      <point x="219" y="258" type="curve" smooth="yes"/>
      <point x="248" y="309"/>
      <point x="351" y="448"/>
      <point x="389" y="519" type="curve" smooth="yes"/>
      <point x="395" y="531"/>
      <point x="411" y="535"/>
      <point x="423" y="529" type="curve" smooth="yes"/>
      <point x="435" y="523"/>
      <point x="439" y="507"/>
    </contour>
    <contour>
      <point x="404" y="483" type="curve" smooth="yes"/>
      <point x="61" y="483" type="line" smooth="yes"/>
      <point x="47" y="483"/>
      <point x="36" y="495"/>
      <point x="36" y="508" type="curve" smooth="yes"/>
      <point x="36" y="522"/>
      <point x="48" y="533"/>
      <point x="61" y="533" type="curve" smooth="yes"/>
      <point x="404" y="533" type="line" smooth="yes"/>
      <point x="418" y="533"/>
      <point x="429" y="522"/>
      <point x="429" y="508" type="curve" smooth="yes"/>
      <point x="429" y="495"/>
      <point x="418" y="483"/>
    </contour>
  </outline>
</glyph>
<glyph name="eight" format="1">
  <advance width="558"/>
  <unicode hex="0038"/>
  <outline>
    <contour>
      <point x="280" y="310" type="curve" smooth="yes"/>
      <point x="412" y="310"/>
      <point x="488" y="242"/>
      <point x="488" y="150" type="curve" smooth="yes"/>
      <point x="488" y="66"/>
      <point x="436" y="-10"/>
      <point x="280" y="-10" type="curve" smooth="yes"/>
      <point x="133" y="-10"/>
      <point x="70" y="66"/>
      <point x="70" y="149" type="curve" smooth="yes"/>
      <point x="70" y="242"/>
      <point x="140" y="310"/>
    </contour>
    <contour>
      <point x="280" y="540" type="curve" smooth="yes"/>
      <point x="397" y="540"/>
      <point x="462" y="482"/>
      <point x="462" y="402" type="curve" smooth="yes"/>
      <point x="462" y="327"/>
      <point x="407" y="260"/>
      <point x="280" y="260" type="curve" smooth="yes"/>
      <point x="146" y="260"/>
      <point x="96" y="327"/>
      <point x="96" y="402" type="curve" smooth="yes"/>
      <point x="96" y="482"/>
      <point x="157" y="540"/>
    </contour>
    <contour>
      <point x="280" y="260" type="curve" smooth="yes"/>
      <point x="184" y="260"/>
      <point x="120" y="220"/>
      <point x="120" y="149" type="curve" smooth="yes"/>
      <point x="120" y="86"/>
      <point x="179" y="40"/>
      <point x="280" y="40" type="curve" smooth="yes"/>
      <point x="388" y="40"/>
      <point x="438" y="86"/>
      <point x="438" y="150" type="curve" smooth="yes"/>
      <point x="438" y="220"/>
      <point x="370" y="260"/>
    </contour>
    <contour>
      <point x="280" y="490" type="curve" smooth="yes"/>
      <point x="201" y="490"/>
      <point x="146" y="460"/>
      <point x="146" y="402" type="curve" smooth="yes"/>
      <point x="146" y="347"/>
      <point x="194" y="310"/>
      <point x="280" y="310" type="curve" smooth="yes"/>
      <point x="363" y="310"/>
      <point x="412" y="347"/>
      <point x="412" y="402" type="curve" smooth="yes"/>
      <point x="412" y="460"/>
      <point x="355" y="490"/>
    </contour>
  </outline>
</glyph>
<glyph name="less" format="1">
  <advance width="530"/>
  <unicode hex="003C"/>
  <outline>
    <contour>
      <point x="94" y="290" type="curve" smooth="yes"/>
      <point x="404" y="430" type="line" smooth="yes"/>
      <point x="416" y="435"/>
      <point x="431" y="430"/>
      <point x="437" y="417" type="curve" smooth="yes"/>
      <point x="442" y="405"/>
      <point x="437" y="390"/>
      <point x="424" y="384" type="curve" smooth="yes"/>
      <point x="114" y="244" type="line" smooth="yes"/>
      <point x="102" y="239"/>
      <point x="87" y="244"/>
      <point x="81" y="257" type="curve" smooth="yes"/>
      <point x="76" y="269"/>
      <point x="81" y="284"/>
    </contour>
    <contour>
      <point x="410" y="94" type="curve" smooth="yes"/>
      <point x="88" y="240" type="line" smooth="yes"/>
      <point x="75" y="246"/>
      <point x="70" y="261"/>
      <point x="75" y="273" type="curve" smooth="yes"/>
      <point x="81" y="286"/>
      <point x="96" y="291"/>
      <point x="108" y="286" type="curve" smooth="yes"/>
      <point x="430" y="140" type="line" smooth="yes"/>
      <point x="443" y="134"/>
      <point x="448" y="119"/>
      <point x="443" y="107" type="curve" smooth="yes"/>
      <point x="437" y="94"/>
      <point x="422" y="89"/>
    </contour>
  </outline>
</glyph>
<glyph name="equal" format="1">
  <advance width="530"/>
  <unicode hex="003D"/>
  <outline>
    <contour>
      <point x="96" y="382" type="curve" smooth="yes"/>
      <point x="433" y="382" type="line" smooth="yes"/>
      <point x="447" y="382"/>
      <point x="458" y="371"/>
      <point x="458" y="357" type="curve" smooth="yes"/>
      <point x="458" y="344"/>
      <point x="447" y="332"/>
      <point x="433" y="332" type="curve" smooth="yes"/>
      <point x="96" y="332" type="line" smooth="yes"/>
      <point x="83" y="332"/>
      <point x="71" y="344"/>
      <point x="71" y="357" type="curve" smooth="yes"/>
      <point x="71" y="371"/>
      <point x="83" y="382"/>
    </contour>
    <contour>
      <point x="96" y="184" type="curve" smooth="yes"/>
      <point x="433" y="184" type="line" smooth="yes"/>
      <point x="447" y="184"/>
      <point x="458" y="173"/>
      <point x="458" y="159" type="curve" smooth="yes"/>
      <point x="458" y="146"/>
      <point x="447" y="134"/>
      <point x="433" y="134" type="curve" smooth="yes"/>
      <point x="96" y="134" type="line" smooth="yes"/>
      <point x="83" y="134"/>
      <point x="71" y="146"/>
      <point x="71" y="159" type="curve" smooth="yes"/>
      <point x="71" y="173"/>
      <point x="83" y="184"/>
    </contour>
  </outline>
</glyph>
<glyph name="question" format="1">
  <advance width="371"/>
  <unicode hex="003F"/>
  <outline>
    <contour>
      <point x="56" y="503" type="curve" smooth="yes"/>
      <point x="94" y="528"/>
      <point x="132" y="542"/>
      <point x="194" y="542" type="curve" smooth="yes"/>
      <point x="294" y="542"/>
      <point x="342" y="480"/>
      <point x="342" y="415" type="curve" smooth="yes"/>
      <point x="342" y="356"/>
      <point x="300" y="312"/>
      <point x="241" y="282" type="curve" smooth="yes"/>
      <point x="199" y="260"/>
      <point x="185" y="245"/>
      <point x="183" y="204" type="curve" smooth="yes"/>
      <point x="182" y="190"/>
      <point x="170" y="179"/>
      <point x="157" y="180" type="curve" smooth="yes"/>
      <point x="143" y="181"/>
      <point x="132" y="193"/>
      <point x="133" y="206" type="curve" smooth="yes"/>
      <point x="137" y="267"/>
      <point x="153" y="292"/>
      <point x="219" y="326" type="curve" smooth="yes"/>
      <point x="258" y="346"/>
      <point x="292" y="374"/>
      <point x="292" y="415" type="curve" smooth="yes"/>
      <point x="292" y="458"/>
      <point x="254" y="492"/>
      <point x="194" y="492" type="curve" smooth="yes"/>
      <point x="144" y="492"/>
      <point x="114" y="480"/>
      <point x="82" y="461" type="curve" smooth="yes"/>
      <point x="71" y="454"/>
      <point x="55" y="457"/>
      <point x="48" y="469" type="curve" smooth="yes"/>
      <point x="41" y="480"/>
      <point x="44" y="496"/>
    </contour>
    <component base="period" xOffset="50"/>
    <component base="period" xOffset="50"/>
  </outline>
</glyph>
<glyph name="at" format="1">
  <advance width="665"/>
  <unicode hex="0040"/>
  <outline>
    <contour>
      <point x="447" y="380" type="curve" smooth="yes"/>
      <point x="447" y="250" type="line" smooth="yes"/>
      <point x="447" y="208"/>
      <point x="471" y="178"/>
      <point x="504" y="178" type="curve" smooth="yes"/>
      <point x="544" y="178"/>
      <point x="566" y="219"/>
      <point x="566" y="275" type="curve" smooth="yes"/>
      <point x="566" y="389"/>
      <point x="480" y="493"/>
      <point x="336" y="493" type="curve" smooth="yes"/>
      <point x="201" y="493"/>
      <point x="101" y="388"/>
      <point x="101" y="261" type="curve" smooth="yes"/>
      <point x="101" y="134"/>
      <point x="199" y="38"/>
      <point x="339" y="38" type="curve" smooth="yes"/>
      <point x="397" y="38"/>
      <point x="446" y="51"/>
      <point x="482" y="67" type="curve" smooth="yes"/>
      <point x="494" y="72"/>
      <point x="510" y="66"/>
      <point x="515" y="54" type="curve" smooth="yes"/>
      <point x="520" y="42"/>
      <point x="514" y="26"/>
      <point x="502" y="21" type="curve" smooth="yes"/>
      <point x="460" y="3"/>
      <point x="405" y="-12"/>
      <point x="339" y="-12" type="curve" smooth="yes"/>
      <point x="167" y="-12"/>
      <point x="51" y="108"/>
      <point x="51" y="261" type="curve"/>
      <point x="51" y="414"/>
      <point x="171" y="543"/>
      <point x="336" y="543" type="curve" smooth="yes"/>
      <point x="514" y="543"/>
      <point x="616" y="413"/>
      <point x="616" y="275" type="curve" smooth="yes"/>
      <point x="616" y="175"/>
      <point x="564" y="128"/>
      <point x="504" y="128" type="curve" smooth="yes"/>
      <point x="447" y="128"/>
      <point x="397" y="170"/>
      <point x="397" y="250" type="curve" smooth="yes"/>
      <point x="397" y="380" type="line" smooth="yes"/>
      <point x="397" y="394"/>
      <point x="409" y="405"/>
      <point x="422" y="405" type="curve" smooth="yes"/>
      <point x="436" y="405"/>
      <point x="447" y="394"/>
    </contour>
    <contour>
      <point x="408" y="332" type="curve" smooth="yes"/>
      <point x="386" y="347"/>
      <point x="362" y="355"/>
      <point x="331" y="355" type="curve" smooth="yes"/>
      <point x="283" y="355"/>
      <point x="245" y="317"/>
      <point x="245" y="257" type="curve" smooth="yes"/>
      <point x="245" y="209"/>
      <point x="277" y="179"/>
      <point x="313" y="179" type="curve" smooth="yes"/>
      <point x="346" y="179"/>
      <point x="377" y="199"/>
      <point x="399" y="238" type="curve" smooth="yes"/>
      <point x="406" y="249"/>
      <point x="422" y="253"/>
      <point x="434" y="247" type="curve" smooth="yes"/>
      <point x="445" y="240"/>
      <point x="449" y="224"/>
      <point x="443" y="212" type="curve" smooth="yes"/>
      <point x="409" y="155"/>
      <point x="360" y="129"/>
      <point x="313" y="129" type="curve" smooth="yes"/>
      <point x="253" y="129"/>
      <point x="195" y="175"/>
      <point x="195" y="257" type="curve" smooth="yes"/>
      <point x="195" y="351"/>
      <point x="259" y="405"/>
      <point x="331" y="405" type="curve" smooth="yes"/>
      <point x="374" y="405"/>
      <point x="406" y="393"/>
      <point x="436" y="374" type="curve" smooth="yes"/>
      <point x="447" y="367"/>
      <point x="450" y="351"/>
      <point x="443" y="339" type="curve" smooth="yes"/>
      <point x="436" y="328"/>
      <point x="420" y="325"/>
    </contour>
  </outline>
</glyph>
<glyph name="E" format="1">
  <advance width="487"/>
  <unicode hex="0045"/>
  <outline>
    <contour>
      <point x="148" y="508" type="curve" smooth="yes"/>
      <point x="148" y="23" type="line" smooth="yes"/>
      <point x="148" y="9"/>
      <point x="137" y="-2"/>
      <point x="123" y="-2" type="curve" smooth="yes"/>
      <point x="110" y="-2"/>
      <point x="98" y="10"/>
      <point x="98" y="23" type="curve" smooth="yes"/>
      <point x="98" y="508" type="line" smooth="yes"/>
      <point x="98" y="522"/>
      <point x="110" y="533"/>
      <point x="123" y="533" type="curve" smooth="yes"/>
      <point x="137" y="533"/>
      <point x="148" y="522"/>
    </contour>
    <contour>
      <point x="131" y="48" type="curve" smooth="yes"/>
      <point x="402" y="48" type="line" smooth="yes"/>
      <point x="416" y="48"/>
      <point x="427" y="37"/>
      <point x="427" y="23" type="curve" smooth="yes"/>
      <point x="427" y="10"/>
      <point x="416" y="-2"/>
      <point x="402" y="-2" type="curve" smooth="yes"/>
      <point x="131" y="-2" type="line" smooth="yes"/>
      <point x="118" y="-2"/>
      <point x="106" y="10"/>
      <point x="106" y="23" type="curve" smooth="yes"/>
      <point x="106" y="37"/>
      <point x="118" y="48"/>
    </contour>
    <contour>
      <point x="131" y="533" type="curve" smooth="yes"/>
      <point x="400" y="533" type="line" smooth="yes"/>
      <point x="414" y="533"/>
      <point x="425" y="522"/>
      <point x="425" y="508" type="curve" smooth="yes"/>
      <point x="425" y="495"/>
      <point x="414" y="483"/>
      <point x="400" y="483" type="curve" smooth="yes"/>
      <point x="131" y="483" type="line" smooth="yes"/>
      <point x="118" y="483"/>
      <point x="106" y="495"/>
      <point x="106" y="508" type="curve" smooth="yes"/>
      <point x="106" y="522"/>
      <point x="118" y="533"/>
    </contour>
    <contour>
      <point x="131" y="309" type="curve" smooth="yes"/>
      <point x="357" y="309" type="line" smooth="yes"/>
      <point x="371" y="309"/>
      <point x="382" y="298"/>
      <point x="382" y="284" type="curve" smooth="yes"/>
      <point x="382" y="271"/>
      <point x="371" y="259"/>
      <point x="357" y="259" type="curve" smooth="yes"/>
      <point x="131" y="259" type="line" smooth="yes"/>
      <point x="118" y="259"/>
      <point x="106" y="271"/>
      <point x="106" y="284" type="curve" smooth="yes"/>
      <point x="106" y="298"/>
      <point x="118" y="309"/>
    </contour>
  </outline>
</glyph>
<glyph name="I" format="1">
  <advance width="256"/>
  <unicode hex="0049"/>
  <outline>
    <contour>
      <point x="153" y="508" type="curve" smooth="yes"/>
      <point x="153" y="23" type="line" smooth="yes"/>
      <point x="153" y="9"/>
      <point x="142" y="-2"/>
      <point x="128" y="-2" type="curve" smooth="yes"/>
      <point x="115" y="-2"/>
      <point x="103" y="10"/>
      <point x="103" y="23" type="curve" smooth="yes"/>
      <point x="103" y="508" type="line" smooth="yes"/>
      <point x="103" y="522"/>
      <point x="115" y="533"/>
      <point x="128" y="533" type="curve" smooth="yes"/>
      <point x="142" y="533"/>
      <point x="153" y="522"/>
    </contour>
  </outline>
</glyph>
<glyph name="M" format="1">
  <advance width="820"/>
  <unicode hex="004D"/>
  <outline>
    <contour>
      <point x="198" y="513" type="curve" smooth="yes"/>
      <point x="174" y="370"/>
      <point x="142" y="134"/>
      <point x="130" y="18" type="curve" smooth="yes"/>
      <point x="128" y="5"/>
      <point x="116" y="-5"/>
      <point x="102" y="-4" type="curve" smooth="yes"/>
      <point x="89" y="-2"/>
      <point x="79" y="10"/>
      <point x="80" y="24" type="curve" smooth="yes"/>
      <point x="92" y="140"/>
      <point x="124" y="378"/>
      <point x="148" y="521" type="curve" smooth="yes"/>
      <point x="151" y="534"/>
      <point x="164" y="544"/>
      <point x="177" y="542" type="curve" smooth="yes"/>
      <point x="190" y="539"/>
      <point x="200" y="526"/>
    </contour>
    <contour>
      <point x="657" y="523" type="curve" smooth="yes"/>
      <point x="688" y="366"/>
      <point x="721" y="159"/>
      <point x="739" y="24" type="curve" smooth="yes"/>
      <point x="741" y="11"/>
      <point x="731" y="-2"/>
      <point x="717" y="-4" type="curve" smooth="yes"/>
      <point x="704" y="-6"/>
      <point x="691" y="4"/>
      <point x="689" y="18" type="curve" smooth="yes"/>
      <point x="671" y="151"/>
      <point x="638" y="358"/>
      <point x="607" y="513" type="curve" smooth="yes"/>
      <point x="605" y="526"/>
      <point x="614" y="540"/>
      <point x="627" y="543" type="curve" smooth="yes"/>
      <point x="640" y="545"/>
      <point x="654" y="536"/>
    </contour>
    <contour>
      <point x="207" y="515" type="curve" smooth="yes"/>
      <point x="269" y="388"/>
      <point x="364" y="191"/>
      <point x="431" y="51" type="curve" smooth="yes"/>
      <point x="436" y="39"/>
      <point x="431" y="23"/>
      <point x="419" y="17" type="curve" smooth="yes"/>
      <point x="407" y="12"/>
      <point x="391" y="17"/>
      <point x="385" y="29" type="curve" smooth="yes"/>
      <point x="318" y="169"/>
      <point x="225" y="366"/>
      <point x="163" y="493" type="curve" smooth="yes"/>
      <point x="157" y="505"/>
      <point x="162" y="521"/>
      <point x="174" y="526" type="curve" smooth="yes"/>
      <point x="186" y="532"/>
      <point x="202" y="527"/>
    </contour>
    <contour>
      <point x="388" y="62" type="curve" smooth="yes"/>
      <point x="448" y="198"/>
      <point x="529" y="375"/>
      <point x="603" y="521" type="curve" smooth="yes"/>
      <point x="609" y="533"/>
      <point x="624" y="538"/>
      <point x="636" y="532" type="curve" smooth="yes"/>
      <point x="648" y="526"/>
      <point x="653" y="511"/>
      <point x="647" y="499" type="curve" smooth="yes"/>
      <point x="573" y="353"/>
      <point x="494" y="178"/>
      <point x="434" y="42" type="curve" smooth="yes"/>
      <point x="428" y="30"/>
      <point x="413" y="24"/>
      <point x="401" y="29" type="curve" smooth="yes"/>
      <point x="389" y="35"/>
      <point x="383" y="50"/>
    </contour>
  </outline>
</glyph>
<glyph name="N" format="1">
  <advance width="635"/>
  <unicode hex="004E"/>
  <outline>
    <contour>
      <point x="148" y="508" type="curve" smooth="yes"/>
      <point x="148" y="23" type="line" smooth="yes"/>
      <point x="148" y="9"/>
      <point x="137" y="-2"/>
      <point x="123" y="-2" type="curve" smooth="yes"/>
      <point x="110" y="-2"/>
      <point x="98" y="10"/>
      <point x="98" y="23" type="curve" smooth="yes"/>
      <point x="98" y="508" type="line" smooth="yes"/>
      <point x="98" y="522"/>
      <point x="110" y="533"/>
      <point x="123" y="533" type="curve" smooth="yes"/>
      <point x="137" y="533"/>
      <point x="148" y="522"/>
    </contour>
    <contour>
      <point x="537" y="508" type="curve" smooth="yes"/>
      <point x="537" y="23" type="line" smooth="yes"/>
      <point x="537" y="9"/>
      <point x="526" y="-2"/>
      <point x="512" y="-2" type="curve" smooth="yes"/>
      <point x="499" y="-2"/>
      <point x="487" y="10"/>
      <point x="487" y="23" type="curve" smooth="yes"/>
      <point x="487" y="508" type="line" smooth="yes"/>
      <point x="487" y="522"/>
      <point x="499" y="533"/>
      <point x="512" y="533" type="curve" smooth="yes"/>
      <point x="526" y="533"/>
      <point x="537" y="522"/>
    </contour>
    <contour>
      <point x="149" y="523" type="curve" smooth="yes"/>
      <point x="224" y="423"/>
      <point x="419" y="181"/>
      <point x="526" y="38" type="curve" smooth="yes"/>
      <point x="534" y="27"/>
      <point x="532" y="11"/>
      <point x="521" y="3" type="curve" smooth="yes"/>
      <point x="510" y="-5"/>
      <point x="494" y="-3"/>
      <point x="486" y="8" type="curve" smooth="yes"/>
      <point x="379" y="151"/>
      <point x="184" y="393"/>
      <point x="109" y="493" type="curve" smooth="yes"/>
      <point x="101" y="504"/>
      <point x="103" y="520"/>
      <point x="114" y="528" type="curve" smooth="yes"/>
      <point x="125" y="536"/>
      <point x="141" y="534"/>
    </contour>
  </outline>
</glyph>
<glyph name="V" format="1">
  <advance width="585"/>
  <unicode hex="0056"/>
  <outline>
    <contour>
      <point x="99" y="517" type="curve" smooth="yes"/>
      <point x="138" y="394"/>
      <point x="272" y="104"/>
      <point x="312" y="31" type="curve" smooth="yes"/>
      <point x="318" y="19"/>
      <point x="314" y="3"/>
      <point x="302" y="-3" type="curve" smooth="yes"/>
      <point x="290" y="-9"/>
      <point x="274" y="-5"/>
      <point x="268" y="7" type="curve" smooth="yes"/>
      <point x="228" y="82"/>
      <point x="92" y="376"/>
      <point x="51" y="501" type="curve" smooth="yes"/>
      <point x="47" y="514"/>
      <point x="54" y="529"/>
      <point x="67" y="533" type="curve" smooth="yes"/>
      <point x="80" y="537"/>
      <point x="95" y="530"/>
    </contour>
    <contour>
      <point x="271" y="25" type="curve" smooth="yes"/>
      <point x="315" y="108"/>
      <point x="438" y="374"/>
      <point x="486" y="516" type="curve" smooth="yes"/>
      <point x="491" y="529"/>
      <point x="505" y="536"/>
      <point x="518" y="532" type="curve" smooth="yes"/>
      <point x="531" y="527"/>
      <point x="538" y="513"/>
      <point x="534" y="500" type="curve" smooth="yes"/>
      <point x="484" y="356"/>
      <point x="359" y="86"/>
      <point x="315" y="1" type="curve" smooth="yes"/>
      <point x="309" y="-11"/>
      <point x="293" y="-15"/>
      <point x="281" y="-9" type="curve" smooth="yes"/>
      <point x="269" y="-3"/>
      <point x="265" y="13"/>
    </contour>
  </outline>
</glyph>
<glyph name="W" format="1">
  <advance width="897"/>
  <unicode hex="0057"/>
  <outline>
    <contour>
      <point x="115" y="514" type="curve" smooth="yes"/>
      <point x="149" y="391"/>
      <point x="248" y="104"/>
      <point x="283" y="31" type="curve" smooth="yes"/>
      <point x="288" y="18"/>
      <point x="283" y="3"/>
      <point x="271" y="-3" type="curve" smooth="yes"/>
      <point x="258" y="-8"/>
      <point x="243" y="-3"/>
      <point x="237" y="9" type="curve" smooth="yes"/>
      <point x="202" y="84"/>
      <point x="101" y="375"/>
      <point x="67" y="500" type="curve" smooth="yes"/>
      <point x="63" y="513"/>
      <point x="71" y="528"/>
      <point x="84" y="531" type="curve" smooth="yes"/>
      <point x="97" y="535"/>
      <point x="112" y="527"/>
    </contour>
    <contour>
      <point x="241" y="24" type="curve" smooth="yes"/>
      <point x="278" y="108"/>
      <point x="382" y="371"/>
      <point x="425" y="511" type="curve" smooth="yes"/>
      <point x="429" y="524"/>
      <point x="443" y="532"/>
      <point x="456" y="528" type="curve" smooth="yes"/>
      <point x="469" y="524"/>
      <point x="477" y="510"/>
      <point x="473" y="497" type="curve" smooth="yes"/>
      <point x="430" y="355"/>
      <point x="324" y="88"/>
      <point x="287" y="4" type="curve" smooth="yes"/>
      <point x="281" y="-8"/>
      <point x="266" y="-14"/>
      <point x="254" y="-9" type="curve" smooth="yes"/>
      <point x="242" y="-3"/>
      <point x="236" y="12"/>
    </contour>
    <contour>
      <point x="477" y="499" type="curve" smooth="yes"/>
      <point x="515" y="378"/>
      <point x="617" y="103"/>
      <point x="652" y="30" type="curve" smooth="yes"/>
      <point x="658" y="18"/>
      <point x="653" y="2"/>
      <point x="641" y="-3" type="curve" smooth="yes"/>
      <point x="629" y="-9"/>
      <point x="613" y="-4"/>
      <point x="608" y="8" type="curve" smooth="yes"/>
      <point x="571" y="83"/>
      <point x="467" y="362"/>
      <point x="429" y="485" type="curve" smooth="yes"/>
      <point x="425" y="497"/>
      <point x="433" y="512"/>
      <point x="446" y="516" type="curve" smooth="yes"/>
      <point x="458" y="520"/>
      <point x="473" y="512"/>
    </contour>
    <contour>
      <point x="611" y="23" type="curve" smooth="yes"/>
      <point x="648" y="107"/>
      <point x="742" y="372"/>
      <point x="783" y="514" type="curve" smooth="yes"/>
      <point x="787" y="527"/>
      <point x="801" y="535"/>
      <point x="814" y="531" type="curve" smooth="yes"/>
      <point x="827" y="527"/>
      <point x="835" y="513"/>
      <point x="831" y="500" type="curve" smooth="yes"/>
      <point x="790" y="356"/>
      <point x="694" y="87"/>
      <point x="657" y="3" type="curve" smooth="yes"/>
      <point x="651" y="-9"/>
      <point x="636" y="-15"/>
      <point x="624" y="-10" type="curve" smooth="yes"/>
      <point x="612" y="-4"/>
      <point x="606" y="11"/>
    </contour>
  </outline>
</glyph>
<glyph name="a" format="1">
  <advance width="450"/>
  <unicode hex="0061"/>
  <outline>
    <contour>
      <point x="114" y="373" type="curve" smooth="yes"/>
      <point x="137" y="380"/>
      <point x="179" y="390"/>
      <point x="215" y="390" type="curve" smooth="yes"/>
      <point x="324" y="390"/>
      <point x="374" y="324"/>
      <point x="374" y="228" type="curve" smooth="yes"/>
      <point x="374" y="137" type="line" smooth="yes"/>
      <point x="374" y="91"/>
      <point x="384" y="63"/>
      <point x="404" y="41" type="curve" smooth="yes"/>
      <point x="414" y="31"/>
      <point x="413" y="15"/>
      <point x="403" y="6" type="curve" smooth="yes"/>
      <point x="393" y="-4"/>
      <point x="377" y="-3"/>
      <point x="368" y="7" type="curve" smooth="yes"/>
      <point x="340" y="37"/>
      <point x="324" y="73"/>
      <point x="324" y="137" type="curve" smooth="yes"/>
      <point x="324" y="228" type="line" smooth="yes"/>
      <point x="324" y="294"/>
      <point x="290" y="340"/>
      <point x="215" y="340" type="curve" smooth="yes"/>
      <point x="185" y="340"/>
      <point x="149" y="332"/>
      <point x="130" y="325" type="curve" smooth="yes"/>
      <point x="117" y="321"/>
      <point x="103" y="328"/>
      <point x="98" y="341" type="curve" smooth="yes"/>
      <point x="94" y="354"/>
      <point x="101" y="368"/>
    </contour>
    <contour>
      <point x="347" y="192" type="curve" smooth="yes"/>
      <point x="314" y="193"/>
      <point x="284" y="195"/>
      <point x="255" y="195" type="curve" smooth="yes"/>
      <point x="191" y="195"/>
      <point x="147" y="181"/>
      <point x="121" y="154" type="curve" smooth="yes"/>
      <point x="105" y="139"/>
      <point x="100" y="122"/>
      <point x="100" y="104" type="curve" smooth="yes"/>
      <point x="100" y="77"/>
      <point x="123" y="48"/>
      <point x="172" y="48" type="curve" smooth="yes"/>
      <point x="238" y="48"/>
      <point x="286" y="75"/>
      <point x="329" y="133" type="curve" smooth="yes"/>
      <point x="337" y="144"/>
      <point x="353" y="146"/>
      <point x="364" y="138" type="curve" smooth="yes"/>
      <point x="375" y="130"/>
      <point x="377" y="114"/>
      <point x="369" y="103" type="curve" smooth="yes"/>
      <point x="316" y="31"/>
      <point x="254" y="-2"/>
      <point x="172" y="-2" type="curve" smooth="yes"/>
      <point x="79" y="-2"/>
      <point x="50" y="59"/>
      <point x="50" y="104" type="curve"/>
      <point x="50" y="136"/>
      <point x="59" y="165"/>
      <point x="85" y="190" type="curve" smooth="yes"/>
      <point x="119" y="223"/>
      <point x="173" y="245"/>
      <point x="255" y="245" type="curve" smooth="yes"/>
      <point x="284" y="245"/>
      <point x="314" y="243"/>
      <point x="349" y="242" type="curve" smooth="yes"/>
      <point x="362" y="242"/>
      <point x="373" y="230"/>
      <point x="373" y="216" type="curve" smooth="yes"/>
      <point x="373" y="203"/>
      <point x="361" y="192"/>
    </contour>
  </outline>
</glyph>
<glyph name="e" format="1">
  <advance width="460"/>
  <unicode hex="0065"/>
  <outline>
    <contour>
      <point x="87" y="218" type="curve" smooth="yes"/>
      <point x="296" y="218" type="line" smooth="yes"/>
      <point x="332" y="218"/>
      <point x="353" y="229"/>
      <point x="353" y="255" type="curve" smooth="yes"/>
      <point x="353" y="294"/>
      <point x="306" y="340"/>
      <point x="242" y="340" type="curve" smooth="yes"/>
      <point x="162" y="340"/>
      <point x="99" y="278"/>
      <point x="99" y="189" type="curve" smooth="yes"/>
      <point x="99" y="95"/>
      <point x="168" y="48"/>
      <point x="262" y="48" type="curve" smooth="yes"/>
      <point x="295" y="48"/>
      <point x="326" y="55"/>
      <point x="350" y="64" type="curve" smooth="yes"/>
      <point x="363" y="69"/>
      <point x="377" y="63"/>
      <point x="382" y="50" type="curve" smooth="yes"/>
      <point x="387" y="37"/>
      <point x="381" y="23"/>
      <point x="368" y="18" type="curve" smooth="yes"/>
      <point x="340" y="7"/>
      <point x="301" y="-2"/>
      <point x="262" y="-2" type="curve" smooth="yes"/>
      <point x="134" y="-2"/>
      <point x="49" y="67"/>
      <point x="49" y="189" type="curve"/>
      <point x="49" y="310"/>
      <point x="136" y="390"/>
      <point x="242" y="390" type="curve" smooth="yes"/>
      <point x="344" y="390"/>
      <point x="403" y="312"/>
      <point x="403" y="255" type="curve" smooth="yes"/>
      <point x="403" y="205"/>
      <point x="380" y="168"/>
      <point x="296" y="168" type="curve" smooth="yes"/>
      <point x="87" y="168" type="line" smooth="yes"/>
      <point x="74" y="168"/>
      <point x="62" y="180"/>
      <point x="62" y="193" type="curve" smooth="yes"/>
      <point x="62" y="207"/>
      <point x="74" y="218"/>
    </contour>
  </outline>
</glyph>
<glyph name="g" format="1">
  <advance width="503"/>
  <unicode hex="0067"/>
  <outline>
    <contour>
      <point x="382" y="305" type="curve" smooth="yes"/>
      <point x="334" y="329"/>
      <point x="302" y="340"/>
      <point x="250" y="340" type="curve" smooth="yes"/>
      <point x="173" y="340"/>
      <point x="99" y="279"/>
      <point x="99" y="185" type="curve" smooth="yes"/>
      <point x="99" y="98"/>
      <point x="157" y="60"/>
      <point x="216" y="60" type="curve" smooth="yes"/>
      <point x="274" y="60"/>
      <point x="332" y="94"/>
      <point x="371" y="155" type="curve" smooth="yes"/>
      <point x="378" y="167"/>
      <point x="394" y="170"/>
      <point x="405" y="163" type="curve" smooth="yes"/>
      <point x="417" y="156"/>
      <point x="420" y="140"/>
      <point x="413" y="129" type="curve" smooth="yes"/>
      <point x="364" y="50"/>
      <point x="290" y="10"/>
      <point x="216" y="10" type="curve" smooth="yes"/>
      <point x="133" y="10"/>
      <point x="49" y="62"/>
      <point x="49" y="185" type="curve"/>
      <point x="49" y="311"/>
      <point x="149" y="390"/>
      <point x="250" y="390" type="curve" smooth="yes"/>
      <point x="310" y="390"/>
      <point x="348" y="377"/>
      <point x="404" y="351" type="curve" smooth="yes"/>
      <point x="416" y="345"/>
      <point x="421" y="329"/>
      <point x="416" y="317" type="curve" smooth="yes"/>
      <point x="410" y="305"/>
      <point x="394" y="300"/>
    </contour>
    <contour>
      <point x="162" y="-133" type="curve" smooth="yes"/>
      <point x="304" y="-133"/>
      <point x="368" y="-53"/>
      <point x="368" y="69" type="curve" smooth="yes"/>
      <point x="368" y="365" type="line" smooth="yes"/>
      <point x="368" y="379"/>
      <point x="380" y="390"/>
      <point x="393" y="390" type="curve" smooth="yes"/>
      <point x="407" y="390"/>
      <point x="418" y="379"/>
      <point x="418" y="365" type="curve" smooth="yes"/>
      <point x="418" y="69" type="line" smooth="yes"/>
      <point x="418" y="-83"/>
      <point x="340" y="-183"/>
      <point x="162" y="-183" type="curve" smooth="yes"/>
      <point x="149" y="-183"/>
      <point x="137" y="-172"/>
      <point x="137" y="-158" type="curve" smooth="yes"/>
      <point x="137" y="-145"/>
      <point x="149" y="-133"/>
    </contour>
  </outline>
</glyph>
<glyph name="h" format="1">
  <advance width="497"/>
  <unicode hex="0068"/>
  <outline>
    <contour>
      <point x="85" y="23" type="curve" smooth="yes"/>
      <point x="85" y="534" type="line" smooth="yes"/>
      <point x="85" y="548"/>
      <point x="97" y="559"/>
      <point x="110" y="559" type="curve" smooth="yes"/>
      <point x="124" y="559"/>
      <point x="135" y="548"/>
      <point x="135" y="534" type="curve" smooth="yes"/>
      <point x="135" y="23" type="line" smooth="yes"/>
      <point x="135" y="9"/>
      <point x="124" y="-2"/>
      <point x="110" y="-2" type="curve" smooth="yes"/>
      <point x="97" y="-2"/>
      <point x="85" y="10"/>
    </contour>
    <contour>
      <point x="372" y="23" type="curve" smooth="yes"/>
      <point x="372" y="223" type="line" smooth="yes"/>
      <point x="372" y="305"/>
      <point x="338" y="340"/>
      <point x="285" y="340" type="curve" smooth="yes"/>
      <point x="228" y="340"/>
      <point x="175" y="303"/>
      <point x="132" y="260" type="curve" smooth="yes"/>
      <point x="122" y="251"/>
      <point x="106" y="251"/>
      <point x="96" y="260" type="curve" smooth="yes"/>
      <point x="87" y="270"/>
      <point x="87" y="286"/>
      <point x="96" y="296" type="curve" smooth="yes"/>
      <point x="149" y="349"/>
      <point x="216" y="390"/>
      <point x="285" y="390" type="curve" smooth="yes"/>
      <point x="360" y="390"/>
      <point x="422" y="351"/>
      <point x="422" y="223" type="curve" smooth="yes"/>
      <point x="422" y="23" type="line" smooth="yes"/>
      <point x="422" y="9"/>
      <point x="411" y="-2"/>
      <point x="397" y="-2" type="curve" smooth="yes"/>
      <point x="384" y="-2"/>
      <point x="372" y="10"/>
    </contour>
  </outline>
</glyph>
<glyph name="i" format="1">
  <advance width="232"/>
  <unicode hex="0069"/>
  <outline>
    <contour>
      <point x="116" y="598" type="curve" smooth="yes"/>
      <point x="140" y="598"/>
      <point x="159" y="578"/>
      <point x="159" y="547" type="curve" smooth="yes"/>
      <point x="159" y="515"/>
      <point x="139" y="498"/>
      <point x="117" y="498" type="curve" smooth="yes"/>
      <point x="93" y="498"/>
      <point x="73" y="517"/>
      <point x="73" y="547" type="curve" smooth="yes"/>
      <point x="73" y="578"/>
      <point x="92" y="598"/>
    </contour>
    <contour>
      <point x="91" y="23" type="curve" smooth="yes"/>
      <point x="91" y="365" type="line" smooth="yes"/>
      <point x="91" y="379"/>
      <point x="103" y="390"/>
      <point x="116" y="390" type="curve" smooth="yes"/>
      <point x="130" y="390"/>
      <point x="141" y="379"/>
      <point x="141" y="365" type="curve" smooth="yes"/>
      <point x="141" y="23" type="line" smooth="yes"/>
      <point x="141" y="9"/>
      <point x="130" y="-2"/>
      <point x="116" y="-2" type="curve" smooth="yes"/>
      <point x="103" y="-2"/>
      <point x="91" y="10"/>
    </contour>
    <contour>
      <point x="116" y="548" type="curve" smooth="yes"/>
      <point x="116" y="548"/>
      <point x="123" y="542"/>
      <point x="123" y="547" type="curve" smooth="yes"/>
      <point x="123" y="551"/>
      <point x="118" y="548"/>
      <point x="117" y="548" type="curve" smooth="yes"/>
      <point x="117" y="548"/>
      <point x="109" y="553"/>
      <point x="109" y="547" type="curve" smooth="yes"/>
      <point x="109" y="542"/>
      <point x="116" y="548"/>
    </contour>
  </outline>
</glyph>
<glyph name="k" format="1">
  <advance width="469"/>
  <unicode hex="006B"/>
  <outline>
    <contour>
      <point x="85" y="23" type="curve" smooth="yes"/>
      <point x="85" y="534" type="line" smooth="yes"/>
      <point x="85" y="548"/>
      <point x="97" y="559"/>
      <point x="110" y="559" type="curve" smooth="yes"/>
      <point x="124" y="559"/>
      <point x="135" y="548"/>
      <point x="135" y="534" type="curve" smooth="yes"/>
      <point x="135" y="23" type="line" smooth="yes"/>
      <point x="135" y="9"/>
      <point x="124" y="-2"/>
      <point x="110" y="-2" type="curve" smooth="yes"/>
      <point x="97" y="-2"/>
      <point x="85" y="10"/>
    </contour>
    <contour>
      <point x="254" y="264" type="curve" smooth="yes"/>
      <point x="415" y="38" type="line" smooth="yes"/>
      <point x="423" y="27"/>
      <point x="421" y="10"/>
      <point x="410" y="3" type="curve" smooth="yes"/>
      <point x="399" y="-5"/>
      <point x="382" y="-3"/>
      <point x="375" y="8" type="curve" smooth="yes"/>
      <point x="214" y="234" type="line" smooth="yes"/>
      <point x="206" y="245"/>
      <point x="208" y="262"/>
      <point x="219" y="269" type="curve" smooth="yes"/>
      <point x="230" y="277"/>
      <point x="247" y="275"/>
    </contour>
    <contour>
      <point x="397" y="345" type="curve" smooth="yes"/>
      <point x="127" y="133" type="line" smooth="yes"/>
      <point x="117" y="125"/>
      <point x="101" y="127"/>
      <point x="92" y="138" type="curve" smooth="yes"/>
      <point x="84" y="148"/>
      <point x="86" y="164"/>
      <point x="97" y="173" type="curve" smooth="yes"/>
      <point x="367" y="385" type="line" smooth="yes"/>
      <point x="377" y="393"/>
      <point x="393" y="391"/>
      <point x="402" y="380" type="curve" smooth="yes"/>
      <point x="410" y="370"/>
      <point x="408" y="354"/>
    </contour>
  </outline>
</glyph>
<glyph name="m" format="1">
  <advance width="752"/>
  <unicode hex="006D"/>
  <outline>
    <contour>
      <point x="85" y="23" type="curve" smooth="yes"/>
      <point x="85" y="365" type="line" smooth="yes"/>
      <point x="85" y="379"/>
      <point x="97" y="390"/>
      <point x="110" y="390" type="curve" smooth="yes"/>
      <point x="124" y="390"/>
      <point x="135" y="379"/>
      <point x="135" y="365" type="curve" smooth="yes"/>
      <point x="135" y="23" type="line" smooth="yes"/>
      <point x="135" y="9"/>
      <point x="124" y="-2"/>
      <point x="110" y="-2" type="curve" smooth="yes"/>
      <point x="97" y="-2"/>
      <point x="85" y="10"/>
    </contour>
    <contour>
      <point x="357" y="23" type="curve" smooth="yes"/>
      <point x="357" y="233" type="line" smooth="yes"/>
      <point x="357" y="312"/>
      <point x="322" y="340"/>
      <point x="273" y="340" type="curve" smooth="yes"/>
      <point x="222" y="340"/>
      <point x="170" y="303"/>
      <point x="131" y="259" type="curve" smooth="yes"/>
      <point x="122" y="249"/>
      <point x="105" y="248"/>
      <point x="95" y="257" type="curve" smooth="yes"/>
      <point x="85" y="266"/>
      <point x="84" y="283"/>
      <point x="93" y="293" type="curve" smooth="yes"/>
      <point x="142" y="347"/>
      <point x="210" y="390"/>
      <point x="273" y="390" type="curve" smooth="yes"/>
      <point x="346" y="390"/>
      <point x="407" y="360"/>
      <point x="407" y="233" type="curve" smooth="yes"/>
      <point x="407" y="23" type="line" smooth="yes"/>
      <point x="407" y="9"/>
      <point x="396" y="-2"/>
      <point x="382" y="-2" type="curve" smooth="yes"/>
      <point x="369" y="-2"/>
      <point x="357" y="10"/>
    </contour>
    <contour>
      <point x="627" y="23" type="curve" smooth="yes"/>
      <point x="627" y="233" type="line" smooth="yes"/>
      <point x="627" y="312"/>
      <point x="592" y="340"/>
      <point x="543" y="340" type="curve" smooth="yes"/>
      <point x="492" y="340"/>
      <point x="440" y="302"/>
      <point x="400" y="259" type="curve" smooth="yes"/>
      <point x="391" y="249"/>
      <point x="375" y="248"/>
      <point x="365" y="258" type="curve" smooth="yes"/>
      <point x="355" y="267"/>
      <point x="354" y="283"/>
      <point x="364" y="293" type="curve" smooth="yes"/>
      <point x="414" y="348"/>
      <point x="480" y="390"/>
      <point x="543" y="390" type="curve" smooth="yes"/>
      <point x="616" y="390"/>
      <point x="677" y="360"/>
      <point x="677" y="233" type="curve" smooth="yes"/>
      <point x="677" y="23" type="line" smooth="yes"/>
      <point x="677" y="9"/>
      <point x="666" y="-2"/>
      <point x="652" y="-2" type="curve" smooth="yes"/>
      <point x="639" y="-2"/>
      <point x="627" y="10"/>
    </contour>
  </outline>
</glyph>
<glyph name="p" format="1">
  <advance width="503"/>
  <unicode hex="0070"/>
  <outline>
    <contour>
      <point x="85" y="-168" type="curve" smooth="yes"/>
      <point x="85" y="365" type="line" smooth="yes"/>
      <point x="85" y="379"/>
      <point x="97" y="390"/>
      <point x="110" y="390" type="curve" smooth="yes"/>
      <point x="124" y="390"/>
      <point x="135" y="379"/>
      <point x="135" y="365" type="curve" smooth="yes"/>
      <point x="135" y="-168" type="line" smooth="yes"/>
      <point x="135" y="-182"/>
      <point x="124" y="-193"/>
      <point x="110" y="-193" type="curve" smooth="yes"/>
      <point x="97" y="-193"/>
      <point x="85" y="-182"/>
    </contour>
    <contour>
      <point x="126" y="106" type="curve" smooth="yes"/>
      <point x="167" y="72"/>
      <point x="216" y="48"/>
      <point x="265" y="48" type="curve" smooth="yes"/>
      <point x="349" y="48"/>
      <point x="405" y="112"/>
      <point x="405" y="194" type="curve" smooth="yes"/>
      <point x="405" y="287"/>
      <point x="346" y="340"/>
      <point x="277" y="340" type="curve" smooth="yes"/>
      <point x="219" y="340"/>
      <point x="171" y="300"/>
      <point x="131" y="244" type="curve" smooth="yes"/>
      <point x="124" y="233"/>
      <point x="108" y="230"/>
      <point x="97" y="238" type="curve" smooth="yes"/>
      <point x="86" y="245"/>
      <point x="83" y="261"/>
      <point x="91" y="272" type="curve" smooth="yes"/>
      <point x="141" y="344"/>
      <point x="205" y="390"/>
      <point x="277" y="390" type="curve" smooth="yes"/>
      <point x="370" y="390"/>
      <point x="455" y="323"/>
      <point x="455" y="194" type="curve" smooth="yes"/>
      <point x="455" y="82"/>
      <point x="377" y="-2"/>
      <point x="265" y="-2" type="curve" smooth="yes"/>
      <point x="206" y="-2"/>
      <point x="145" y="26"/>
      <point x="94" y="68" type="curve" smooth="yes"/>
      <point x="84" y="76"/>
      <point x="82" y="93"/>
      <point x="91" y="103" type="curve" smooth="yes"/>
      <point x="99" y="113"/>
      <point x="116" y="115"/>
    </contour>
  </outline>
</glyph>
<glyph name="r" format="1">
  <advance width="346"/>
  <unicode hex="0072"/>
  <outline>
    <contour>
      <point x="85" y="23" type="curve" smooth="yes"/>
      <point x="85" y="365" type="line" smooth="yes"/>
      <point x="85" y="379"/>
      <point x="97" y="390"/>
      <point x="110" y="390" type="curve" smooth="yes"/>
      <point x="124" y="390"/>
      <point x="135" y="379"/>
      <point x="135" y="365" type="curve" smooth="yes"/>
      <point x="135" y="23" type="line" smooth="yes"/>
      <point x="135" y="9"/>
      <point x="124" y="-2"/>
      <point x="110" y="-2" type="curve" smooth="yes"/>
      <point x="97" y="-2"/>
      <point x="85" y="10"/>
    </contour>
    <contour>
      <point x="90" y="248" type="curve" smooth="yes"/>
      <point x="141" y="327"/>
      <point x="203" y="378"/>
      <point x="299" y="390" type="curve" smooth="yes"/>
      <point x="312" y="391"/>
      <point x="325" y="381"/>
      <point x="327" y="368" type="curve" smooth="yes"/>
      <point x="328" y="355"/>
      <point x="318" y="342"/>
      <point x="305" y="340" type="curve" smooth="yes"/>
      <point x="225" y="330"/>
      <point x="175" y="287"/>
      <point x="132" y="220" type="curve" smooth="yes"/>
      <point x="125" y="209"/>
      <point x="109" y="206"/>
      <point x="97" y="213" type="curve" smooth="yes"/>
      <point x="86" y="220"/>
      <point x="83" y="236"/>
    </contour>
  </outline>
</glyph>
<glyph name="x" format="1">
  <advance width="447"/>
  <unicode hex="0078"/>
  <outline>
    <contour>
      <point x="44" y="39" type="curve" smooth="yes"/>
      <point x="109" y="113"/>
      <point x="267" y="283"/>
      <point x="344" y="381" type="curve" smooth="yes"/>
      <point x="353" y="391"/>
      <point x="369" y="393"/>
      <point x="380" y="385" type="curve" smooth="yes"/>
      <point x="390" y="376"/>
      <point x="392" y="360"/>
      <point x="384" y="349" type="curve" smooth="yes"/>
      <point x="305" y="251"/>
      <point x="147" y="81"/>
      <point x="82" y="7" type="curve" smooth="yes"/>
      <point x="73" y="-4"/>
      <point x="57" y="-5"/>
      <point x="47" y="4" type="curve" smooth="yes"/>
      <point x="36" y="13"/>
      <point x="35" y="29"/>
    </contour>
    <contour>
      <point x="95" y="381" type="curve" smooth="yes"/>
      <point x="173" y="289"/>
      <point x="313" y="142"/>
      <point x="403" y="39" type="curve" smooth="yes"/>
      <point x="412" y="29"/>
      <point x="411" y="13"/>
      <point x="400" y="4" type="curve" smooth="yes"/>
      <point x="390" y="-5"/>
      <point x="374" y="-4"/>
      <point x="365" y="7" type="curve" smooth="yes"/>
      <point x="275" y="110"/>
      <point x="135" y="257"/>
      <point x="57" y="349" type="curve" smooth="yes"/>
      <point x="48" y="359"/>
      <point x="50" y="375"/>
      <point x="60" y="384" type="curve" smooth="yes"/>
      <point x="70" y="393"/>
      <point x="86" y="391"/>
    </contour>
  </outline>
</glyph>
<glyph name="braceleft" format="1">
  <advance width="315"/>
  <unicode hex="007B"/>
  <outline>
    <contour>
      <point x="273" y="578" type="curve" smooth="yes"/>
      <point x="253" y="578" type="line" smooth="yes"/>
      <point x="178" y="578"/>
      <point x="120" y="543"/>
      <point x="120" y="495" type="curve" smooth="yes"/>
      <point x="120" y="430"/>
      <point x="187" y="395"/>
      <point x="187" y="337" type="curve" smooth="yes"/>
      <point x="187" y="293"/>
      <point x="155" y="255"/>
      <point x="64" y="241" type="curve"/>
      <point x="85" y="266" type="line"/>
      <point x="85" y="260" type="line"/>
      <point x="64" y="285" type="line"/>
      <point x="155" y="271"/>
      <point x="187" y="233"/>
      <point x="187" y="189" type="curve" smooth="yes"/>
      <point x="187" y="131"/>
      <point x="120" y="96"/>
      <point x="120" y="31" type="curve" smooth="yes"/>
      <point x="120" y="-17"/>
      <point x="178" y="-52"/>
      <point x="253" y="-52" type="curve" smooth="yes"/>
      <point x="273" y="-52" type="line" smooth="yes"/>
      <point x="287" y="-52"/>
      <point x="298" y="-64"/>
      <point x="298" y="-77" type="curve" smooth="yes"/>
      <point x="298" y="-91"/>
      <point x="287" y="-102"/>
      <point x="273" y="-102" type="curve" smooth="yes"/>
      <point x="253" y="-102" type="line" smooth="yes"/>
      <point x="132" y="-102"/>
      <point x="70" y="-35"/>
      <point x="70" y="31" type="curve" smooth="yes"/>
      <point x="70" y="96"/>
      <point x="137" y="131"/>
      <point x="137" y="189" type="curve" smooth="yes"/>
      <point x="137" y="217"/>
      <point x="101" y="229"/>
      <point x="56" y="235" type="curve" smooth="yes"/>
      <point x="45" y="237"/>
      <point x="35" y="248"/>
      <point x="35" y="260" type="curve"/>
      <point x="35" y="266" type="line"/>
      <point x="35" y="278"/>
      <point x="45" y="289"/>
      <point x="56" y="291" type="curve" smooth="yes"/>
      <point x="101" y="297"/>
      <point x="137" y="309"/>
      <point x="137" y="337" type="curve" smooth="yes"/>
      <point x="137" y="395"/>
      <point x="70" y="430"/>
      <point x="70" y="495" type="curve" smooth="yes"/>
      <point x="70" y="561"/>
      <point x="132" y="628"/>
      <point x="253" y="628" type="curve" smooth="yes"/>
      <point x="273" y="628" type="line" smooth="yes"/>
      <point x="287" y="628"/>
      <point x="298" y="617"/>
      <point x="298" y="603" type="curve" smooth="yes"/>
      <point x="298" y="590"/>
      <point x="287" y="578"/>
    </contour>
  </outline>
</glyph>
<glyph name="yen" format="1">
  <advance width="560"/>
  <unicode hex="00A5"/>
  <outline>
    <contour>
      <point x="313" y="265" type="curve" smooth="yes"/>
      <point x="313" y="23" type="line" smooth="yes"/>
      <point x="313" y="9"/>
      <point x="302" y="-2"/>
      <point x="288" y="-2" type="curve" smooth="yes"/>
      <point x="275" y="-2"/>
      <point x="263" y="10"/>
      <point x="263" y="23" type="curve" smooth="yes"/>
      <point x="263" y="265" type="line" smooth="yes"/>
      <point x="263" y="279"/>
      <point x="275" y="290"/>
      <point x="288" y="290" type="curve" smooth="yes"/>
      <point x="302" y="290"/>
      <point x="313" y="279"/>
    </contour>
    <contour>
      <point x="113" y="522" type="curve" smooth="yes"/>
      <point x="162" y="453"/>
      <point x="265" y="335"/>
      <point x="302" y="299" type="curve" smooth="yes"/>
      <point x="312" y="289"/>
      <point x="312" y="273"/>
      <point x="303" y="264" type="curve" smooth="yes"/>
      <point x="293" y="254"/>
      <point x="277" y="254"/>
      <point x="268" y="263" type="curve" smooth="yes"/>
      <point x="229" y="301"/>
      <point x="122" y="423"/>
      <point x="73" y="494" type="curve" smooth="yes"/>
      <point x="65" y="505"/>
      <point x="68" y="521"/>
      <point x="79" y="528" type="curve" smooth="yes"/>
      <point x="90" y="536"/>
      <point x="106" y="533"/>
    </contour>
    <contour>
      <point x="270" y="289" type="curve" smooth="yes"/>
      <point x="320" y="338"/>
      <point x="410" y="454"/>
      <point x="459" y="522" type="curve" smooth="yes"/>
      <point x="466" y="533"/>
      <point x="482" y="536"/>
      <point x="493" y="528" type="curve" smooth="yes"/>
      <point x="504" y="521"/>
      <point x="507" y="505"/>
      <point x="499" y="494" type="curve" smooth="yes"/>
      <point x="450" y="424"/>
      <point x="356" y="304"/>
      <point x="306" y="253" type="curve" smooth="yes"/>
      <point x="296" y="244"/>
      <point x="280" y="244"/>
      <point x="270" y="253" type="curve" smooth="yes"/>
      <point x="261" y="263"/>
      <point x="261" y="279"/>
    </contour>
    <contour>
      <point x="113" y="292" type="curve" smooth="yes"/>
      <point x="461" y="292" type="line" smooth="yes"/>
      <point x="475" y="292"/>
      <point x="486" y="281"/>
      <point x="486" y="267" type="curve" smooth="yes"/>
      <point x="486" y="254"/>
      <point x="475" y="242"/>
      <point x="461" y="242" type="curve" smooth="yes"/>
      <point x="113" y="242" type="line" smooth="yes"/>
      <point x="100" y="242"/>
      <point x="88" y="254"/>
      <point x="88" y="267" type="curve" smooth="yes"/>
      <point x="88" y="281"/>
      <point x="100" y="292"/>
    </contour>
    <contour>
      <point x="113" y="150" type="curve" smooth="yes"/>
      <point x="461" y="150" type="line" smooth="yes"/>
      <point x="475" y="150"/>
      <point x="486" y="139"/>
      <point x="486" y="125" type="curve" smooth="yes"/>
      <point x="486" y="112"/>
      <point x="475" y="100"/>
      <point x="461" y="100" type="curve" smooth="yes"/>
      <point x="113" y="100" type="line" smooth="yes"/>
      <point x="100" y="100"/>
      <point x="88" y="112"/>
      <point x="88" y="125" type="curve" smooth="yes"/>
      <point x="88" y="139"/>
      <point x="100" y="150"/>
    </contour>
  </outline>
</glyph>
<glyph name="dieresis" format="1">
  <advance width="490"/>
  <unicode hex="00A8"/>
  <outline>
    <contour>
      <point x="150" y="567" type="curve" smooth="yes"/>
      <point x="139" y="567"/>
      <point x="133" y="554"/>
      <point x="133" y="541" type="curve" smooth="yes"/>
      <point x="133" y="528"/>
      <point x="139" y="517"/>
      <point x="150" y="517" type="curve" smooth="yes"/>
      <point x="160" y="517"/>
      <point x="166" y="528"/>
      <point x="166" y="541" type="curve" smooth="yes"/>
      <point x="166" y="554"/>
      <point x="160" y="567"/>
    </contour>
    <contour>
      <point x="328" y="567" type="curve" smooth="yes"/>
      <point x="317" y="567"/>
      <point x="311" y="554"/>
      <point x="311" y="541" type="curve" smooth="yes"/>
      <point x="311" y="528"/>
      <point x="317" y="517"/>
      <point x="328" y="517" type="curve" smooth="yes"/>
      <point x="338" y="517"/>
      <point x="344" y="528"/>
      <point x="344" y="541" type="curve" smooth="yes"/>
      <point x="344" y="554"/>
      <point x="338" y="567"/>
    </contour>
  </outline>
</glyph>
<glyph name="copyright" format="1">
  <advance width="653"/>
  <unicode hex="00A9"/>
  <outline>
    <contour>
      <point x="329" y="542" type="curve" smooth="yes"/>
      <point x="482" y="542"/>
      <point x="604" y="428"/>
      <point x="604" y="265" type="curve" smooth="yes"/>
      <point x="604" y="110"/>
      <point x="503" y="-11"/>
      <point x="329" y="-11" type="curve" smooth="yes"/>
      <point x="164" y="-11"/>
      <point x="49" y="110"/>
      <point x="49" y="262" type="curve"/>
      <point x="49" y="428"/>
      <point x="161" y="542"/>
    </contour>
    <contour>
      <point x="393" y="358" type="curve" smooth="yes"/>
      <point x="379" y="365"/>
      <point x="358" y="371"/>
      <point x="335" y="371" type="curve" smooth="yes"/>
      <point x="280" y="371"/>
      <point x="231" y="327"/>
      <point x="231" y="264" type="curve" smooth="yes"/>
      <point x="231" y="205"/>
      <point x="271" y="160"/>
      <point x="338" y="160" type="curve" smooth="yes"/>
      <point x="360" y="160"/>
      <point x="381" y="165"/>
      <point x="396" y="173" type="curve" smooth="yes"/>
      <point x="408" y="179"/>
      <point x="424" y="175"/>
      <point x="430" y="163" type="curve" smooth="yes"/>
      <point x="436" y="151"/>
      <point x="432" y="135"/>
      <point x="420" y="129" type="curve" smooth="yes"/>
      <point x="397" y="117"/>
      <point x="370" y="110"/>
      <point x="338" y="110" type="curve" smooth="yes"/>
      <point x="239" y="110"/>
      <point x="181" y="177"/>
      <point x="181" y="264" type="curve" smooth="yes"/>
      <point x="181" y="357"/>
      <point x="254" y="421"/>
      <point x="335" y="421" type="curve" smooth="yes"/>
      <point x="368" y="421"/>
      <point x="397" y="413"/>
      <point x="417" y="402" type="curve" smooth="yes"/>
      <point x="429" y="396"/>
      <point x="433" y="380"/>
      <point x="427" y="368" type="curve" smooth="yes"/>
      <point x="421" y="356"/>
      <point x="405" y="352"/>
    </contour>
    <contour>
      <point x="329" y="492" type="curve" smooth="yes"/>
      <point x="191" y="492"/>
      <point x="99" y="398"/>
      <point x="99" y="262" type="curve" smooth="yes"/>
      <point x="99" y="138"/>
      <point x="194" y="39"/>
      <point x="329" y="39" type="curve" smooth="yes"/>
      <point x="471" y="39"/>
      <point x="554" y="138"/>
      <point x="554" y="265" type="curve" smooth="yes"/>
      <point x="554" y="398"/>
      <point x="454" y="492"/>
    </contour>
  </outline>
</glyph>
<glyph name="guillemotleft" format="1">
  <advance width="438"/>
  <unicode hex="00AB"/>
  <outline>
    <contour>
      <point x="261" y="204" type="curve" smooth="yes"/>
      <point x="372" y="54" type="line" smooth="yes"/>
      <point x="380" y="43"/>
      <point x="378" y="27"/>
      <point x="367" y="19" type="curve" smooth="yes"/>
      <point x="356" y="11"/>
      <point x="340" y="13"/>
      <point x="332" y="24" type="curve" smooth="yes"/>
      <point x="221" y="174" type="line" smooth="yes"/>
      <point x="213" y="185"/>
      <point x="215" y="201"/>
      <point x="226" y="209" type="curve" smooth="yes"/>
      <point x="237" y="217"/>
      <point x="253" y="215"/>
    </contour>
    <contour>
      <point x="372" y="329" type="curve" smooth="yes"/>
      <point x="261" y="179" type="line" smooth="yes"/>
      <point x="253" y="168"/>
      <point x="237" y="166"/>
      <point x="226" y="174" type="curve" smooth="yes"/>
      <point x="215" y="182"/>
      <point x="213" y="198"/>
      <point x="221" y="209" type="curve" smooth="yes"/>
      <point x="332" y="359" type="line" smooth="yes"/>
      <point x="340" y="370"/>
      <point x="356" y="372"/>
      <point x="367" y="364" type="curve" smooth="yes"/>
      <point x="378" y="356"/>
      <point x="380" y="340"/>
    </contour>
    <contour>
      <point x="91" y="204" type="curve" smooth="yes"/>
      <point x="202" y="54" type="line" smooth="yes"/>
      <point x="210" y="43"/>
      <point x="208" y="27"/>
      <point x="197" y="19" type="curve" smooth="yes"/>
      <point x="186" y="11"/>
      <point x="170" y="13"/>
      <point x="162" y="24" type="curve" smooth="yes"/>
      <point x="51" y="174" type="line" smooth="yes"/>
      <point x="43" y="185"/>
      <point x="45" y="201"/>
      <point x="56" y="209" type="curve" smooth="yes"/>
      <point x="67" y="217"/>
      <point x="83" y="215"/>
    </contour>
    <contour>
      <point x="202" y="329" type="curve" smooth="yes"/>
      <point x="91" y="179" type="line" smooth="yes"/>
      <point x="83" y="168"/>
      <point x="67" y="166"/>
      <point x="56" y="174" type="curve" smooth="yes"/>
      <point x="45" y="182"/>
      <point x="43" y="198"/>
      <point x="51" y="209" type="curve" smooth="yes"/>
      <point x="162" y="359" type="line" smooth="yes"/>
      <point x="170" y="370"/>
      <point x="186" y="372"/>
      <point x="197" y="364" type="curve" smooth="yes"/>
      <point x="208" y="356"/>
      <point x="210" y="340"/>
    </contour>
  </outline>
</glyph>
<glyph name="registered" format="1">
  <advance width="560"/>
  <unicode hex="00AE"/>
  <outline>
    <contour>
      <point x="277" y="577" type="curve" smooth="yes"/>
      <point x="176" y="577"/>
      <point x="107" y="507"/>
      <point x="107" y="406" type="curve" smooth="yes"/>
      <point x="107" y="310"/>
      <point x="176" y="228"/>
      <point x="284" y="228" type="curve" smooth="yes"/>
      <point x="384" y="228"/>
      <point x="459" y="303"/>
      <point x="459" y="403" type="curve" smooth="yes"/>
      <point x="459" y="503"/>
      <point x="384" y="577"/>
    </contour>
    <contour>
      <point x="235" y="399" type="curve" smooth="yes"/>
      <point x="282" y="399" type="line" smooth="yes"/>
      <point x="309" y="399"/>
      <point x="323" y="415"/>
      <point x="323" y="436" type="curve" smooth="yes"/>
      <point x="323" y="459"/>
      <point x="305" y="470"/>
      <point x="282" y="470" type="curve" smooth="yes"/>
      <point x="225" y="470" type="line"/>
      <point x="247" y="492" type="line"/>
      <point x="247" y="316" type="line" smooth="yes"/>
      <point x="247" y="304"/>
      <point x="237" y="294"/>
      <point x="225" y="294" type="curve" smooth="yes"/>
      <point x="213" y="294"/>
      <point x="203" y="304"/>
      <point x="203" y="316" type="curve" smooth="yes"/>
      <point x="203" y="492" type="line" smooth="yes"/>
      <point x="203" y="504"/>
      <point x="213" y="514"/>
      <point x="225" y="514" type="curve" smooth="yes"/>
      <point x="282" y="514" type="line" smooth="yes"/>
      <point x="335" y="514"/>
      <point x="367" y="483"/>
      <point x="367" y="436" type="curve" smooth="yes"/>
      <point x="367" y="393"/>
      <point x="341" y="355"/>
      <point x="282" y="355" type="curve" smooth="yes"/>
      <point x="235" y="355" type="line" smooth="yes"/>
      <point x="223" y="355"/>
      <point x="213" y="365"/>
      <point x="213" y="377" type="curve" smooth="yes"/>
      <point x="213" y="389"/>
      <point x="223" y="399"/>
    </contour>
    <contour>
      <point x="326" y="385" type="curve" smooth="yes"/>
      <point x="373" y="330" type="line" smooth="yes"/>
      <point x="380" y="321"/>
      <point x="379" y="307"/>
      <point x="370" y="299" type="curve" smooth="yes"/>
      <point x="361" y="292"/>
      <point x="347" y="293"/>
      <point x="339" y="302" type="curve" smooth="yes"/>
      <point x="292" y="357" type="line" smooth="yes"/>
      <point x="285" y="366"/>
      <point x="286" y="380"/>
      <point x="295" y="388" type="curve" smooth="yes"/>
      <point x="304" y="395"/>
      <point x="318" y="394"/>
    </contour>
    <contour>
      <point x="277" y="621" type="curve" smooth="yes"/>
      <point x="412" y="621"/>
      <point x="503" y="527"/>
      <point x="503" y="403" type="curve" smooth="yes"/>
      <point x="503" y="277"/>
      <point x="410" y="184"/>
      <point x="284" y="184" type="curve" smooth="yes"/>
      <point x="150" y="184"/>
      <point x="63" y="286"/>
      <point x="63" y="406" type="curve" smooth="yes"/>
      <point x="63" y="533"/>
      <point x="150" y="621"/>
    </contour>
  </outline>
</glyph>
<glyph name="macron" format="1">
  <advance width="490"/>
  <unicode hex="00AF"/>
  <outline>
    <contour>
      <point x="346" y="515" type="curve" smooth="yes"/>
      <point x="145" y="515" type="line" smooth="yes"/>
      <point x="133" y="515"/>
      <point x="123" y="525"/>
      <point x="123" y="537" type="curve" smooth="yes"/>
      <point x="123" y="549"/>
      <point x="133" y="559"/>
      <point x="145" y="559" type="curve" smooth="yes"/>
      <point x="346" y="559" type="line" smooth="yes"/>
      <point x="358" y="559"/>
      <point x="368" y="549"/>
      <point x="368" y="537" type="curve" smooth="yes"/>
      <point x="368" y="525"/>
      <point x="358" y="515"/>
    </contour>
  </outline>
</glyph>
<glyph name="acute" format="1">
  <advance width="490"/>
  <unicode hex="00B4"/>
  <outline>
    <contour>
      <point x="303" y="582" type="curve" smooth="yes"/>
      <point x="276" y="551"/>
      <point x="249" y="520"/>
      <point x="223" y="489" type="curve" smooth="yes"/>
      <point x="215" y="480"/>
      <point x="201" y="479"/>
      <point x="192" y="486" type="curve" smooth="yes"/>
      <point x="183" y="494"/>
      <point x="182" y="508"/>
      <point x="189" y="517" type="curve" smooth="yes"/>
      <point x="215" y="548"/>
      <point x="242" y="581"/>
      <point x="271" y="612" type="curve" smooth="yes"/>
      <point x="279" y="621"/>
      <point x="293" y="621"/>
      <point x="302" y="613" type="curve" smooth="yes"/>
      <point x="311" y="605"/>
      <point x="311" y="591"/>
    </contour>
  </outline>
</glyph>
<glyph name="cedilla" format="1">
  <advance width="490"/>
  <unicode hex="00B8"/>
  <outline>
    <contour>
      <point x="309" y="-99" type="curve" smooth="yes"/>
      <point x="282" y="-125"/>
      <point x="231" y="-176"/>
      <point x="209" y="-199" type="curve" smooth="yes"/>
      <point x="200" y="-207"/>
      <point x="186" y="-207"/>
      <point x="177" y="-199" type="curve" smooth="yes"/>
      <point x="169" y="-190"/>
      <point x="169" y="-176"/>
      <point x="177" y="-167" type="curve" smooth="yes"/>
      <point x="201" y="-144"/>
      <point x="252" y="-93"/>
      <point x="279" y="-67" type="curve" smooth="yes"/>
      <point x="287" y="-59"/>
      <point x="302" y="-59"/>
      <point x="310" y="-68" type="curve" smooth="yes"/>
      <point x="318" y="-76"/>
      <point x="318" y="-91"/>
    </contour>
  </outline>
</glyph>
<glyph name="onehalf" format="1">
  <advance width="780"/>
  <unicode hex="00BD"/>
  <outline>
    <contour>
      <point x="511" y="497" type="curve" smooth="yes"/>
      <point x="228" y="12" type="line" smooth="yes"/>
      <point x="222" y="2"/>
      <point x="208" y="-2"/>
      <point x="198" y="4" type="curve" smooth="yes"/>
      <point x="188" y="10"/>
      <point x="184" y="24"/>
      <point x="190" y="34" type="curve" smooth="yes"/>
      <point x="473" y="519" type="line" smooth="yes"/>
      <point x="479" y="529"/>
      <point x="493" y="533"/>
      <point x="503" y="527" type="curve" smooth="yes"/>
      <point x="513" y="521"/>
      <point x="517" y="507"/>
    </contour>
    <contour>
      <point x="224" y="515" type="curve" smooth="yes"/>
      <point x="224" y="257" type="line" smooth="yes"/>
      <point x="224" y="245"/>
      <point x="214" y="235"/>
      <point x="202" y="235" type="curve" smooth="yes"/>
      <point x="190" y="235"/>
      <point x="180" y="245"/>
      <point x="180" y="257" type="curve" smooth="yes"/>
      <point x="180" y="515" type="line" smooth="yes"/>
      <point x="180" y="527"/>
      <point x="190" y="537"/>
      <point x="202" y="537" type="curve" smooth="yes"/>
      <point x="214" y="537"/>
      <point x="224" y="527"/>
    </contour>
    <contour>
      <point x="212" y="499" type="curve" smooth="yes"/>
      <point x="130" y="455" type="line" smooth="yes"/>
      <point x="120" y="449"/>
      <point x="106" y="453"/>
      <point x="101" y="464" type="curve" smooth="yes"/>
      <point x="95" y="474"/>
      <point x="99" y="488"/>
      <point x="110" y="493" type="curve" smooth="yes"/>
      <point x="192" y="537" type="line" smooth="yes"/>
      <point x="202" y="543"/>
      <point x="216" y="539"/>
      <point x="221" y="528" type="curve" smooth="yes"/>
      <point x="227" y="518"/>
      <point x="223" y="504"/>
    </contour>
    <contour>
      <point x="456" y="44" type="curve" smooth="yes"/>
      <point x="545" y="127" type="line" smooth="yes"/>
      <point x="594" y="174"/>
      <point x="614" y="191"/>
      <point x="614" y="220" type="curve" smooth="yes"/>
      <point x="614" y="241"/>
      <point x="593" y="257"/>
      <point x="561" y="257" type="curve" smooth="yes"/>
      <point x="536" y="257"/>
      <point x="517" y="250"/>
      <point x="496" y="236" type="curve" smooth="yes"/>
      <point x="486" y="230"/>
      <point x="472" y="233"/>
      <point x="465" y="243" type="curve" smooth="yes"/>
      <point x="459" y="253"/>
      <point x="462" y="267"/>
      <point x="472" y="274" type="curve" smooth="yes"/>
      <point x="501" y="292"/>
      <point x="528" y="301"/>
      <point x="561" y="301" type="curve" smooth="yes"/>
      <point x="631" y="301"/>
      <point x="658" y="259"/>
      <point x="658" y="220" type="curve" smooth="yes"/>
      <point x="658" y="183"/>
      <point x="642" y="158"/>
      <point x="575" y="95" type="curve" smooth="yes"/>
      <point x="486" y="12" type="line" smooth="yes"/>
      <point x="477" y="4"/>
      <point x="463" y="4"/>
      <point x="455" y="13" type="curve" smooth="yes"/>
      <point x="447" y="22"/>
      <point x="447" y="36"/>
    </contour>
    <contour>
      <point x="655" y="1" type="curve" smooth="yes"/>
      <point x="466" y="1" type="line" smooth="yes"/>
      <point x="454" y="1"/>
      <point x="444" y="11"/>
      <point x="444" y="23" type="curve" smooth="yes"/>
      <point x="444" y="35"/>
      <point x="454" y="45"/>
      <point x="466" y="45" type="curve" smooth="yes"/>
      <point x="655" y="45" type="line" smooth="yes"/>
      <point x="667" y="45"/>
      <point x="677" y="35"/>
      <point x="677" y="23" type="curve" smooth="yes"/>
      <point x="677" y="11"/>
      <point x="667" y="1"/>
    </contour>
  </outline>
</glyph>
<glyph name="AE" format="1">
  <advance width="755"/>
  <unicode hex="00C6"/>
  <outline>
    <contour>
      <point x="375" y="495" type="curve" smooth="yes"/>
      <point x="272" y="326"/>
      <point x="146" y="136"/>
      <point x="64" y="9" type="curve" smooth="yes"/>
      <point x="57" y="-2"/>
      <point x="41" y="-5"/>
      <point x="29" y="2" type="curve" smooth="yes"/>
      <point x="18" y="9"/>
      <point x="15" y="25"/>
      <point x="22" y="37" type="curve" smooth="yes"/>
      <point x="104" y="162"/>
      <point x="230" y="352"/>
      <point x="333" y="521" type="curve" smooth="yes"/>
      <point x="340" y="533"/>
      <point x="355" y="536"/>
      <point x="367" y="529" type="curve" smooth="yes"/>
      <point x="379" y="522"/>
      <point x="382" y="507"/>
    </contour>
    <contour>
      <point x="143" y="193" type="curve" smooth="yes"/>
      <point x="392" y="193" type="line" smooth="yes"/>
      <point x="406" y="193"/>
      <point x="417" y="182"/>
      <point x="417" y="168" type="curve" smooth="yes"/>
      <point x="417" y="155"/>
      <point x="406" y="143"/>
      <point x="392" y="143" type="curve" smooth="yes"/>
      <point x="143" y="143" type="line" smooth="yes"/>
      <point x="130" y="143"/>
      <point x="118" y="155"/>
      <point x="118" y="168" type="curve" smooth="yes"/>
      <point x="118" y="182"/>
      <point x="130" y="193"/>
    </contour>
    <contour>
      <point x="410" y="483" type="curve" smooth="yes"/>
      <point x="359" y="483" type="line" smooth="yes"/>
      <point x="346" y="483"/>
      <point x="334" y="495"/>
      <point x="334" y="508" type="curve" smooth="yes"/>
      <point x="334" y="522"/>
      <point x="346" y="533"/>
      <point x="359" y="533" type="curve" smooth="yes"/>
      <point x="410" y="533" type="line" smooth="yes"/>
      <point x="424" y="533"/>
      <point x="435" y="522"/>
      <point x="435" y="508" type="curve" smooth="yes"/>
      <point x="435" y="495"/>
      <point x="424" y="483"/>
    </contour>
    <component base="E" xOffset="270"/>
    <component base="E" xOffset="270"/>
  </outline>
</glyph>
<glyph name="Eth" format="1">
  <advance width="627"/>
  <unicode hex="00D0"/>
  <outline>
    <contour>
      <point x="64" y="295" type="curve" smooth="yes"/>
      <point x="310" y="295" type="line" smooth="yes"/>
      <point x="324" y="295"/>
      <point x="335" y="284"/>
      <point x="335" y="270" type="curve" smooth="yes"/>
      <point x="335" y="257"/>
      <point x="324" y="245"/>
      <point x="310" y="245" type="curve" smooth="yes"/>
      <point x="64" y="245" type="line" smooth="yes"/>
      <point x="51" y="245"/>
      <point x="39" y="257"/>
      <point x="39" y="270" type="curve" smooth="yes"/>
      <point x="39" y="284"/>
      <point x="51" y="295"/>
    </contour>
    <component base="D" xOffset="15"/>
    <component base="D" xOffset="15"/>
  </outline>
</glyph>
<glyph name="multiply" format="1">
  <advance width="530"/>
  <unicode hex="00D7"/>
  <outline>
    <contour>
      <point x="93" y="140" type="curve" smooth="yes"/>
      <point x="379" y="415" type="line" smooth="yes"/>
      <point x="388" y="424"/>
      <point x="405" y="424"/>
      <point x="414" y="414" type="curve" smooth="yes"/>
      <point x="423" y="405"/>
      <point x="423" y="388"/>
      <point x="413" y="379" type="curve" smooth="yes"/>
      <point x="127" y="104" type="line" smooth="yes"/>
      <point x="118" y="95"/>
      <point x="101" y="95"/>
      <point x="92" y="105" type="curve" smooth="yes"/>
      <point x="83" y="114"/>
      <point x="83" y="131"/>
    </contour>
    <contour>
      <point x="383" y="104" type="curve" smooth="yes"/>
      <point x="97" y="378" type="line" smooth="yes"/>
      <point x="87" y="387"/>
      <point x="87" y="404"/>
      <point x="96" y="413" type="curve" smooth="yes"/>
      <point x="105" y="423"/>
      <point x="122" y="423"/>
      <point x="131" y="414" type="curve" smooth="yes"/>
      <point x="417" y="140" type="line" smooth="yes"/>
      <point x="427" y="131"/>
      <point x="427" y="114"/>
      <point x="418" y="105" type="curve" smooth="yes"/>
      <point x="409" y="95"/>
      <point x="392" y="95"/>
    </contour>
  </outline>
</glyph>
<glyph name="Oslash" format="1">
  <advance width="640"/>
  <unicode hex="00D8"/>
  <outline>
    <contour>
      <point x="544" y="492" type="curve" smooth="yes"/>
      <point x="134" y="-12" type="line" smooth="yes"/>
      <point x="126" y="-22"/>
      <point x="110" y="-24"/>
      <point x="99" y="-15" type="curve" smooth="yes"/>
      <point x="89" y="-7"/>
      <point x="87" y="9"/>
      <point x="96" y="20" type="curve" smooth="yes"/>
      <point x="506" y="524" type="line" smooth="yes"/>
      <point x="514" y="534"/>
      <point x="530" y="536"/>
      <point x="541" y="527" type="curve" smooth="yes"/>
      <point x="551" y="519"/>
      <point x="553" y="503"/>
    </contour>
    <component base="O"/>
    <component base="O"/>
  </outline>
</glyph>
<glyph name="Thorn" format="1">
  <advance width="505"/>
  <unicode hex="00DE"/>
  <outline>
    <contour>
      <point x="148" y="508" type="curve" smooth="yes"/>
      <point x="148" y="23" type="line" smooth="yes"/>
      <point x="148" y="9"/>
      <point x="137" y="-2"/>
      <point x="123" y="-2" type="curve" smooth="yes"/>
      <point x="110" y="-2"/>
      <point x="98" y="10"/>
      <point x="98" y="23" type="curve" smooth="yes"/>
      <point x="98" y="508" type="line" smooth="yes"/>
      <point x="98" y="522"/>
      <point x="110" y="533"/>
      <point x="123" y="533" type="curve" smooth="yes"/>
      <point x="137" y="533"/>
      <point x="148" y="522"/>
    </contour>
    <contour>
      <point x="149" y="149" type="curve" smooth="yes"/>
      <point x="260" y="149" type="line" smooth="yes"/>
      <point x="353" y="149"/>
      <point x="403" y="201"/>
      <point x="403" y="267" type="curve" smooth="yes"/>
      <point x="403" y="340"/>
      <point x="344" y="389"/>
      <point x="260" y="389" type="curve" smooth="yes"/>
      <point x="134" y="389" type="line" smooth="yes"/>
      <point x="121" y="389"/>
      <point x="109" y="401"/>
      <point x="109" y="414" type="curve" smooth="yes"/>
      <point x="109" y="428"/>
      <point x="121" y="439"/>
      <point x="134" y="439" type="curve" smooth="yes"/>
      <point x="260" y="439" type="line" smooth="yes"/>
      <point x="378" y="439"/>
      <point x="453" y="366"/>
      <point x="453" y="267" type="curve" smooth="yes"/>
      <point x="453" y="177"/>
      <point x="393" y="99"/>
      <point x="260" y="99" type="curve" smooth="yes"/>
      <point x="149" y="99" type="line" smooth="yes"/>
      <point x="136" y="99"/>
      <point x="124" y="111"/>
      <point x="124" y="124" type="curve" smooth="yes"/>
      <point x="124" y="138"/>
      <point x="136" y="149"/>
    </contour>
  </outline>
</glyph>
<glyph name="thorn" format="1">
  <advance width="503"/>
  <unicode hex="00FE"/>
  <outline>
    <contour>
      <point x="85" y="-168" type="curve" smooth="yes"/>
      <point x="85" y="533" type="line" smooth="yes"/>
      <point x="85" y="547"/>
      <point x="97" y="558"/>
      <point x="110" y="558" type="curve" smooth="yes"/>
      <point x="124" y="558"/>
      <point x="135" y="547"/>
      <point x="135" y="533" type="curve" smooth="yes"/>
      <point x="135" y="-168" type="line" smooth="yes"/>
      <point x="135" y="-182"/>
      <point x="124" y="-193"/>
      <point x="110" y="-193" type="curve" smooth="yes"/>
      <point x="97" y="-193"/>
      <point x="85" y="-182"/>
    </contour>
    <contour>
      <point x="126" y="106" type="curve" smooth="yes"/>
      <point x="167" y="72"/>
      <point x="216" y="48"/>
      <point x="265" y="48" type="curve" smooth="yes"/>
      <point x="349" y="48"/>
      <point x="405" y="112"/>
      <point x="405" y="194" type="curve" smooth="yes"/>
      <point x="405" y="287"/>
      <point x="346" y="340"/>
      <point x="277" y="340" type="curve" smooth="yes"/>
      <point x="219" y="340"/>
      <point x="171" y="300"/>
      <point x="131" y="244" type="curve" smooth="yes"/>
      <point x="124" y="233"/>
      <point x="108" y="230"/>
      <point x="97" y="238" type="curve" smooth="yes"/>
      <point x="86" y="245"/>
      <point x="83" y="261"/>
      <point x="91" y="272" type="curve" smooth="yes"/>
      <point x="141" y="344"/>
      <point x="205" y="390"/>
      <point x="277" y="390" type="curve" smooth="yes"/>
      <point x="370" y="390"/>
      <point x="455" y="323"/>
      <point x="455" y="194" type="curve" smooth="yes"/>
      <point x="455" y="82"/>
      <point x="377" y="-2"/>
      <point x="265" y="-2" type="curve" smooth="yes"/>
      <point x="206" y="-2"/>
      <point x="145" y="26"/>
      <point x="94" y="68" type="curve" smooth="yes"/>
      <point x="84" y="76"/>
      <point x="82" y="93"/>
      <point x="91" y="103" type="curve" smooth="yes"/>
      <point x="99" y="113"/>
      <point x="116" y="115"/>
    </contour>
  </outline>
</glyph>
<glyph name="dcaron" format="1">
  <advance width="631"/>
  <unicode hex="010F"/>
  <outline>
    <contour>
      <point x="611" y="557" type="curve" smooth="yes"/>
      <point x="591" y="418" type="line" smooth="yes"/>
      <point x="589" y="405"/>
      <point x="576" y="395"/>
      <point x="562" y="397" type="curve" smooth="yes"/>
      <point x="549" y="399"/>
      <point x="539" y="412"/>
      <point x="541" y="426" type="curve" smooth="yes"/>
      <point x="561" y="565" type="line" smooth="yes"/>
      <point x="563" y="578"/>
      <point x="576" y="588"/>
      <point x="590" y="586" type="curve" smooth="yes"/>
      <point x="603" y="584"/>
      <point x="613" y="571"/>
    </contour>
    <component base="d"/>
    <component base="d"/>
  </outline>
</glyph>
<glyph name="dotlessi" format="1">
  <advance width="207"/>
  <unicode hex="0131"/>
  <outline>
    <contour>
      <point x="78" y="23" type="curve" smooth="yes"/>
      <point x="78" y="365" type="line" smooth="yes"/>
      <point x="78" y="379"/>
      <point x="90" y="390"/>
      <point x="103" y="390" type="curve" smooth="yes"/>
      <point x="117" y="390"/>
      <point x="128" y="379"/>
      <point x="128" y="365" type="curve" smooth="yes"/>
      <point x="128" y="23" type="line" smooth="yes"/>
      <point x="128" y="9"/>
      <point x="116" y="-2"/>
      <point x="103" y="-2" type="curve" smooth="yes"/>
      <point x="89" y="-2"/>
      <point x="78" y="10"/>
    </contour>
  </outline>
</glyph>
<glyph name="Lcaron" format="1">
  <advance width="459"/>
  <unicode hex="013D"/>
  <outline>
    <contour>
      <point x="346" y="517" type="curve" smooth="yes"/>
      <point x="326" y="378" type="line" smooth="yes"/>
      <point x="324" y="365"/>
      <point x="311" y="355"/>
      <point x="297" y="357" type="curve" smooth="yes"/>
      <point x="284" y="359"/>
      <point x="274" y="372"/>
      <point x="276" y="386" type="curve" smooth="yes"/>
      <point x="296" y="525" type="line" smooth="yes"/>
      <point x="298" y="538"/>
      <point x="311" y="548"/>
      <point x="325" y="546" type="curve" smooth="yes"/>
      <point x="338" y="544"/>
      <point x="348" y="531"/>
    </contour>
    <component base="L"/>
    <component base="L"/>
  </outline>
</glyph>
<glyph name="pi" format="1">
  <advance width="633"/>
  <unicode hex="03C0"/>
  <outline>
    <contour>
      <point x="463" y="398" type="curve" smooth="yes"/>
      <point x="463" y="23" type="line" smooth="yes"/>
      <point x="463" y="9"/>
      <point x="452" y="-2"/>
      <point x="438" y="-2" type="curve" smooth="yes"/>
      <point x="425" y="-2"/>
      <point x="413" y="10"/>
      <point x="413" y="23" type="curve" smooth="yes"/>
      <point x="413" y="398" type="line" smooth="yes"/>
      <point x="413" y="412"/>
      <point x="425" y="423"/>
      <point x="438" y="423" type="curve" smooth="yes"/>
      <point x="452" y="423"/>
      <point x="463" y="412"/>
    </contour>
    <contour>
      <point x="91" y="428" type="curve" smooth="yes"/>
      <point x="541" y="428" type="line" smooth="yes"/>
      <point x="555" y="428"/>
      <point x="566" y="417"/>
      <point x="566" y="403" type="curve" smooth="yes"/>
      <point x="566" y="390"/>
      <point x="555" y="378"/>
      <point x="541" y="378" type="curve" smooth="yes"/>
      <point x="91" y="378" type="line" smooth="yes"/>
      <point x="78" y="378"/>
      <point x="66" y="390"/>
      <point x="66" y="403" type="curve" smooth="yes"/>
      <point x="66" y="417"/>
      <point x="78" y="428"/>
    </contour>
    <contour>
      <point x="223" y="398" type="curve" smooth="yes"/>
      <point x="223" y="219" type="line" smooth="yes"/>
      <point x="223" y="88"/>
      <point x="191" y="38"/>
      <point x="131" y="2" type="curve" smooth="yes"/>
      <point x="120" y="-5"/>
      <point x="104" y="-2"/>
      <point x="97" y="10" type="curve" smooth="yes"/>
      <point x="90" y="21"/>
      <point x="93" y="37"/>
      <point x="105" y="44" type="curve" smooth="yes"/>
      <point x="153" y="74"/>
      <point x="173" y="118"/>
      <point x="173" y="219" type="curve" smooth="yes"/>
      <point x="173" y="398" type="line" smooth="yes"/>
      <point x="173" y="412"/>
      <point x="185" y="423"/>
      <point x="198" y="423" type="curve" smooth="yes"/>
      <point x="212" y="423"/>
      <point x="223" y="412"/>
    </contour>
  </outline>
</glyph>
<glyph name="knI" format="1">
  <advance width="709"/>
  <unicode hex="0C87"/>
  <outline>
    <contour>
      <point x="549" y="-30" type="curve" smooth="yes"/>
      <point x="504" y="103"/>
      <point x="422" y="179"/>
      <point x="335" y="179" type="curve" smooth="yes"/>
      <point x="284" y="179"/>
      <point x="253" y="151"/>
      <point x="253" y="122" type="curve" smooth="yes"/>
      <point x="253" y="92"/>
      <point x="284" y="66"/>
      <point x="336" y="66" type="curve" smooth="yes"/>
      <point x="489" y="66"/>
      <point x="601" y="214"/>
      <point x="601" y="312" type="curve" smooth="yes"/>
      <point x="601" y="375"/>
      <point x="565" y="416"/>
      <point x="508" y="416" type="curve" smooth="yes"/>
      <point x="448" y="416"/>
      <point x="414" y="373"/>
      <point x="380" y="315" type="curve" smooth="yes"/>
      <point x="376" y="308"/>
      <point x="367" y="303"/>
      <point x="360" y="303" type="curve" smooth="yes"/>
      <point x="355" y="303" type="line" smooth="yes"/>
      <point x="348" y="303"/>
      <point x="338" y="308"/>
      <point x="335" y="315" type="curve" smooth="yes"/>
      <point x="303" y="373"/>
      <point x="263" y="417"/>
      <point x="199" y="417" type="curve" smooth="yes"/>
      <point x="144" y="417"/>
      <point x="111" y="376"/>
      <point x="111" y="328" type="curve" smooth="yes"/>
      <point x="111" y="308"/>
      <point x="117" y="288"/>
      <point x="131" y="266" type="curve" smooth="yes"/>
      <point x="137" y="255"/>
      <point x="134" y="241"/>
      <point x="123" y="234" type="curve" smooth="yes"/>
      <point x="112" y="228"/>
      <point x="98" y="231"/>
      <point x="91" y="242" type="curve" smooth="yes"/>
      <point x="73" y="272"/>
      <point x="65" y="300"/>
      <point x="65" y="328" type="curve" smooth="yes"/>
      <point x="65" y="402"/>
      <point x="116" y="463"/>
      <point x="199" y="463" type="curve" smooth="yes"/>
      <point x="279" y="463"/>
      <point x="333" y="413"/>
      <point x="375" y="337" type="curve"/>
      <point x="355" y="349" type="line"/>
      <point x="360" y="349" type="line"/>
      <point x="340" y="337" type="line"/>
      <point x="384" y="415"/>
      <point x="432" y="462"/>
      <point x="508" y="462" type="curve" smooth="yes"/>
      <point x="589" y="462"/>
      <point x="647" y="407"/>
      <point x="647" y="312" type="curve" smooth="yes"/>
      <point x="647" y="196"/>
      <point x="517" y="20"/>
      <point x="336" y="20" type="curve" smooth="yes"/>
      <point x="242" y="20"/>
      <point x="207" y="76"/>
      <point x="207" y="122" type="curve" smooth="yes"/>
      <point x="207" y="167"/>
      <point x="242" y="225"/>
      <point x="335" y="225" type="curve" smooth="yes"/>
      <point x="436" y="225"/>
      <point x="538" y="145"/>
      <point x="593" y="-16" type="curve" smooth="yes"/>
      <point x="597" y="-27"/>
      <point x="590" y="-41"/>
      <point x="578" y="-45" type="curve" smooth="yes"/>
      <point x="567" y="-49"/>
      <point x="553" y="-42"/>
    </contour>
  </outline>
</glyph>
<glyph name="knvR" format="1">
  <advance width="1071"/>
  <unicode hex="0C8B"/>
  <outline>
    <contour>
      <point x="489" y="456" type="curve" smooth="yes"/>
      <point x="571" y="456" type="line" smooth="yes"/>
      <point x="634" y="456"/>
      <point x="672" y="478"/>
      <point x="699" y="523" type="curve" smooth="yes"/>
      <point x="706" y="534"/>
      <point x="720" y="537"/>
      <point x="731" y="531" type="curve" smooth="yes"/>
      <point x="742" y="524"/>
      <point x="745" y="510"/>
      <point x="739" y="499" type="curve" smooth="yes"/>
      <point x="702" y="440"/>
      <point x="654" y="410"/>
      <point x="571" y="410" type="curve" smooth="yes"/>
      <point x="489" y="410" type="line" smooth="yes"/>
      <point x="477" y="410"/>
      <point x="466" y="421"/>
      <point x="466" y="433" type="curve" smooth="yes"/>
      <point x="466" y="445"/>
      <point x="477" y="456"/>
    </contour>
    <component base="knKha" xOffset="-44" yOffset="-142"/>
    <component base="knUsign" xOffset="1030" yOffset="-512"/>
    <component base="knKHA"/>
    <component base="knsignU" xOffset="755"/>
    <component base="knKha" xOffset="-44" yOffset="-142"/>
    <component base="knUsign" xOffset="1030" yOffset="-512"/>
    <component base="knKHA"/>
    <component base="knsignU" xOffset="755"/>
  </outline>
</glyph>
<glyph name="knOO" format="1">
  <advance width="742"/>
  <unicode hex="0C93"/>
  <outline>
    <contour>
      <point x="300" y="576" type="curve" smooth="yes"/>
      <point x="286" y="582"/>
      <point x="273" y="588"/>
      <point x="252" y="588" type="curve" smooth="yes"/>
      <point x="216" y="588"/>
      <point x="194" y="558"/>
      <point x="194" y="518" type="curve" smooth="yes"/>
      <point x="194" y="494"/>
      <point x="199" y="475"/>
      <point x="205" y="459" type="curve" smooth="yes"/>
      <point x="209" y="447"/>
      <point x="202" y="434"/>
      <point x="190" y="430" type="curve" smooth="yes"/>
      <point x="178" y="426"/>
      <point x="165" y="433"/>
      <point x="161" y="445" type="curve" smooth="yes"/>
      <point x="155" y="465"/>
      <point x="148" y="488"/>
      <point x="148" y="518" type="curve" smooth="yes"/>
      <point x="148" y="590"/>
      <point x="192" y="634"/>
      <point x="252" y="634" type="curve" smooth="yes"/>
      <point x="281" y="634"/>
      <point x="300" y="626"/>
      <point x="318" y="618" type="curve" smooth="yes"/>
      <point x="330" y="613"/>
      <point x="335" y="599"/>
      <point x="330" y="588" type="curve" smooth="yes"/>
      <point x="325" y="576"/>
      <point x="311" y="571"/>
    </contour>
    <component base="knO"/>
    <component base="knO"/>
  </outline>
</glyph>
<glyph name="knJHA" format="1">
  <advance width="1244"/>
  <unicode hex="0C9D"/>
  <outline>
    <contour>
      <point x="100" y="223" type="curve" smooth="yes"/>
      <point x="100" y="346"/>
      <point x="201" y="456"/>
      <point x="333" y="456" type="curve" smooth="yes"/>
      <point x="467" y="456"/>
      <point x="562" y="344"/>
      <point x="562" y="223" type="curve" smooth="yes"/>
      <point x="562" y="95"/>
      <point x="472" y="-4"/>
      <point x="331" y="-4" type="curve" smooth="yes"/>
      <point x="192" y="-4"/>
      <point x="100" y="93"/>
    </contour>
    <contour>
      <point x="865" y="-93" type="curve" smooth="yes"/>
      <point x="865" y="-196" type="line" smooth="yes"/>
      <point x="865" y="-208"/>
      <point x="854" y="-219"/>
      <point x="842" y="-219" type="curve" smooth="yes"/>
      <point x="830" y="-219"/>
      <point x="819" y="-208"/>
      <point x="819" y="-196" type="curve" smooth="yes"/>
      <point x="819" y="-93" type="line" smooth="yes"/>
      <point x="819" y="-81"/>
      <point x="830" y="-70"/>
      <point x="842" y="-70" type="curve" smooth="yes"/>
      <point x="854" y="-70"/>
      <point x="865" y="-81"/>
    </contour>
    <contour>
      <point x="94" y="456" type="curve" smooth="yes"/>
      <point x="452" y="456" type="line" smooth="yes"/>
      <point x="515" y="456"/>
      <point x="553" y="478"/>
      <point x="580" y="523" type="curve" smooth="yes"/>
      <point x="587" y="534"/>
      <point x="601" y="537"/>
      <point x="612" y="531" type="curve" smooth="yes"/>
      <point x="623" y="524"/>
      <point x="626" y="510"/>
      <point x="620" y="499" type="curve" smooth="yes"/>
      <point x="583" y="440"/>
      <point x="535" y="410"/>
      <point x="452" y="410" type="curve" smooth="yes"/>
      <point x="94" y="410" type="line" smooth="yes"/>
      <point x="82" y="410"/>
      <point x="71" y="421"/>
      <point x="71" y="433" type="curve" smooth="yes"/>
      <point x="71" y="445"/>
      <point x="82" y="456"/>
    </contour>
    <contour>
      <point x="146" y="223" type="curve" smooth="yes"/>
      <point x="146" y="119"/>
      <point x="220" y="42"/>
      <point x="331" y="42" type="curve" smooth="yes"/>
      <point x="444" y="42"/>
      <point x="516" y="121"/>
      <point x="516" y="223" type="curve" smooth="yes"/>
      <point x="516" y="320"/>
      <point x="441" y="410"/>
      <point x="333" y="410" type="curve" smooth="yes"/>
      <point x="227" y="410"/>
      <point x="146" y="322"/>
    </contour>
    <contour>
      <point x="860" y="145" type="curve" smooth="yes"/>
      <point x="914" y="73"/>
      <point x="960" y="46"/>
      <point x="1015" y="46" type="curve" smooth="yes"/>
      <point x="1093" y="46"/>
      <point x="1131" y="97"/>
      <point x="1131" y="169" type="curve" smooth="yes"/>
      <point x="1131" y="245"/>
      <point x="1087" y="335"/>
      <point x="1031" y="397" type="curve" smooth="yes"/>
      <point x="1023" y="406"/>
      <point x="1023" y="421"/>
      <point x="1033" y="429" type="curve" smooth="yes"/>
      <point x="1042" y="437"/>
      <point x="1057" y="437"/>
      <point x="1065" y="427" type="curve" smooth="yes"/>
      <point x="1129" y="357"/>
      <point x="1177" y="255"/>
      <point x="1177" y="169" type="curve" smooth="yes"/>
      <point x="1177" y="69"/>
      <point x="1121" y="0"/>
      <point x="1015" y="0" type="curve" smooth="yes"/>
      <point x="948" y="0"/>
      <point x="890" y="29"/>
      <point x="824" y="117" type="curve" smooth="yes"/>
      <point x="816" y="127"/>
      <point x="818" y="142"/>
      <point x="828" y="149" type="curve" smooth="yes"/>
      <point x="838" y="157"/>
      <point x="853" y="155"/>
    </contour>
    <contour>
      <point x="550" y="145" type="curve" smooth="yes"/>
      <point x="604" y="73"/>
      <point x="650" y="46"/>
      <point x="705" y="46" type="curve" smooth="yes"/>
      <point x="783" y="46"/>
      <point x="821" y="97"/>
      <point x="821" y="169" type="curve" smooth="yes"/>
      <point x="821" y="245"/>
      <point x="777" y="335"/>
      <point x="721" y="397" type="curve" smooth="yes"/>
      <point x="713" y="406"/>
      <point x="713" y="421"/>
      <point x="723" y="429" type="curve" smooth="yes"/>
      <point x="732" y="437"/>
      <point x="747" y="437"/>
      <point x="755" y="427" type="curve" smooth="yes"/>
      <point x="819" y="357"/>
      <point x="867" y="255"/>
      <point x="867" y="169" type="curve" smooth="yes"/>
      <point x="867" y="69"/>
      <point x="811" y="0"/>
      <point x="705" y="0" type="curve" smooth="yes"/>
      <point x="638" y="0"/>
      <point x="580" y="29"/>
      <point x="514" y="117" type="curve" smooth="yes"/>
      <point x="506" y="127"/>
      <point x="508" y="142"/>
      <point x="518" y="149" type="curve" smooth="yes"/>
      <point x="528" y="157"/>
      <point x="543" y="155"/>
    </contour>
    <component base="knRa" xOffset="73" yOffset="-132"/>
    <component base="knRa" xOffset="73" yOffset="-132"/>
  </outline>
</glyph>
<glyph name="knDDA" format="1">
  <advance width="770"/>
  <unicode hex="0CA1"/>
  <outline>
    <contour>
      <point x="108" y="456" type="curve" smooth="yes"/>
      <point x="528" y="456" type="line" smooth="yes"/>
      <point x="591" y="456"/>
      <point x="629" y="478"/>
      <point x="656" y="523" type="curve" smooth="yes"/>
      <point x="663" y="534"/>
      <point x="677" y="537"/>
      <point x="688" y="531" type="curve" smooth="yes"/>
      <point x="699" y="524"/>
      <point x="702" y="510"/>
      <point x="696" y="499" type="curve" smooth="yes"/>
      <point x="659" y="440"/>
      <point x="611" y="410"/>
      <point x="528" y="410" type="curve" smooth="yes"/>
      <point x="108" y="410" type="line" smooth="yes"/>
      <point x="96" y="410"/>
      <point x="85" y="421"/>
      <point x="85" y="433" type="curve" smooth="yes"/>
      <point x="85" y="445"/>
      <point x="96" y="456"/>
    </contour>
    <contour>
      <point x="308" y="412" type="curve" smooth="yes"/>
      <point x="194" y="361"/>
      <point x="129" y="258"/>
      <point x="129" y="164" type="curve" smooth="yes"/>
      <point x="129" y="90"/>
      <point x="176" y="46"/>
      <point x="233" y="46" type="curve" smooth="yes"/>
      <point x="289" y="46"/>
      <point x="323" y="77"/>
      <point x="354" y="135" type="curve" smooth="yes"/>
      <point x="357" y="142"/>
      <point x="366" y="147"/>
      <point x="374" y="147" type="curve" smooth="yes"/>
      <point x="379" y="147" type="line" smooth="yes"/>
      <point x="387" y="147"/>
      <point x="396" y="142"/>
      <point x="399" y="135" type="curve" smooth="yes"/>
      <point x="432" y="74"/>
      <point x="484" y="46"/>
      <point x="533" y="46" type="curve" smooth="yes"/>
      <point x="610" y="46"/>
      <point x="655" y="95"/>
      <point x="655" y="168" type="curve" smooth="yes"/>
      <point x="655" y="233"/>
      <point x="604" y="331"/>
      <point x="466" y="413" type="curve" smooth="yes"/>
      <point x="456" y="420"/>
      <point x="452" y="434"/>
      <point x="458" y="445" type="curve" smooth="yes"/>
      <point x="465" y="455"/>
      <point x="479" y="459"/>
      <point x="490" y="453" type="curve" smooth="yes"/>
      <point x="650" y="357"/>
      <point x="701" y="241"/>
      <point x="701" y="168" type="curve" smooth="yes"/>
      <point x="701" y="67"/>
      <point x="638" y="0"/>
      <point x="533" y="0" type="curve" smooth="yes"/>
      <point x="470" y="0"/>
      <point x="402" y="34"/>
      <point x="359" y="113" type="curve"/>
      <point x="379" y="101" type="line"/>
      <point x="374" y="101" type="line"/>
      <point x="394" y="113" type="line"/>
      <point x="353" y="35"/>
      <point x="307" y="0"/>
      <point x="233" y="0" type="curve" smooth="yes"/>
      <point x="154" y="0"/>
      <point x="83" y="58"/>
      <point x="83" y="164" type="curve" smooth="yes"/>
      <point x="83" y="274"/>
      <point x="156" y="395"/>
      <point x="290" y="454" type="curve" smooth="yes"/>
      <point x="301" y="459"/>
      <point x="315" y="454"/>
      <point x="320" y="442" type="curve" smooth="yes"/>
      <point x="325" y="431"/>
      <point x="320" y="417"/>
    </contour>
    <contour>
      <point x="571" y="329" type="curve" smooth="yes"/>
      <point x="519" y="329"/>
      <point x="484" y="291"/>
      <point x="484" y="257" type="curve" smooth="yes"/>
      <point x="484" y="226"/>
      <point x="511" y="200"/>
      <point x="547" y="200" type="curve" smooth="yes"/>
      <point x="586" y="200"/>
      <point x="615" y="222"/>
      <point x="633" y="261" type="curve" smooth="yes"/>
      <point x="638" y="272"/>
      <point x="652" y="277"/>
      <point x="664" y="272" type="curve" smooth="yes"/>
      <point x="675" y="267"/>
      <point x="680" y="253"/>
      <point x="675" y="241" type="curve" smooth="yes"/>
      <point x="649" y="184"/>
      <point x="604" y="154"/>
      <point x="547" y="154" type="curve" smooth="yes"/>
      <point x="483" y="154"/>
      <point x="438" y="203"/>
      <point x="438" y="257" type="curve" smooth="yes"/>
      <point x="438" y="309"/>
      <point x="485" y="375"/>
      <point x="571" y="375" type="curve" smooth="yes"/>
      <point x="583" y="375"/>
      <point x="594" y="364"/>
      <point x="594" y="352" type="curve" smooth="yes"/>
      <point x="594" y="340"/>
      <point x="583" y="329"/>
    </contour>
  </outline>
</glyph>
<glyph name="knNNA" format="1">
  <advance width="779"/>
  <unicode hex="0CA3"/>
  <outline>
    <contour>
      <point x="232" y="202" type="curve" smooth="yes"/>
      <point x="182" y="204"/>
      <point x="125" y="176"/>
      <point x="125" y="124" type="curve" smooth="yes"/>
      <point x="125" y="73"/>
      <point x="168" y="47"/>
      <point x="230" y="47" type="curve" smooth="yes"/>
      <point x="256" y="47"/>
      <point x="277" y="51"/>
      <point x="294" y="55" type="curve" smooth="yes"/>
      <point x="306" y="58"/>
      <point x="319" y="51"/>
      <point x="322" y="39" type="curve" smooth="yes"/>
      <point x="325" y="27"/>
      <point x="318" y="14"/>
      <point x="306" y="11" type="curve" smooth="yes"/>
      <point x="287" y="5"/>
      <point x="262" y="1"/>
      <point x="230" y="1" type="curve" smooth="yes"/>
      <point x="132" y="1"/>
      <point x="79" y="51"/>
      <point x="79" y="124" type="curve" smooth="yes"/>
      <point x="79" y="198"/>
      <point x="154" y="250"/>
      <point x="234" y="248" type="curve" smooth="yes"/>
      <point x="246" y="248"/>
      <point x="256" y="237"/>
      <point x="256" y="224" type="curve" smooth="yes"/>
      <point x="256" y="212"/>
      <point x="245" y="202"/>
    </contour>
    <contour>
      <point x="655" y="127" type="curve" smooth="yes"/>
      <point x="630" y="154"/>
      <point x="602" y="176"/>
      <point x="557" y="176" type="curve" smooth="yes"/>
      <point x="510" y="176"/>
      <point x="481" y="143"/>
      <point x="481" y="107" type="curve" smooth="yes"/>
      <point x="481" y="68"/>
      <point x="513" y="41"/>
      <point x="552" y="41" type="curve" smooth="yes"/>
      <point x="623" y="41"/>
      <point x="662" y="94"/>
      <point x="662" y="226" type="curve" smooth="yes"/>
      <point x="662" y="352"/>
      <point x="617" y="418"/>
      <point x="544" y="418" type="curve" smooth="yes"/>
      <point x="488" y="418"/>
      <point x="444" y="378"/>
      <point x="412" y="319" type="curve" smooth="yes"/>
      <point x="409" y="312"/>
      <point x="400" y="307"/>
      <point x="392" y="307" type="curve" smooth="yes"/>
      <point x="388" y="307" type="line" smooth="yes"/>
      <point x="380" y="307"/>
      <point x="371" y="313"/>
      <point x="367" y="320" type="curve" smooth="yes"/>
      <point x="339" y="379"/>
      <point x="295" y="418"/>
      <point x="230" y="418" type="curve" smooth="yes"/>
      <point x="172" y="418"/>
      <point x="137" y="380"/>
      <point x="137" y="336" type="curve" smooth="yes"/>
      <point x="137" y="287"/>
      <point x="182" y="248"/>
      <point x="246" y="248" type="curve" smooth="yes"/>
      <point x="250" y="248"/>
      <point x="252" y="248"/>
      <point x="256" y="248" type="curve" smooth="yes"/>
      <point x="268" y="248"/>
      <point x="279" y="237"/>
      <point x="279" y="225" type="curve" smooth="yes"/>
      <point x="279" y="213"/>
      <point x="268" y="202"/>
      <point x="256" y="202" type="curve" smooth="yes"/>
      <point x="252" y="202"/>
      <point x="250" y="202"/>
      <point x="246" y="202" type="curve" smooth="yes"/>
      <point x="148" y="202"/>
      <point x="91" y="267"/>
      <point x="91" y="336" type="curve" smooth="yes"/>
      <point x="91" y="402"/>
      <point x="140" y="464"/>
      <point x="230" y="464" type="curve" smooth="yes"/>
      <point x="313" y="464"/>
      <point x="371" y="417"/>
      <point x="409" y="340" type="curve"/>
      <point x="388" y="353" type="line"/>
      <point x="392" y="353" type="line"/>
      <point x="372" y="341" type="line"/>
      <point x="412" y="418"/>
      <point x="472" y="464"/>
      <point x="544" y="464" type="curve" smooth="yes"/>
      <point x="635" y="464"/>
      <point x="708" y="400"/>
      <point x="708" y="226" type="curve" smooth="yes"/>
      <point x="708" y="40"/>
      <point x="641" y="-5"/>
      <point x="552" y="-5" type="curve" smooth="yes"/>
      <point x="487" y="-5"/>
      <point x="435" y="42"/>
      <point x="435" y="107" type="curve" smooth="yes"/>
      <point x="435" y="165"/>
      <point x="478" y="222"/>
      <point x="557" y="222" type="curve" smooth="yes"/>
      <point x="616" y="222"/>
      <point x="656" y="194"/>
      <point x="689" y="159" type="curve" smooth="yes"/>
      <point x="697" y="150"/>
      <point x="697" y="135"/>
      <point x="688" y="126" type="curve" smooth="yes"/>
      <point x="679" y="118"/>
      <point x="664" y="118"/>
    </contour>
  </outline>
</glyph>
<glyph name="knNA" format="1">
  <advance width="668"/>
  <unicode hex="0CA8"/>
  <outline>
    <contour>
      <point x="106" y="456" type="curve" smooth="yes"/>
      <point x="430" y="456" type="line" smooth="yes"/>
      <point x="493" y="456"/>
      <point x="531" y="478"/>
      <point x="558" y="523" type="curve" smooth="yes"/>
      <point x="565" y="534"/>
      <point x="579" y="537"/>
      <point x="590" y="531" type="curve" smooth="yes"/>
      <point x="601" y="524"/>
      <point x="604" y="510"/>
      <point x="598" y="499" type="curve" smooth="yes"/>
      <point x="561" y="440"/>
      <point x="513" y="410"/>
      <point x="430" y="410" type="curve" smooth="yes"/>
      <point x="106" y="410" type="line" smooth="yes"/>
      <point x="94" y="410"/>
      <point x="83" y="421"/>
      <point x="83" y="433" type="curve" smooth="yes"/>
      <point x="83" y="445"/>
      <point x="94" y="456"/>
    </contour>
    <contour>
      <point x="92" y="13" type="curve" smooth="yes"/>
      <point x="92" y="99"/>
      <point x="109" y="164"/>
      <point x="140" y="194" type="curve" smooth="yes"/>
      <point x="159" y="213"/>
      <point x="185" y="228"/>
      <point x="220" y="228" type="curve" smooth="yes"/>
      <point x="265" y="228"/>
      <point x="314" y="205"/>
      <point x="358" y="134" type="curve" smooth="yes"/>
      <point x="389" y="83"/>
      <point x="412" y="46"/>
      <point x="463" y="46" type="curve" smooth="yes"/>
      <point x="507" y="46"/>
      <point x="551" y="87"/>
      <point x="551" y="168" type="curve" smooth="yes"/>
      <point x="551" y="261"/>
      <point x="473" y="352"/>
      <point x="374" y="413" type="curve" smooth="yes"/>
      <point x="363" y="420"/>
      <point x="360" y="435"/>
      <point x="366" y="445" type="curve" smooth="yes"/>
      <point x="373" y="456"/>
      <point x="388" y="459"/>
      <point x="398" y="453" type="curve" smooth="yes"/>
      <point x="513" y="382"/>
      <point x="597" y="273"/>
      <point x="597" y="168" type="curve" smooth="yes"/>
      <point x="597" y="45"/>
      <point x="523" y="0"/>
      <point x="463" y="0" type="curve" smooth="yes"/>
      <point x="396" y="0"/>
      <point x="361" y="39"/>
      <point x="318" y="110" type="curve" smooth="yes"/>
      <point x="288" y="161"/>
      <point x="253" y="182"/>
      <point x="220" y="182" type="curve" smooth="yes"/>
      <point x="199" y="182"/>
      <point x="183" y="173"/>
      <point x="172" y="162" type="curve" smooth="yes"/>
      <point x="147" y="136"/>
      <point x="138" y="81"/>
      <point x="138" y="13" type="curve" smooth="yes"/>
      <point x="138" y="1"/>
      <point x="127" y="-10"/>
      <point x="115" y="-10" type="curve" smooth="yes"/>
      <point x="103" y="-10"/>
      <point x="92" y="1"/>
    </contour>
  </outline>
</glyph>
<glyph name="knBA" format="1">
  <advance width="753"/>
  <unicode hex="0CAC"/>
  <outline>
    <contour>
      <point x="75" y="417" type="curve" smooth="yes"/>
      <point x="105" y="451"/>
      <point x="140" y="471"/>
      <point x="183" y="471" type="curve" smooth="yes"/>
      <point x="251" y="471"/>
      <point x="291" y="426"/>
      <point x="291" y="371" type="curve" smooth="yes"/>
      <point x="291" y="327"/>
      <point x="269" y="288"/>
      <point x="203" y="235" type="curve" smooth="yes"/>
      <point x="162" y="202"/>
      <point x="133" y="167"/>
      <point x="133" y="125" type="curve" smooth="yes"/>
      <point x="133" y="81"/>
      <point x="165" y="46"/>
      <point x="222" y="46" type="curve" smooth="yes"/>
      <point x="281" y="46"/>
      <point x="323" y="77"/>
      <point x="359" y="136" type="curve" smooth="yes"/>
      <point x="363" y="142"/>
      <point x="372" y="147"/>
      <point x="379" y="147" type="curve" smooth="yes"/>
      <point x="384" y="147" type="line" smooth="yes"/>
      <point x="391" y="147"/>
      <point x="400" y="142"/>
      <point x="404" y="135" type="curve" smooth="yes"/>
      <point x="438" y="76"/>
      <point x="478" y="46"/>
      <point x="536" y="46" type="curve" smooth="yes"/>
      <point x="594" y="46"/>
      <point x="637" y="94"/>
      <point x="637" y="175" type="curve" smooth="yes"/>
      <point x="637" y="268"/>
      <point x="589" y="355"/>
      <point x="510" y="415" type="curve" smooth="yes"/>
      <point x="500" y="422"/>
      <point x="498" y="437"/>
      <point x="506" y="447" type="curve" smooth="yes"/>
      <point x="513" y="457"/>
      <point x="528" y="459"/>
      <point x="538" y="451" type="curve" smooth="yes"/>
      <point x="629" y="383"/>
      <point x="683" y="282"/>
      <point x="683" y="175" type="curve" smooth="yes"/>
      <point x="683" y="58"/>
      <point x="614" y="0"/>
      <point x="536" y="0" type="curve" smooth="yes"/>
      <point x="462" y="0"/>
      <point x="408" y="36"/>
      <point x="364" y="113" type="curve"/>
      <point x="384" y="101" type="line"/>
      <point x="379" y="101" type="line"/>
      <point x="399" y="112" type="line"/>
      <point x="351" y="35"/>
      <point x="297" y="0"/>
      <point x="222" y="0" type="curve" smooth="yes"/>
      <point x="133" y="0"/>
      <point x="87" y="59"/>
      <point x="87" y="125" type="curve" smooth="yes"/>
      <point x="87" y="179"/>
      <point x="120" y="226"/>
      <point x="175" y="271" type="curve" smooth="yes"/>
      <point x="223" y="310"/>
      <point x="245" y="337"/>
      <point x="245" y="371" type="curve" smooth="yes"/>
      <point x="245" y="402"/>
      <point x="219" y="425"/>
      <point x="183" y="425" type="curve" smooth="yes"/>
      <point x="154" y="425"/>
      <point x="129" y="409"/>
      <point x="109" y="387" type="curve" smooth="yes"/>
      <point x="101" y="377"/>
      <point x="86" y="377"/>
      <point x="77" y="385" type="curve" smooth="yes"/>
      <point x="67" y="393"/>
      <point x="67" y="408"/>
    </contour>
  </outline>
</glyph>
<glyph name="knYA" format="1">
  <advance width="1220"/>
  <unicode hex="0CAF"/>
  <outline>
    <contour>
      <point x="67" y="223" type="curve" smooth="yes"/>
      <point x="67" y="339"/>
      <point x="170" y="456"/>
      <point x="301" y="456" type="curve" smooth="yes"/>
      <point x="434" y="456"/>
      <point x="535" y="337"/>
      <point x="535" y="223" type="curve" smooth="yes"/>
      <point x="535" y="95"/>
      <point x="445" y="-4"/>
      <point x="301" y="-4" type="curve" smooth="yes"/>
      <point x="155" y="-4"/>
      <point x="67" y="93"/>
    </contour>
    <contour>
      <point x="113" y="223" type="curve" smooth="yes"/>
      <point x="113" y="119"/>
      <point x="185" y="42"/>
      <point x="301" y="42" type="curve" smooth="yes"/>
      <point x="415" y="42"/>
      <point x="489" y="121"/>
      <point x="489" y="223" type="curve" smooth="yes"/>
      <point x="489" y="315"/>
      <point x="408" y="410"/>
      <point x="301" y="410" type="curve" smooth="yes"/>
      <point x="196" y="410"/>
      <point x="113" y="317"/>
    </contour>
    <contour>
      <point x="589" y="456" type="curve" smooth="yes"/>
      <point x="701" y="456" type="line" smooth="yes"/>
      <point x="764" y="456"/>
      <point x="802" y="478"/>
      <point x="829" y="523" type="curve" smooth="yes"/>
      <point x="836" y="534"/>
      <point x="850" y="537"/>
      <point x="861" y="531" type="curve" smooth="yes"/>
      <point x="872" y="524"/>
      <point x="875" y="510"/>
      <point x="869" y="499" type="curve" smooth="yes"/>
      <point x="832" y="440"/>
      <point x="784" y="410"/>
      <point x="701" y="410" type="curve" smooth="yes"/>
      <point x="589" y="410" type="line" smooth="yes"/>
      <point x="577" y="410"/>
      <point x="566" y="421"/>
      <point x="566" y="433" type="curve" smooth="yes"/>
      <point x="566" y="445"/>
      <point x="577" y="456"/>
    </contour>
    <contour>
      <point x="518" y="154" type="curve" smooth="yes"/>
      <point x="571" y="80"/>
      <point x="625" y="46"/>
      <point x="680" y="46" type="curve" smooth="yes"/>
      <point x="758" y="46"/>
      <point x="796" y="97"/>
      <point x="796" y="169" type="curve" smooth="yes"/>
      <point x="796" y="245"/>
      <point x="757" y="333"/>
      <point x="683" y="415" type="curve" smooth="yes"/>
      <point x="675" y="424"/>
      <point x="675" y="439"/>
      <point x="685" y="447" type="curve" smooth="yes"/>
      <point x="694" y="455"/>
      <point x="709" y="455"/>
      <point x="717" y="445" type="curve" smooth="yes"/>
      <point x="801" y="353"/>
      <point x="842" y="255"/>
      <point x="842" y="169" type="curve" smooth="yes"/>
      <point x="842" y="69"/>
      <point x="786" y="0"/>
      <point x="680" y="0" type="curve" smooth="yes"/>
      <point x="613" y="0"/>
      <point x="545" y="36"/>
      <point x="480" y="128" type="curve" smooth="yes"/>
      <point x="473" y="138"/>
      <point x="476" y="153"/>
      <point x="486" y="160" type="curve" smooth="yes"/>
      <point x="496" y="167"/>
      <point x="511" y="164"/>
    </contour>
    <contour>
      <point x="836" y="145" type="curve" smooth="yes"/>
      <point x="890" y="73"/>
      <point x="936" y="46"/>
      <point x="991" y="46" type="curve" smooth="yes"/>
      <point x="1069" y="46"/>
      <point x="1107" y="97"/>
      <point x="1107" y="169" type="curve" smooth="yes"/>
      <point x="1107" y="245"/>
      <point x="1063" y="335"/>
      <point x="1007" y="397" type="curve" smooth="yes"/>
      <point x="999" y="406"/>
      <point x="999" y="421"/>
      <point x="1009" y="429" type="curve" smooth="yes"/>
      <point x="1018" y="437"/>
      <point x="1033" y="437"/>
      <point x="1041" y="427" type="curve" smooth="yes"/>
      <point x="1105" y="357"/>
      <point x="1153" y="255"/>
      <point x="1153" y="169" type="curve" smooth="yes"/>
      <point x="1153" y="69"/>
      <point x="1097" y="0"/>
      <point x="991" y="0" type="curve" smooth="yes"/>
      <point x="924" y="0"/>
      <point x="866" y="29"/>
      <point x="800" y="117" type="curve" smooth="yes"/>
      <point x="792" y="127"/>
      <point x="794" y="142"/>
      <point x="804" y="149" type="curve" smooth="yes"/>
      <point x="814" y="157"/>
      <point x="829" y="155"/>
    </contour>
  </outline>
</glyph>
<glyph name="knRA" format="1">
  <advance width="663"/>
  <unicode hex="0CB0"/>
  <outline>
    <contour>
      <point x="100" y="223" type="curve" smooth="yes"/>
      <point x="100" y="346"/>
      <point x="204" y="456"/>
      <point x="339" y="456" type="curve" smooth="yes"/>
      <point x="478" y="456"/>
      <point x="572" y="344"/>
      <point x="572" y="223" type="curve" smooth="yes"/>
      <point x="572" y="96"/>
      <point x="483" y="-4"/>
      <point x="337" y="-4" type="curve" smooth="yes"/>
      <point x="193" y="-4"/>
      <point x="100" y="93"/>
    </contour>
    <contour>
      <point x="94" y="456" type="curve" smooth="yes"/>
      <point x="462" y="456" type="line" smooth="yes"/>
      <point x="525" y="456"/>
      <point x="563" y="478"/>
      <point x="590" y="523" type="curve" smooth="yes"/>
      <point x="597" y="534"/>
      <point x="611" y="537"/>
      <point x="622" y="531" type="curve" smooth="yes"/>
      <point x="633" y="524"/>
      <point x="636" y="510"/>
      <point x="630" y="499" type="curve" smooth="yes"/>
      <point x="593" y="440"/>
      <point x="545" y="410"/>
      <point x="462" y="410" type="curve" smooth="yes"/>
      <point x="94" y="410" type="line" smooth="yes"/>
      <point x="82" y="410"/>
      <point x="71" y="421"/>
      <point x="71" y="433" type="curve" smooth="yes"/>
      <point x="71" y="445"/>
      <point x="82" y="456"/>
    </contour>
    <contour>
      <point x="146" y="223" type="curve" smooth="yes"/>
      <point x="146" y="119"/>
      <point x="223" y="42"/>
      <point x="337" y="42" type="curve" smooth="yes"/>
      <point x="453" y="42"/>
      <point x="526" y="120"/>
      <point x="526" y="223" type="curve" smooth="yes"/>
      <point x="526" y="320"/>
      <point x="450" y="410"/>
      <point x="339" y="410" type="curve" smooth="yes"/>
      <point x="230" y="410"/>
      <point x="146" y="322"/>
    </contour>
  </outline>
</glyph>
<glyph name="knsignU" format="1">
  <advance width="316"/>
  <unicode hex="0CC1"/>
  <outline>
    <contour>
      <point x="-57" y="138" type="curve" smooth="yes"/>
      <point x="-13" y="72"/>
      <point x="33" y="46"/>
      <point x="87" y="46" type="curve" smooth="yes"/>
      <point x="165" y="46"/>
      <point x="203" y="97"/>
      <point x="203" y="169" type="curve" smooth="yes"/>
      <point x="203" y="245"/>
      <point x="159" y="335"/>
      <point x="103" y="397" type="curve" smooth="yes"/>
      <point x="95" y="406"/>
      <point x="95" y="421"/>
      <point x="105" y="429" type="curve" smooth="yes"/>
      <point x="114" y="437"/>
      <point x="129" y="437"/>
      <point x="137" y="427" type="curve" smooth="yes"/>
      <point x="201" y="357"/>
      <point x="249" y="255"/>
      <point x="249" y="169" type="curve" smooth="yes"/>
      <point x="249" y="69"/>
      <point x="193" y="0"/>
      <point x="87" y="0" type="curve" smooth="yes"/>
      <point x="19" y="0"/>
      <point x="-39" y="28"/>
      <point x="-95" y="112" type="curve" smooth="yes"/>
      <point x="-102" y="123"/>
      <point x="-99" y="137"/>
      <point x="-89" y="144" type="curve" smooth="yes"/>
      <point x="-78" y="151"/>
      <point x="-64" y="148"/>
    </contour>
  </outline>
</glyph>
<glyph name="knsignUU" format="1">
  <advance width="607"/>
  <unicode hex="0CC2"/>
  <outline>
    <contour>
      <point x="-57" y="138" type="curve" smooth="yes"/>
      <point x="-19" y="80"/>
      <point x="25" y="46"/>
      <point x="73" y="46" type="curve" smooth="yes"/>
      <point x="126" y="46"/>
      <point x="151" y="78"/>
      <point x="151" y="125" type="curve" smooth="yes"/>
      <point x="151" y="178"/>
      <point x="126" y="228"/>
      <point x="126" y="288" type="curve" smooth="yes"/>
      <point x="126" y="366"/>
      <point x="182" y="456"/>
      <point x="291" y="456" type="curve" smooth="yes"/>
      <point x="401" y="456"/>
      <point x="540" y="354"/>
      <point x="540" y="167" type="curve" smooth="yes"/>
      <point x="540" y="55"/>
      <point x="480" y="-4"/>
      <point x="407" y="-4" type="curve" smooth="yes"/>
      <point x="336" y="-4"/>
      <point x="295" y="48"/>
      <point x="295" y="106" type="curve" smooth="yes"/>
      <point x="295" y="171"/>
      <point x="337" y="229"/>
      <point x="428" y="229" type="curve" smooth="yes"/>
      <point x="459" y="229"/>
      <point x="492" y="222"/>
      <point x="519" y="213" type="curve" smooth="yes"/>
      <point x="531" y="209"/>
      <point x="538" y="196"/>
      <point x="534" y="184" type="curve" smooth="yes"/>
      <point x="530" y="172"/>
      <point x="517" y="165"/>
      <point x="505" y="169" type="curve" smooth="yes"/>
      <point x="482" y="176"/>
      <point x="455" y="183"/>
      <point x="428" y="183" type="curve" smooth="yes"/>
      <point x="371" y="183"/>
      <point x="341" y="149"/>
      <point x="341" y="106" type="curve" smooth="yes"/>
      <point x="341" y="72"/>
      <point x="366" y="42"/>
      <point x="407" y="42" type="curve" smooth="yes"/>
      <point x="460" y="42"/>
      <point x="494" y="93"/>
      <point x="494" y="167" type="curve" smooth="yes"/>
      <point x="494" y="320"/>
      <point x="383" y="410"/>
      <point x="291" y="410" type="curve" smooth="yes"/>
      <point x="212" y="410"/>
      <point x="172" y="344"/>
      <point x="172" y="288" type="curve" smooth="yes"/>
      <point x="172" y="228"/>
      <point x="197" y="178"/>
      <point x="197" y="125" type="curve" smooth="yes"/>
      <point x="197" y="50"/>
      <point x="156" y="0"/>
      <point x="73" y="0" type="curve" smooth="yes"/>
      <point x="13" y="0"/>
      <point x="-45" y="38"/>
      <point x="-95" y="112" type="curve" smooth="yes"/>
      <point x="-102" y="123"/>
      <point x="-99" y="137"/>
      <point x="-89" y="144" type="curve" smooth="yes"/>
      <point x="-78" y="151"/>
      <point x="-64" y="148"/>
    </contour>
  </outline>
</glyph>
<glyph name="knsignvR" format="1">
  <advance width="135"/>
  <unicode hex="0CC3"/>
  <outline>
    <contour>
      <point x="-203" y="-206" type="curve" smooth="yes"/>
      <point x="-187" y="-216"/>
      <point x="-167" y="-223"/>
      <point x="-145" y="-223" type="curve" smooth="yes"/>
      <point x="-122" y="-223"/>
      <point x="-100" y="-213"/>
      <point x="-100" y="-186" type="curve" smooth="yes"/>
      <point x="-100" y="-167"/>
      <point x="-115" y="-152"/>
      <point x="-141" y="-152" type="curve" smooth="yes"/>
      <point x="-177" y="-152"/>
      <point x="-198" y="-184"/>
      <point x="-198" y="-223" type="curve" smooth="yes"/>
      <point x="-198" y="-251"/>
      <point x="-186" y="-276"/>
      <point x="-167" y="-295" type="curve" smooth="yes"/>
      <point x="-146" y="-316"/>
      <point x="-110" y="-330"/>
      <point x="-59" y="-330" type="curve" smooth="yes"/>
      <point x="-14" y="-330"/>
      <point x="22" y="-317"/>
      <point x="45" y="-294" type="curve" smooth="yes"/>
      <point x="66" y="-273"/>
      <point x="80" y="-241"/>
      <point x="80" y="-194" type="curve" smooth="yes"/>
      <point x="80" y="-139"/>
      <point x="67" y="-55"/>
      <point x="35" y="37" type="curve" smooth="yes"/>
      <point x="31" y="48"/>
      <point x="37" y="60"/>
      <point x="48" y="64" type="curve" smooth="yes"/>
      <point x="59" y="68"/>
      <point x="71" y="62"/>
      <point x="75" y="51" type="curve" smooth="yes"/>
      <point x="109" y="-47"/>
      <point x="122" y="-135"/>
      <point x="122" y="-194" type="curve" smooth="yes"/>
      <point x="122" y="-255"/>
      <point x="102" y="-297"/>
      <point x="75" y="-324" type="curve" smooth="yes"/>
      <point x="46" y="-353"/>
      <point x="0" y="-372"/>
      <point x="-59" y="-372" type="curve" smooth="yes"/>
      <point x="-124" y="-372"/>
      <point x="-170" y="-352"/>
      <point x="-197" y="-325" type="curve" smooth="yes"/>
      <point x="-224" y="-298"/>
      <point x="-240" y="-263"/>
      <point x="-240" y="-223" type="curve" smooth="yes"/>
      <point x="-240" y="-156"/>
      <point x="-198" y="-110"/>
      <point x="-141" y="-110" type="curve" smooth="yes"/>
      <point x="-83" y="-110"/>
      <point x="-58" y="-149"/>
      <point x="-58" y="-186" type="curve" smooth="yes"/>
      <point x="-58" y="-237"/>
      <point x="-96" y="-265"/>
      <point x="-145" y="-265" type="curve" smooth="yes"/>
      <point x="-175" y="-265"/>
      <point x="-203" y="-256"/>
      <point x="-225" y="-242" type="curve" smooth="yes"/>
      <point x="-235" y="-236"/>
      <point x="-238" y="-222"/>
      <point x="-232" y="-213" type="curve" smooth="yes"/>
      <point x="-226" y="-203"/>
      <point x="-212" y="-200"/>
    </contour>
  </outline>
</glyph>
<glyph name="knvRR" format="1">
  <advance width="1372"/>
  <unicode hex="0CE0"/>
  <outline>
    <contour>
      <point x="489" y="456" type="curve" smooth="yes"/>
      <point x="571" y="456" type="line" smooth="yes"/>
      <point x="634" y="456"/>
      <point x="672" y="478"/>
      <point x="699" y="523" type="curve" smooth="yes"/>
      <point x="706" y="534"/>
      <point x="720" y="537"/>
      <point x="731" y="531" type="curve" smooth="yes"/>
      <point x="742" y="524"/>
      <point x="745" y="510"/>
      <point x="739" y="499" type="curve" smooth="yes"/>
      <point x="702" y="440"/>
      <point x="654" y="410"/>
      <point x="571" y="410" type="curve" smooth="yes"/>
      <point x="489" y="410" type="line" smooth="yes"/>
      <point x="477" y="410"/>
      <point x="466" y="421"/>
      <point x="466" y="433" type="curve" smooth="yes"/>
      <point x="466" y="445"/>
      <point x="477" y="456"/>
    </contour>
    <component base="knKHA"/>
    <component base="knsignUU" xOffset="765"/>
    <component base="knKHA"/>
    <component base="knsignUU" xOffset="765"/>
  </outline>
</glyph>
<glyph name="knsignvLL" format="1">
  <advance width="0"/>
  <unicode hex="0CE3"/>
  <outline>
    <contour>
      <point x="186" y="-99" type="curve" smooth="yes"/>
      <point x="267" y="-99" type="line" smooth="yes"/>
      <point x="383" y="-99"/>
      <point x="463" y="-163"/>
      <point x="463" y="-272" type="curve" smooth="yes"/>
      <point x="463" y="-340"/>
      <point x="421" y="-377"/>
      <point x="366" y="-377" type="curve" smooth="yes"/>
      <point x="303" y="-377"/>
      <point x="280" y="-337"/>
      <point x="280" y="-303" type="curve" smooth="yes"/>
      <point x="279" y="-265"/>
      <point x="306" y="-221"/>
      <point x="375" y="-221" type="curve" smooth="yes"/>
      <point x="397" y="-221"/>
      <point x="425" y="-223"/>
      <point x="445" y="-229" type="curve" smooth="yes"/>
      <point x="456" y="-232"/>
      <point x="462" y="-244"/>
      <point x="459" y="-255" type="curve" smooth="yes"/>
      <point x="456" y="-266"/>
      <point x="444" y="-272"/>
      <point x="433" y="-269" type="curve" smooth="yes"/>
      <point x="417" y="-265"/>
      <point x="393" y="-263"/>
      <point x="375" y="-263" type="curve" smooth="yes"/>
      <point x="342" y="-263"/>
      <point x="321" y="-281"/>
      <point x="322" y="-303" type="curve" smooth="yes"/>
      <point x="322" y="-321"/>
      <point x="339" y="-335"/>
      <point x="366" y="-335" type="curve" smooth="yes"/>
      <point x="399" y="-335"/>
      <point x="421" y="-310"/>
      <point x="421" y="-272" type="curve" smooth="yes"/>
      <point x="421" y="-187"/>
      <point x="355" y="-141"/>
      <point x="267" y="-141" type="curve" smooth="yes"/>
      <point x="186" y="-141" type="line" smooth="yes"/>
      <point x="175" y="-141"/>
      <point x="165" y="-131"/>
      <point x="165" y="-120" type="curve" smooth="yes"/>
      <point x="165" y="-109"/>
      <point x="175" y="-99"/>
    </contour>
    <component base="knsignvL"/>
    <component base="knsignvL"/>
  </outline>
</glyph>
<glyph name="knOne" format="1">
  <advance width="573"/>
  <unicode hex="0CE7"/>
  <outline>
    <contour>
      <point x="393" y="40" type="curve" smooth="yes"/>
      <point x="432" y="92"/>
      <point x="460" y="156"/>
      <point x="460" y="233" type="curve" smooth="yes"/>
      <point x="460" y="344"/>
      <point x="385" y="425"/>
      <point x="288" y="425" type="curve" smooth="yes"/>
      <point x="183" y="425"/>
      <point x="113" y="344"/>
      <point x="113" y="232" type="curve" smooth="yes"/>
      <point x="113" y="155"/>
      <point x="147" y="92"/>
      <point x="187" y="39" type="curve" smooth="yes"/>
      <point x="195" y="29"/>
      <point x="193" y="14"/>
      <point x="183" y="7" type="curve" smooth="yes"/>
      <point x="173" y="-1"/>
      <point x="158" y="1"/>
      <point x="151" y="11" type="curve" smooth="yes"/>
      <point x="105" y="72"/>
      <point x="67" y="145"/>
      <point x="67" y="232" type="curve" smooth="yes"/>
      <point x="67" y="374"/>
      <point x="157" y="471"/>
      <point x="288" y="471" type="curve" smooth="yes"/>
      <point x="409" y="471"/>
      <point x="506" y="374"/>
      <point x="506" y="233" type="curve" smooth="yes"/>
      <point x="506" y="146"/>
      <point x="474" y="72"/>
      <point x="431" y="12" type="curve" smooth="yes"/>
      <point x="423" y="2"/>
      <point x="408" y="0"/>
      <point x="398" y="7" type="curve" smooth="yes"/>
      <point x="388" y="15"/>
      <point x="386" y="30"/>
    </contour>
  </outline>
</glyph>
<glyph name="knTwo" format="1">
  <advance width="544"/>
  <unicode hex="0CE8"/>
  <outline>
    <contour>
      <point x="70" y="46" type="curve" smooth="yes"/>
      <point x="194" y="46" type="line" smooth="yes"/>
      <point x="336" y="46"/>
      <point x="431" y="127"/>
      <point x="431" y="249" type="curve" smooth="yes"/>
      <point x="431" y="365"/>
      <point x="359" y="425"/>
      <point x="287" y="425" type="curve" smooth="yes"/>
      <point x="236" y="425"/>
      <point x="207" y="392"/>
      <point x="207" y="353" type="curve" smooth="yes"/>
      <point x="207" y="313"/>
      <point x="244" y="289"/>
      <point x="287" y="289" type="curve" smooth="yes"/>
      <point x="338" y="289"/>
      <point x="376" y="316"/>
      <point x="403" y="365" type="curve" smooth="yes"/>
      <point x="409" y="376"/>
      <point x="423" y="380"/>
      <point x="434" y="374" type="curve" smooth="yes"/>
      <point x="445" y="368"/>
      <point x="449" y="354"/>
      <point x="443" y="343" type="curve" smooth="yes"/>
      <point x="406" y="276"/>
      <point x="354" y="243"/>
      <point x="287" y="243" type="curve" smooth="yes"/>
      <point x="212" y="243"/>
      <point x="161" y="289"/>
      <point x="161" y="353" type="curve" smooth="yes"/>
      <point x="161" y="414"/>
      <point x="204" y="471"/>
      <point x="287" y="471" type="curve" smooth="yes"/>
      <point x="377" y="471"/>
      <point x="477" y="403"/>
      <point x="477" y="249" type="curve" smooth="yes"/>
      <point x="477" y="103"/>
      <point x="368" y="0"/>
      <point x="194" y="0" type="curve" smooth="yes"/>
      <point x="70" y="0" type="line" smooth="yes"/>
      <point x="58" y="0"/>
      <point x="47" y="11"/>
      <point x="47" y="23" type="curve" smooth="yes"/>
      <point x="47" y="35"/>
      <point x="58" y="46"/>
    </contour>
  </outline>
</glyph>
<glyph name="knFour" format="1">
  <advance width="672"/>
  <unicode hex="0CEA"/>
  <outline>
    <contour>
      <point x="349" y="185" type="curve" smooth="yes"/>
      <point x="349" y="185" type="line" smooth="yes"/>
      <point x="456" y="186"/>
      <point x="482" y="132"/>
      <point x="482" y="84" type="curve" smooth="yes"/>
      <point x="482" y="38"/>
      <point x="448" y="-16"/>
      <point x="349" y="-16" type="curve" smooth="yes"/>
      <point x="254" y="-16"/>
      <point x="217" y="38"/>
      <point x="217" y="85" type="curve" smooth="yes"/>
      <point x="217" y="132"/>
      <point x="247" y="184"/>
    </contour>
    <contour>
      <point x="107" y="339" type="curve" smooth="yes"/>
      <point x="134" y="325"/>
      <point x="165" y="317"/>
      <point x="199" y="317" type="curve" smooth="yes"/>
      <point x="241" y="317"/>
      <point x="270" y="338"/>
      <point x="270" y="371" type="curve" smooth="yes"/>
      <point x="270" y="402"/>
      <point x="244" y="425"/>
      <point x="205" y="425" type="curve" smooth="yes"/>
      <point x="155" y="425"/>
      <point x="119" y="379"/>
      <point x="119" y="329" type="curve" smooth="yes"/>
      <point x="119" y="298"/>
      <point x="125" y="265"/>
      <point x="144" y="245" type="curve" smooth="yes"/>
      <point x="181" y="208"/>
      <point x="233" y="187"/>
      <point x="357" y="187" type="curve" smooth="yes"/>
      <point x="439" y="187"/>
      <point x="496" y="207"/>
      <point x="525" y="236" type="curve" smooth="yes"/>
      <point x="546" y="256"/>
      <point x="557" y="281"/>
      <point x="557" y="310" type="curve" smooth="yes"/>
      <point x="557" y="353"/>
      <point x="525" y="386"/>
      <point x="477" y="413" type="curve" smooth="yes"/>
      <point x="466" y="419"/>
      <point x="462" y="433"/>
      <point x="468" y="444" type="curve" smooth="yes"/>
      <point x="474" y="455"/>
      <point x="488" y="459"/>
      <point x="499" y="453" type="curve" smooth="yes"/>
      <point x="567" y="416"/>
      <point x="603" y="367"/>
      <point x="603" y="310" type="curve" smooth="yes"/>
      <point x="603" y="267"/>
      <point x="588" y="232"/>
      <point x="557" y="202" type="curve" smooth="yes"/>
      <point x="522" y="169"/>
      <point x="457" y="141"/>
      <point x="357" y="141" type="curve" smooth="yes"/>
      <point x="213" y="141"/>
      <point x="155" y="170"/>
      <point x="112" y="213" type="curve" smooth="yes"/>
      <point x="85" y="239"/>
      <point x="73" y="286"/>
      <point x="73" y="329" type="curve" smooth="yes"/>
      <point x="73" y="407"/>
      <point x="131" y="471"/>
      <point x="205" y="471" type="curve" smooth="yes"/>
      <point x="276" y="471"/>
      <point x="316" y="424"/>
      <point x="316" y="371" type="curve" smooth="yes"/>
      <point x="316" y="316"/>
      <point x="277" y="271"/>
      <point x="199" y="271" type="curve" smooth="yes"/>
      <point x="157" y="271"/>
      <point x="120" y="281"/>
      <point x="87" y="297" type="curve" smooth="yes"/>
      <point x="76" y="303"/>
      <point x="71" y="317"/>
      <point x="76" y="328" type="curve" smooth="yes"/>
      <point x="82" y="339"/>
      <point x="96" y="344"/>
    </contour>
    <contour>
      <point x="349" y="139" type="line"/>
      <point x="295" y="138"/>
      <point x="263" y="116"/>
      <point x="263" y="85" type="curve" smooth="yes"/>
      <point x="263" y="54"/>
      <point x="298" y="30"/>
      <point x="349" y="30" type="curve" smooth="yes"/>
      <point x="402" y="30"/>
      <point x="436" y="54"/>
      <point x="436" y="84" type="curve" smooth="yes"/>
      <point x="436" y="116"/>
      <point x="408" y="140"/>
      <point x="349" y="139" type="curve"/>
    </contour>
  </outline>
</glyph>
<glyph name="knNine" format="1">
  <advance width="574"/>
  <unicode hex="0CEF"/>
  <outline>
    <contour>
      <point x="504" y="410" type="curve" smooth="yes"/>
      <point x="254" y="410" type="line" smooth="yes"/>
      <point x="156" y="410"/>
      <point x="115" y="362"/>
      <point x="115" y="307" type="curve" smooth="yes"/>
      <point x="115" y="226"/>
      <point x="196" y="167"/>
      <point x="295" y="167" type="curve" smooth="yes"/>
      <point x="348" y="167"/>
      <point x="379" y="194"/>
      <point x="379" y="223" type="curve" smooth="yes"/>
      <point x="379" y="248"/>
      <point x="358" y="275"/>
      <point x="314" y="275" type="curve" smooth="yes"/>
      <point x="252" y="275"/>
      <point x="216" y="221"/>
      <point x="216" y="173" type="curve" smooth="yes"/>
      <point x="216" y="113"/>
      <point x="241" y="72"/>
      <point x="306" y="26" type="curve" smooth="yes"/>
      <point x="316" y="19"/>
      <point x="319" y="4"/>
      <point x="312" y="-6" type="curve" smooth="yes"/>
      <point x="305" y="-16"/>
      <point x="290" y="-19"/>
      <point x="280" y="-12" type="curve" smooth="yes"/>
      <point x="197" y="46"/>
      <point x="170" y="99"/>
      <point x="170" y="173" type="curve" smooth="yes"/>
      <point x="170" y="243"/>
      <point x="224" y="321"/>
      <point x="314" y="321" type="curve" smooth="yes"/>
      <point x="396" y="321"/>
      <point x="425" y="266"/>
      <point x="425" y="223" type="curve" smooth="yes"/>
      <point x="425" y="178"/>
      <point x="392" y="121"/>
      <point x="295" y="121" type="curve" smooth="yes"/>
      <point x="164" y="121"/>
      <point x="69" y="206"/>
      <point x="69" y="307" type="curve" smooth="yes"/>
      <point x="69" y="380"/>
      <point x="112" y="456"/>
      <point x="254" y="456" type="curve" smooth="yes"/>
      <point x="504" y="456" type="line" smooth="yes"/>
      <point x="516" y="456"/>
      <point x="527" y="445"/>
      <point x="527" y="433" type="curve" smooth="yes"/>
      <point x="527" y="421"/>
      <point x="516" y="410"/>
    </contour>
  </outline>
</glyph>
<glyph name="knUpadhmaniya" format="1">
  <advance width="628"/>
  <unicode hex="0CF2"/>
  <outline>
    <contour>
      <point x="160" y="328" type="curve" smooth="yes"/>
      <point x="225" y="328"/>
      <point x="267" y="276"/>
      <point x="267" y="224" type="curve" smooth="yes"/>
      <point x="267" y="167"/>
      <point x="225" y="120"/>
      <point x="160" y="120" type="curve" smooth="yes"/>
      <point x="95" y="120"/>
      <point x="53" y="167"/>
      <point x="53" y="224" type="curve"/>
      <point x="53" y="275"/>
      <point x="97" y="328"/>
    </contour>
    <contour>
      <point x="468" y="327" type="curve" smooth="yes"/>
      <point x="533" y="327"/>
      <point x="575" y="276"/>
      <point x="575" y="222" type="curve" smooth="yes"/>
      <point x="575" y="167"/>
      <point x="534" y="119"/>
      <point x="468" y="119" type="curve" smooth="yes"/>
      <point x="403" y="119"/>
      <point x="361" y="167"/>
      <point x="361" y="223" type="curve" smooth="yes"/>
      <point x="361" y="274"/>
      <point x="405" y="327"/>
    </contour>
    <contour>
      <point x="160" y="282" type="curve" smooth="yes"/>
      <point x="125" y="282"/>
      <point x="99" y="253"/>
      <point x="99" y="224" type="curve" smooth="yes"/>
      <point x="99" y="191"/>
      <point x="123" y="166"/>
      <point x="160" y="166" type="curve" smooth="yes"/>
      <point x="197" y="166"/>
      <point x="221" y="191"/>
      <point x="221" y="224" type="curve" smooth="yes"/>
      <point x="221" y="254"/>
      <point x="197" y="282"/>
    </contour>
    <contour>
      <point x="468" y="281" type="curve" smooth="yes"/>
      <point x="433" y="281"/>
      <point x="407" y="252"/>
      <point x="407" y="223" type="curve" smooth="yes"/>
      <point x="407" y="191"/>
      <point x="431" y="165"/>
      <point x="468" y="165" type="curve" smooth="yes"/>
      <point x="504" y="165"/>
      <point x="529" y="191"/>
      <point x="529" y="222" type="curve" smooth="yes"/>
      <point x="529" y="253"/>
      <point x="505" y="281"/>
    </contour>
  </outline>
</glyph>
<glyph name="endash" format="1">
  <advance width="506"/>
  <unicode hex="2013"/>
  <outline>
    <contour>
      <point x="109" y="243" type="curve" smooth="yes"/>
      <point x="397" y="243" type="line" smooth="yes"/>
      <point x="411" y="243"/>
      <point x="422" y="232"/>
      <point x="422" y="218" type="curve" smooth="yes"/>
      <point x="422" y="205"/>
      <point x="411" y="193"/>
      <point x="397" y="193" type="curve" smooth="yes"/>
      <point x="109" y="193" type="line" smooth="yes"/>
      <point x="96" y="193"/>
      <point x="84" y="205"/>
      <point x="84" y="218" type="curve" smooth="yes"/>
      <point x="84" y="232"/>
      <point x="96" y="243"/>
    </contour>
  </outline>
</glyph>
<glyph name="quotesinglbase" format="1">
  <advance width="245"/>
  <unicode hex="201A"/>
  <outline>
    <contour>
      <point x="148" y="83" type="curve" smooth="yes"/>
      <point x="152" y="69"/>
      <point x="155" y="48"/>
      <point x="155" y="26" type="curve" smooth="yes"/>
      <point x="155" y="-25"/>
      <point x="138" y="-77"/>
      <point x="109" y="-116" type="curve" smooth="yes"/>
      <point x="101" y="-127"/>
      <point x="85" y="-129"/>
      <point x="74" y="-121" type="curve" smooth="yes"/>
      <point x="63" y="-113"/>
      <point x="61" y="-97"/>
      <point x="69" y="-86" type="curve" smooth="yes"/>
      <point x="92" y="-55"/>
      <point x="105" y="-15"/>
      <point x="105" y="26" type="curve" smooth="yes"/>
      <point x="105" y="42"/>
      <point x="104" y="57"/>
      <point x="100" y="67" type="curve" smooth="yes"/>
      <point x="96" y="80"/>
      <point x="103" y="94"/>
      <point x="116" y="99" type="curve" smooth="yes"/>
      <point x="129" y="103"/>
      <point x="143" y="96"/>
    </contour>
  </outline>
</glyph>
<glyph name="perthousand" format="1">
  <advance width="1133"/>
  <unicode hex="2030"/>
  <outline>
    <contour>
      <point x="931" y="310" type="curve" smooth="yes"/>
      <point x="1002" y="310"/>
      <point x="1064" y="246"/>
      <point x="1064" y="149" type="curve" smooth="yes"/>
      <point x="1064" y="58"/>
      <point x="1013" y="-12"/>
      <point x="931" y="-12" type="curve" smooth="yes"/>
      <point x="856" y="-12"/>
      <point x="797" y="58"/>
      <point x="797" y="148" type="curve" smooth="yes"/>
      <point x="797" y="246"/>
      <point x="855" y="310"/>
    </contour>
    <contour>
      <point x="931" y="260" type="curve" smooth="yes"/>
      <point x="879" y="260"/>
      <point x="847" y="210"/>
      <point x="847" y="148" type="curve" smooth="yes"/>
      <point x="847" y="92"/>
      <point x="880" y="38"/>
      <point x="931" y="38" type="curve" smooth="yes"/>
      <point x="987" y="38"/>
      <point x="1014" y="92"/>
      <point x="1014" y="149" type="curve" smooth="yes"/>
      <point x="1014" y="210"/>
      <point x="980" y="260"/>
    </contour>
    <component base="percent"/>
    <component base="percent"/>
  </outline>
</glyph>
<glyph name="trademark" format="1">
  <advance width="758"/>
  <unicode hex="2122"/>
  <outline>
    <contour>
      <point x="187" y="533" type="curve" smooth="yes"/>
      <point x="187" y="292" type="line" smooth="yes"/>
      <point x="187" y="280"/>
      <point x="177" y="270"/>
      <point x="165" y="270" type="curve" smooth="yes"/>
      <point x="153" y="270"/>
      <point x="143" y="280"/>
      <point x="143" y="292" type="curve" smooth="yes"/>
      <point x="143" y="533" type="line" smooth="yes"/>
      <point x="143" y="545"/>
      <point x="153" y="555"/>
      <point x="165" y="555" type="curve" smooth="yes"/>
      <point x="177" y="555"/>
      <point x="187" y="545"/>
    </contour>
    <contour>
      <point x="60" y="555" type="curve" smooth="yes"/>
      <point x="272" y="555" type="line" smooth="yes"/>
      <point x="284" y="555"/>
      <point x="294" y="545"/>
      <point x="294" y="533" type="curve" smooth="yes"/>
      <point x="294" y="521"/>
      <point x="284" y="511"/>
      <point x="272" y="511" type="curve" smooth="yes"/>
      <point x="60" y="511" type="line" smooth="yes"/>
      <point x="48" y="511"/>
      <point x="38" y="521"/>
      <point x="38" y="533" type="curve" smooth="yes"/>
      <point x="38" y="545"/>
      <point x="48" y="555"/>
    </contour>
    <contour>
      <point x="427" y="533" type="curve" smooth="yes"/>
      <point x="415" y="463"/>
      <point x="399" y="346"/>
      <point x="393" y="289" type="curve" smooth="yes"/>
      <point x="392" y="277"/>
      <point x="381" y="268"/>
      <point x="369" y="269" type="curve" smooth="yes"/>
      <point x="357" y="270"/>
      <point x="348" y="281"/>
      <point x="349" y="293" type="curve" smooth="yes"/>
      <point x="355" y="352"/>
      <point x="371" y="469"/>
      <point x="383" y="541" type="curve" smooth="yes"/>
      <point x="385" y="552"/>
      <point x="397" y="561"/>
      <point x="409" y="559" type="curve" smooth="yes"/>
      <point x="420" y="557"/>
      <point x="429" y="545"/>
    </contour>
    <contour>
      <point x="662" y="542" type="curve" smooth="yes"/>
      <point x="678" y="464"/>
      <point x="690" y="361"/>
      <point x="699" y="294" type="curve" smooth="yes"/>
      <point x="700" y="282"/>
      <point x="692" y="271"/>
      <point x="680" y="269" type="curve" smooth="yes"/>
      <point x="668" y="268"/>
      <point x="657" y="276"/>
      <point x="655" y="288" type="curve" smooth="yes"/>
      <point x="646" y="355"/>
      <point x="634" y="456"/>
      <point x="618" y="534" type="curve" smooth="yes"/>
      <point x="616" y="545"/>
      <point x="624" y="557"/>
      <point x="636" y="560" type="curve" smooth="yes"/>
      <point x="647" y="562"/>
      <point x="659" y="554"/>
    </contour>
    <contour>
      <point x="435" y="540" type="curve" smooth="yes"/>
      <point x="465" y="477"/>
      <point x="512" y="379"/>
      <point x="545" y="310" type="curve" smooth="yes"/>
      <point x="550" y="300"/>
      <point x="545" y="286"/>
      <point x="534" y="281" type="curve" smooth="yes"/>
      <point x="524" y="276"/>
      <point x="510" y="281"/>
      <point x="505" y="292" type="curve" smooth="yes"/>
      <point x="472" y="361"/>
      <point x="425" y="459"/>
      <point x="395" y="522" type="curve" smooth="yes"/>
      <point x="390" y="532"/>
      <point x="395" y="546"/>
      <point x="406" y="551" type="curve" smooth="yes"/>
      <point x="416" y="556"/>
      <point x="430" y="551"/>
    </contour>
    <contour>
      <point x="507" y="316" type="curve" smooth="yes"/>
      <point x="536" y="383"/>
      <point x="576" y="471"/>
      <point x="613" y="544" type="curve" smooth="yes"/>
      <point x="619" y="555"/>
      <point x="632" y="559"/>
      <point x="643" y="554" type="curve" smooth="yes"/>
      <point x="654" y="548"/>
      <point x="658" y="535"/>
      <point x="653" y="524" type="curve" smooth="yes"/>
      <point x="616" y="451"/>
      <point x="576" y="365"/>
      <point x="547" y="298" type="curve" smooth="yes"/>
      <point x="542" y="287"/>
      <point x="529" y="282"/>
      <point x="518" y="287" type="curve" smooth="yes"/>
      <point x="507" y="292"/>
      <point x="502" y="305"/>
    </contour>
  </outline>
</glyph>
<glyph name="summation" format="1">
  <advance width="485"/>
  <unicode hex="2211"/>
  <outline>
    <contour>
      <point x="279" y="248" type="curve" smooth="yes"/>
      <point x="82" y="7" type="line" smooth="yes"/>
      <point x="74" y="-3"/>
      <point x="58" y="-5"/>
      <point x="47" y="4" type="curve" smooth="yes"/>
      <point x="37" y="12"/>
      <point x="35" y="28"/>
      <point x="44" y="39" type="curve" smooth="yes"/>
      <point x="241" y="280" type="line" smooth="yes"/>
      <point x="249" y="290"/>
      <point x="265" y="292"/>
      <point x="276" y="283" type="curve" smooth="yes"/>
      <point x="286" y="275"/>
      <point x="288" y="259"/>
    </contour>
    <contour>
      <point x="71" y="48" type="curve" smooth="yes"/>
      <point x="402" y="48" type="line" smooth="yes"/>
      <point x="416" y="48"/>
      <point x="427" y="37"/>
      <point x="427" y="23" type="curve" smooth="yes"/>
      <point x="427" y="10"/>
      <point x="416" y="-2"/>
      <point x="402" y="-2" type="curve" smooth="yes"/>
      <point x="71" y="-2" type="line" smooth="yes"/>
      <point x="58" y="-2"/>
      <point x="46" y="10"/>
      <point x="46" y="23" type="curve" smooth="yes"/>
      <point x="46" y="37"/>
      <point x="58" y="48"/>
    </contour>
    <contour>
      <point x="81" y="533" type="curve" smooth="yes"/>
      <point x="397" y="533" type="line" smooth="yes"/>
      <point x="411" y="533"/>
      <point x="422" y="522"/>
      <point x="422" y="508" type="curve" smooth="yes"/>
      <point x="422" y="495"/>
      <point x="411" y="483"/>
      <point x="397" y="483" type="curve" smooth="yes"/>
      <point x="81" y="483" type="line" smooth="yes"/>
      <point x="68" y="483"/>
      <point x="56" y="495"/>
      <point x="56" y="508" type="curve" smooth="yes"/>
      <point x="56" y="522"/>
      <point x="68" y="533"/>
    </contour>
    <contour>
      <point x="94" y="523" type="curve" smooth="yes"/>
      <point x="281" y="286" type="line" smooth="yes"/>
      <point x="289" y="276"/>
      <point x="287" y="260"/>
      <point x="276" y="251" type="curve" smooth="yes"/>
      <point x="266" y="243"/>
      <point x="250" y="245"/>
      <point x="241" y="256" type="curve" smooth="yes"/>
      <point x="54" y="493" type="line" smooth="yes"/>
      <point x="46" y="503"/>
      <point x="48" y="519"/>
      <point x="59" y="528" type="curve" smooth="yes"/>
      <point x="69" y="536"/>
      <point x="85" y="534"/>
    </contour>
  </outline>
</glyph>
<glyph name="minus" format="1">
  <advance width="530"/>
  <unicode hex="2212"/>
  <outline>
    <contour>
      <point x="96" y="274" type="curve" smooth="yes"/>
      <point x="433" y="274" type="line" smooth="yes"/>
      <point x="447" y="274"/>
      <point x="458" y="263"/>
      <point x="458" y="249" type="curve" smooth="yes"/>
      <point x="458" y="236"/>
      <point x="447" y="224"/>
      <point x="433" y="224" type="curve" smooth="yes"/>
      <point x="96" y="224" type="line" smooth="yes"/>
      <point x="83" y="224"/>
      <point x="71" y="236"/>
      <point x="71" y="249" type="curve" smooth="yes"/>
      <point x="71" y="263"/>
      <point x="83" y="274"/>
    </contour>
  </outline>
</glyph>
<glyph name="radical" format="1">
  <advance width="537"/>
  <unicode hex="221A"/>
  <outline>
    <contour>
      <point x="157" y="325" type="curve" smooth="yes"/>
      <point x="196" y="236"/>
      <point x="257" y="104"/>
      <point x="295" y="30" type="curve" smooth="yes"/>
      <point x="301" y="18"/>
      <point x="296" y="3"/>
      <point x="284" y="-3" type="curve" smooth="yes"/>
      <point x="272" y="-9"/>
      <point x="257" y="-4"/>
      <point x="251" y="8" type="curve" smooth="yes"/>
      <point x="213" y="82"/>
      <point x="150" y="216"/>
      <point x="111" y="305" type="curve" smooth="yes"/>
      <point x="106" y="317"/>
      <point x="112" y="332"/>
      <point x="124" y="338" type="curve" smooth="yes"/>
      <point x="136" y="343"/>
      <point x="151" y="337"/>
    </contour>
    <contour>
      <point x="252" y="22" type="curve" smooth="yes"/>
      <point x="298" y="148"/>
      <point x="395" y="440"/>
      <point x="438" y="603" type="curve" smooth="yes"/>
      <point x="441" y="616"/>
      <point x="455" y="625"/>
      <point x="468" y="621" type="curve" smooth="yes"/>
      <point x="481" y="618"/>
      <point x="490" y="604"/>
      <point x="486" y="591" type="curve" smooth="yes"/>
      <point x="443" y="426"/>
      <point x="346" y="132"/>
      <point x="300" y="4" type="curve" smooth="yes"/>
      <point x="295" y="-8"/>
      <point x="280" y="-15"/>
      <point x="267" y="-11" type="curve" smooth="yes"/>
      <point x="255" y="-6"/>
      <point x="248" y="9"/>
    </contour>
    <contour>
      <point x="136" y="302" type="curve" smooth="yes"/>
      <point x="70" y="282" type="line" smooth="yes"/>
      <point x="57" y="278"/>
      <point x="43" y="286"/>
      <point x="39" y="299" type="curve" smooth="yes"/>
      <point x="35" y="312"/>
      <point x="43" y="326"/>
      <point x="56" y="330" type="curve" smooth="yes"/>
      <point x="122" y="350" type="line" smooth="yes"/>
      <point x="135" y="354"/>
      <point x="149" y="346"/>
      <point x="153" y="333" type="curve" smooth="yes"/>
      <point x="157" y="320"/>
      <point x="149" y="306"/>
    </contour>
  </outline>
</glyph>
<glyph name="infinity" format="1">
  <advance width="722"/>
  <unicode hex="221E"/>
  <outline>
    <contour>
      <point x="390" y="271" type="curve" smooth="yes"/>
      <point x="390" y="271" type="line" smooth="yes"/>
      <point x="433" y="211"/>
      <point x="468" y="170"/>
      <point x="518" y="170" type="curve" smooth="yes"/>
      <point x="567" y="170"/>
      <point x="605" y="208"/>
      <point x="605" y="267" type="curve" smooth="yes"/>
      <point x="605" y="331"/>
      <point x="557" y="368"/>
      <point x="513" y="368" type="curve" smooth="yes"/>
      <point x="455" y="368"/>
      <point x="419" y="314"/>
      <point x="382" y="249" type="curve" smooth="yes"/>
      <point x="335" y="168"/>
      <point x="277" y="121"/>
      <point x="207" y="121" type="curve" smooth="yes"/>
      <point x="129" y="121"/>
      <point x="67" y="178"/>
      <point x="67" y="269" type="curve" smooth="yes"/>
      <point x="67" y="366"/>
      <point x="132" y="419"/>
      <point x="202" y="419" type="curve" smooth="yes"/>
      <point x="273" y="419"/>
      <point x="320" y="371"/>
    </contour>
    <contour>
      <point x="350" y="243" type="line"/>
      <point x="294" y="321"/>
      <point x="261" y="369"/>
      <point x="202" y="369" type="curve" smooth="yes"/>
      <point x="156" y="369"/>
      <point x="117" y="330"/>
      <point x="117" y="269" type="curve" smooth="yes"/>
      <point x="117" y="210"/>
      <point x="155" y="171"/>
      <point x="207" y="171" type="curve" smooth="yes"/>
      <point x="261" y="171"/>
      <point x="303" y="214"/>
      <point x="338" y="275" type="curve" smooth="yes"/>
      <point x="387" y="360"/>
      <point x="439" y="418"/>
      <point x="513" y="418" type="curve" smooth="yes"/>
      <point x="579" y="418"/>
      <point x="655" y="365"/>
      <point x="655" y="267" type="curve" smooth="yes"/>
      <point x="655" y="174"/>
      <point x="592" y="120"/>
      <point x="518" y="120" type="curve" smooth="yes"/>
      <point x="456" y="120"/>
      <point x="405" y="163"/>
      <point x="350" y="243" type="curve"/>
    </contour>
  </outline>
</glyph>
<glyph name="notequal" format="1">
  <advance width="530"/>
  <unicode hex="2260"/>
  <outline>
    <contour>
      <point x="376" y="479" type="curve" smooth="yes"/>
      <point x="206" y="24" type="line" smooth="yes"/>
      <point x="202" y="12"/>
      <point x="187" y="5"/>
      <point x="174" y="10" type="curve" smooth="yes"/>
      <point x="162" y="14"/>
      <point x="155" y="29"/>
      <point x="160" y="42" type="curve" smooth="yes"/>
      <point x="330" y="497" type="line" smooth="yes"/>
      <point x="334" y="509"/>
      <point x="349" y="516"/>
      <point x="362" y="511" type="curve" smooth="yes"/>
      <point x="374" y="507"/>
      <point x="381" y="492"/>
    </contour>
    <component base="equal"/>
    <component base="equal"/>
  </outline>
</glyph>
<glyph name="lozenge" format="1">
  <advance width="389"/>
  <unicode hex="25CA"/>
  <outline>
    <contour>
      <point x="99" y="267" type="curve" smooth="yes"/>
      <point x="120" y="202"/>
      <point x="195" y="50"/>
      <point x="217" y="11" type="curve" smooth="yes"/>
      <point x="223" y="0"/>
      <point x="219" y="-16"/>
      <point x="207" y="-23" type="curve" smooth="yes"/>
      <point x="196" y="-29"/>
      <point x="180" y="-25"/>
      <point x="173" y="-13" type="curve" smooth="yes"/>
      <point x="151" y="26"/>
      <point x="74" y="184"/>
      <point x="51" y="251" type="curve" smooth="yes"/>
      <point x="47" y="264"/>
      <point x="54" y="278"/>
      <point x="67" y="283" type="curve" smooth="yes"/>
      <point x="80" y="287"/>
      <point x="94" y="280"/>
    </contour>
    <contour>
      <point x="175" y="8" type="curve" smooth="yes"/>
      <point x="200" y="52"/>
      <point x="268" y="192"/>
      <point x="294" y="267" type="curve" smooth="yes"/>
      <point x="299" y="280"/>
      <point x="314" y="287"/>
      <point x="326" y="283" type="curve" smooth="yes"/>
      <point x="339" y="278"/>
      <point x="346" y="263"/>
      <point x="342" y="251" type="curve" smooth="yes"/>
      <point x="314" y="174"/>
      <point x="244" y="30"/>
      <point x="219" y="-16" type="curve" smooth="yes"/>
      <point x="212" y="-28"/>
      <point x="197" y="-32"/>
      <point x="185" y="-26" type="curve" smooth="yes"/>
      <point x="173" y="-19"/>
      <point x="169" y="-4"/>
    </contour>
    <contour>
      <point x="217" y="518" type="curve" smooth="yes"/>
      <point x="195" y="479"/>
      <point x="120" y="327"/>
      <point x="99" y="262" type="curve" smooth="yes"/>
      <point x="94" y="249"/>
      <point x="80" y="242"/>
      <point x="67" y="246" type="curve" smooth="yes"/>
      <point x="54" y="251"/>
      <point x="47" y="265"/>
      <point x="51" y="278" type="curve" smooth="yes"/>
      <point x="74" y="345"/>
      <point x="151" y="503"/>
      <point x="173" y="542" type="curve" smooth="yes"/>
      <point x="180" y="554"/>
      <point x="196" y="558"/>
      <point x="207" y="552" type="curve" smooth="yes"/>
      <point x="219" y="545"/>
      <point x="223" y="529"/>
    </contour>
    <contour>
      <point x="294" y="262" type="curve" smooth="yes"/>
      <point x="268" y="337"/>
      <point x="200" y="477"/>
      <point x="175" y="521" type="curve" smooth="yes"/>
      <point x="169" y="533"/>
      <point x="173" y="548"/>
      <point x="185" y="555" type="curve" smooth="yes"/>
      <point x="197" y="561"/>
      <point x="212" y="557"/>
      <point x="219" y="545" type="curve" smooth="yes"/>
      <point x="244" y="499"/>
      <point x="314" y="355"/>
      <point x="342" y="278" type="curve" smooth="yes"/>
      <point x="346" y="266"/>
      <point x="339" y="251"/>
      <point x="326" y="246" type="curve" smooth="yes"/>
      <point x="314" y="242"/>
      <point x="299" y="249"/>
    </contour>
  </outline>
</glyph>
<glyph name="brevecmb.cap" format="1">
  <advance width="0"/>
  <outline>
    <contour>
      <point x="-107" y="743" type="curve" smooth="yes"/>
      <point x="-82" y="711"/>
      <point x="-45" y="688"/>
      <point x="-5" y="688" type="curve" smooth="yes"/>
      <point x="40" y="688"/>
      <point x="71" y="709"/>
      <point x="93" y="741" type="curve" smooth="yes"/>
      <point x="100" y="751"/>
      <point x="114" y="754"/>
      <point x="123" y="747" type="curve" smooth="yes"/>
      <point x="133" y="740"/>
      <point x="136" y="726"/>
      <point x="129" y="717" type="curve" smooth="yes"/>
      <point x="99" y="673"/>
      <point x="56" y="644"/>
      <point x="-5" y="644" type="curve" smooth="yes"/>
      <point x="-59" y="644"/>
      <point x="-108" y="673"/>
      <point x="-141" y="715" type="curve" smooth="yes"/>
      <point x="-149" y="725"/>
      <point x="-147" y="739"/>
      <point x="-138" y="746" type="curve" smooth="yes"/>
      <point x="-128" y="754"/>
      <point x="-114" y="752"/>
    </contour>
  </outline>
</glyph>
<glyph name="caroncmb.cap" format="1">
  <advance width="0"/>
  <outline>
    <contour>
      <point x="-14" y="672" type="curve" smooth="yes"/>
      <point x="19" y="696"/>
      <point x="54" y="720"/>
      <point x="82" y="741" type="curve" smooth="yes"/>
      <point x="91" y="748"/>
      <point x="105" y="746"/>
      <point x="113" y="736" type="curve" smooth="yes"/>
      <point x="120" y="727"/>
      <point x="118" y="713"/>
      <point x="108" y="705" type="curve" smooth="yes"/>
      <point x="80" y="684"/>
      <point x="45" y="660"/>
      <point x="12" y="636" type="curve" smooth="yes"/>
      <point x="2" y="629"/>
      <point x="-12" y="631"/>
      <point x="-19" y="641" type="curve" smooth="yes"/>
      <point x="-26" y="651"/>
      <point x="-24" y="665"/>
    </contour>
    <contour>
      <point x="-91" y="741" type="curve" smooth="yes"/>
      <point x="-63" y="720"/>
      <point x="-29" y="696"/>
      <point x="5" y="672" type="curve" smooth="yes"/>
      <point x="14" y="665"/>
      <point x="17" y="651"/>
      <point x="10" y="641" type="curve" smooth="yes"/>
      <point x="3" y="632"/>
      <point x="-11" y="629"/>
      <point x="-21" y="636" type="curve" smooth="yes"/>
      <point x="-55" y="660"/>
      <point x="-89" y="684"/>
      <point x="-117" y="705" type="curve" smooth="yes"/>
      <point x="-127" y="713"/>
      <point x="-129" y="727"/>
      <point x="-122" y="736" type="curve" smooth="yes"/>
      <point x="-114" y="746"/>
      <point x="-100" y="748"/>
    </contour>
  </outline>
</glyph>
<glyph name="commaaccent" format="1">
  <advance width="230"/>
  <outline>
    <contour>
      <point x="150" y="-93" type="curve" smooth="yes"/>
      <point x="158" y="-108"/>
      <point x="162" y="-124"/>
      <point x="162" y="-141" type="curve" smooth="yes"/>
      <point x="162" y="-186"/>
      <point x="129" y="-228"/>
      <point x="72" y="-255" type="curve" smooth="yes"/>
      <point x="62" y="-260"/>
      <point x="48" y="-255"/>
      <point x="43" y="-244" type="curve" smooth="yes"/>
      <point x="38" y="-234"/>
      <point x="43" y="-220"/>
      <point x="54" y="-215" type="curve" smooth="yes"/>
      <point x="91" y="-198"/>
      <point x="118" y="-172"/>
      <point x="118" y="-141" type="curve" smooth="yes"/>
      <point x="118" y="-132"/>
      <point x="116" y="-122"/>
      <point x="112" y="-115" type="curve" smooth="yes"/>
      <point x="106" y="-104"/>
      <point x="110" y="-90"/>
      <point x="120" y="-85" type="curve" smooth="yes"/>
      <point x="131" y="-79"/>
      <point x="145" y="-83"/>
    </contour>
  </outline>
</glyph>
<glyph name="dieresiscmb.cap" format="1">
  <advance width="0"/>
  <outline>
    <contour>
      <point x="-103" y="728" type="curve" smooth="yes"/>
      <point x="-85" y="728"/>
      <point x="-65" y="711"/>
      <point x="-65" y="680" type="curve" smooth="yes"/>
      <point x="-65" y="647"/>
      <point x="-85" y="632"/>
      <point x="-103" y="632" type="curve" smooth="yes"/>
      <point x="-123" y="632"/>
      <point x="-143" y="649"/>
      <point x="-143" y="680" type="curve" smooth="yes"/>
      <point x="-143" y="709"/>
      <point x="-123" y="728"/>
    </contour>
    <contour>
      <point x="90" y="728" type="curve" smooth="yes"/>
      <point x="108" y="728"/>
      <point x="128" y="711"/>
      <point x="128" y="680" type="curve" smooth="yes"/>
      <point x="128" y="647"/>
      <point x="108" y="632"/>
      <point x="90" y="632" type="curve" smooth="yes"/>
      <point x="70" y="632"/>
      <point x="51" y="648"/>
      <point x="51" y="680" type="curve"/>
      <point x="51" y="710"/>
      <point x="70" y="728"/>
    </contour>
    <contour>
      <point x="-103" y="684" type="curve" smooth="yes"/>
      <point x="-105" y="684"/>
      <point x="-99" y="677"/>
      <point x="-99" y="680" type="curve" smooth="yes"/>
      <point x="-99" y="683"/>
      <point x="-105" y="676"/>
      <point x="-103" y="676" type="curve" smooth="yes"/>
      <point x="-101" y="676"/>
      <point x="-109" y="685"/>
      <point x="-109" y="680" type="curve" smooth="yes"/>
      <point x="-109" y="675"/>
      <point x="-101" y="684"/>
    </contour>
    <contour>
      <point x="90" y="684" type="curve" smooth="yes"/>
      <point x="88" y="684"/>
      <point x="95" y="676"/>
      <point x="95" y="680" type="curve" smooth="yes"/>
      <point x="95" y="684"/>
      <point x="88" y="676"/>
      <point x="90" y="676" type="curve" smooth="yes"/>
      <point x="92" y="676"/>
      <point x="84" y="685"/>
      <point x="84" y="680" type="curve" smooth="yes"/>
      <point x="84" y="675"/>
      <point x="92" y="684"/>
    </contour>
  </outline>
</glyph>
<glyph name="ethslash" format="1">
  <advance width="490"/>
  <outline>
    <contour>
      <point x="174" y="450" type="curve" smooth="yes"/>
      <point x="338" y="549" type="line" smooth="yes"/>
      <point x="348" y="555"/>
      <point x="362" y="552"/>
      <point x="368" y="541" type="curve" smooth="yes"/>
      <point x="374" y="531"/>
      <point x="371" y="517"/>
      <point x="360" y="511" type="curve" smooth="yes"/>
      <point x="196" y="412" type="line" smooth="yes"/>
      <point x="186" y="406"/>
      <point x="172" y="409"/>
      <point x="166" y="420" type="curve" smooth="yes"/>
      <point x="160" y="430"/>
      <point x="163" y="444"/>
    </contour>
  </outline>
</glyph>
<glyph name="hungarianumlautcmb.cap" format="1">
  <advance width="0"/>
  <outline>
    <contour>
      <point x="-11" y="703" type="curve" smooth="yes"/>
      <point x="-43" y="679"/>
      <point x="-72" y="656"/>
      <point x="-97" y="630" type="curve" smooth="yes"/>
      <point x="-105" y="621"/>
      <point x="-120" y="621"/>
      <point x="-128" y="629" type="curve" smooth="yes"/>
      <point x="-137" y="637"/>
      <point x="-137" y="652"/>
      <point x="-129" y="660" type="curve" smooth="yes"/>
      <point x="-102" y="688"/>
      <point x="-71" y="713"/>
      <point x="-37" y="739" type="curve" smooth="yes"/>
      <point x="-28" y="746"/>
      <point x="-14" y="744"/>
      <point x="-6" y="734" type="curve" smooth="yes"/>
      <point x="1" y="725"/>
      <point x="-1" y="711"/>
    </contour>
    <contour>
      <point x="195" y="704" type="curve" smooth="yes"/>
      <point x="159" y="675"/>
      <point x="130" y="649"/>
      <point x="106" y="628" type="curve" smooth="yes"/>
      <point x="98" y="621"/>
      <point x="83" y="622"/>
      <point x="75" y="631" type="curve" smooth="yes"/>
      <point x="68" y="639"/>
      <point x="69" y="654"/>
      <point x="78" y="662" type="curve" smooth="yes"/>
      <point x="102" y="683"/>
      <point x="131" y="709"/>
      <point x="167" y="738" type="curve" smooth="yes"/>
      <point x="176" y="746"/>
      <point x="191" y="744"/>
      <point x="198" y="735" type="curve" smooth="yes"/>
      <point x="206" y="726"/>
      <point x="204" y="711"/>
    </contour>
  </outline>
</glyph>
<glyph name="hungarumlautcmb.cap" format="1">
  <advance width="0"/>
  <outline>
    <contour>
      <point x="-45" y="727" type="curve" smooth="yes"/>
      <point x="-67" y="694"/>
      <point x="-81" y="665"/>
      <point x="-93" y="636" type="curve" smooth="yes"/>
      <point x="-97" y="625"/>
      <point x="-110" y="619"/>
      <point x="-121" y="624" type="curve" smooth="yes"/>
      <point x="-132" y="628"/>
      <point x="-138" y="641"/>
      <point x="-133" y="652" type="curve" smooth="yes"/>
      <point x="-121" y="683"/>
      <point x="-105" y="714"/>
      <point x="-83" y="751" type="curve" smooth="yes"/>
      <point x="-76" y="761"/>
      <point x="-62" y="764"/>
      <point x="-52" y="758" type="curve" smooth="yes"/>
      <point x="-42" y="751"/>
      <point x="-39" y="737"/>
    </contour>
    <contour>
      <point x="160" y="727" type="curve" smooth="yes"/>
      <point x="138" y="694"/>
      <point x="124" y="665"/>
      <point x="112" y="636" type="curve" smooth="yes"/>
      <point x="108" y="625"/>
      <point x="95" y="619"/>
      <point x="84" y="624" type="curve" smooth="yes"/>
      <point x="73" y="628"/>
      <point x="67" y="641"/>
      <point x="72" y="652" type="curve" smooth="yes"/>
      <point x="84" y="683"/>
      <point x="100" y="714"/>
      <point x="122" y="751" type="curve" smooth="yes"/>
      <point x="129" y="761"/>
      <point x="143" y="764"/>
      <point x="153" y="758" type="curve" smooth="yes"/>
      <point x="163" y="751"/>
      <point x="166" y="737"/>
    </contour>
  </outline>
</glyph>
<glyph name="knBHI" format="1">
  <advance width="769"/>
  <outline>
    <contour>
      <point x="404" y="-93" type="curve" smooth="yes"/>
      <point x="404" y="-196" type="line" smooth="yes"/>
      <point x="404" y="-208"/>
      <point x="393" y="-219"/>
      <point x="381" y="-219" type="curve" smooth="yes"/>
      <point x="369" y="-219"/>
      <point x="358" y="-208"/>
      <point x="358" y="-196" type="curve" smooth="yes"/>
      <point x="358" y="-93" type="line" smooth="yes"/>
      <point x="358" y="-81"/>
      <point x="369" y="-70"/>
      <point x="381" y="-70" type="curve" smooth="yes"/>
      <point x="393" y="-70"/>
      <point x="404" y="-81"/>
    </contour>
    <component base="knBI"/>
    <component base="knBI"/>
  </outline>
</glyph>
<glyph name="knCHAc2" format="1">
  <advance width="119"/>
  <outline>
    <contour>
      <point x="-44" y="-430" type="curve" smooth="yes"/>
      <point x="-44" y="-499" type="line" smooth="yes"/>
      <point x="-44" y="-510"/>
      <point x="-54" y="-520"/>
      <point x="-65" y="-520" type="curve" smooth="yes"/>
      <point x="-76" y="-520"/>
      <point x="-86" y="-510"/>
      <point x="-86" y="-499" type="curve" smooth="yes"/>
      <point x="-86" y="-430" type="line" smooth="yes"/>
      <point x="-86" y="-419"/>
      <point x="-76" y="-409"/>
      <point x="-65" y="-409" type="curve" smooth="yes"/>
      <point x="-54" y="-409"/>
      <point x="-44" y="-419"/>
    </contour>
    <contour>
      <point x="-244" y="-208" type="curve" smooth="yes"/>
      <point x="-228" y="-220"/>
      <point x="-207" y="-229"/>
      <point x="-184" y="-229" type="curve" smooth="yes"/>
      <point x="-160" y="-229"/>
      <point x="-145" y="-217"/>
      <point x="-145" y="-194" type="curve" smooth="yes"/>
      <point x="-145" y="-176"/>
      <point x="-160" y="-164"/>
      <point x="-181" y="-164" type="curve" smooth="yes"/>
      <point x="-214" y="-164"/>
      <point x="-237" y="-203"/>
      <point x="-237" y="-253" type="curve" smooth="yes"/>
      <point x="-237" y="-304"/>
      <point x="-204" y="-331"/>
      <point x="-165" y="-331" type="curve" smooth="yes"/>
      <point x="-129" y="-331"/>
      <point x="-108" y="-311"/>
      <point x="-84" y="-286" type="curve" smooth="yes"/>
      <point x="-81" y="-283"/>
      <point x="-74" y="-280"/>
      <point x="-69" y="-280" type="curve" smooth="yes"/>
      <point x="-65" y="-280" type="line" smooth="yes"/>
      <point x="-60" y="-280"/>
      <point x="-53" y="-283"/>
      <point x="-49" y="-287" type="curve" smooth="yes"/>
      <point x="-25" y="-314"/>
      <point x="-2" y="-331"/>
      <point x="30" y="-331" type="curve" smooth="yes"/>
      <point x="71" y="-331"/>
      <point x="96" y="-298"/>
      <point x="96" y="-229" type="curve" smooth="yes"/>
      <point x="96" y="-152"/>
      <point x="67" y="-48"/>
      <point x="34" y="36" type="curve" smooth="yes"/>
      <point x="30" y="47"/>
      <point x="36" y="59"/>
      <point x="46" y="64" type="curve" smooth="yes"/>
      <point x="57" y="68"/>
      <point x="69" y="62"/>
      <point x="74" y="52" type="curve" smooth="yes"/>
      <point x="109" y="-38"/>
      <point x="138" y="-148"/>
      <point x="138" y="-229" type="curve" smooth="yes"/>
      <point x="138" y="-342"/>
      <point x="87" y="-373"/>
      <point x="30" y="-373" type="curve" smooth="yes"/>
      <point x="-14" y="-373"/>
      <point x="-47" y="-352"/>
      <point x="-81" y="-315" type="curve"/>
      <point x="-65" y="-322" type="line"/>
      <point x="-69" y="-322" type="line"/>
      <point x="-54" y="-316" type="line"/>
      <point x="-86" y="-349"/>
      <point x="-117" y="-373"/>
      <point x="-165" y="-373" type="curve" smooth="yes"/>
      <point x="-226" y="-373"/>
      <point x="-279" y="-334"/>
      <point x="-279" y="-253" type="curve" smooth="yes"/>
      <point x="-279" y="-165"/>
      <point x="-230" y="-122"/>
      <point x="-181" y="-122" type="curve" smooth="yes"/>
      <point x="-130" y="-122"/>
      <point x="-103" y="-156"/>
      <point x="-103" y="-194" type="curve" smooth="yes"/>
      <point x="-103" y="-241"/>
      <point x="-132" y="-271"/>
      <point x="-184" y="-271" type="curve" smooth="yes"/>
      <point x="-217" y="-271"/>
      <point x="-246" y="-258"/>
      <point x="-268" y="-242" type="curve" smooth="yes"/>
      <point x="-278" y="-235"/>
      <point x="-280" y="-222"/>
      <point x="-273" y="-213" type="curve" smooth="yes"/>
      <point x="-266" y="-203"/>
      <point x="-253" y="-201"/>
    </contour>
  </outline>
</glyph>
<glyph name="knCHI" format="1">
  <advance width="800"/>
  <outline>
    <contour>
      <point x="429" y="-93" type="curve" smooth="yes"/>
      <point x="429" y="-196" type="line" smooth="yes"/>
      <point x="429" y="-208"/>
      <point x="418" y="-219"/>
      <point x="406" y="-219" type="curve" smooth="yes"/>
      <point x="394" y="-219"/>
      <point x="383" y="-208"/>
      <point x="383" y="-196" type="curve" smooth="yes"/>
      <point x="383" y="-93" type="line" smooth="yes"/>
      <point x="383" y="-81"/>
      <point x="394" y="-70"/>
      <point x="406" y="-70" type="curve" smooth="yes"/>
      <point x="418" y="-70"/>
      <point x="429" y="-81"/>
    </contour>
    <contour>
      <point x="429" y="-93" type="curve" smooth="yes"/>
      <point x="429" y="-196" type="line" smooth="yes"/>
      <point x="429" y="-208"/>
      <point x="418" y="-219"/>
      <point x="406" y="-219" type="curve" smooth="yes"/>
      <point x="394" y="-219"/>
      <point x="383" y="-208"/>
      <point x="383" y="-196" type="curve" smooth="yes"/>
      <point x="383" y="-93" type="line" smooth="yes"/>
      <point x="383" y="-81"/>
      <point x="394" y="-70"/>
      <point x="406" y="-70" type="curve" smooth="yes"/>
      <point x="418" y="-70"/>
      <point x="429" y="-81"/>
    </contour>
    <contour>
      <point x="149" y="363" type="curve" smooth="yes"/>
      <point x="172" y="328"/>
      <point x="199" y="305"/>
      <point x="234" y="305" type="curve" smooth="yes"/>
      <point x="269" y="305"/>
      <point x="299" y="327"/>
      <point x="299" y="364" type="curve" smooth="yes"/>
      <point x="299" y="400"/>
      <point x="274" y="425"/>
      <point x="234" y="425" type="curve" smooth="yes"/>
      <point x="172" y="425"/>
      <point x="127" y="326"/>
      <point x="127" y="225" type="curve" smooth="yes"/>
      <point x="127" y="126"/>
      <point x="177" y="47"/>
      <point x="261" y="46" type="curve" smooth="yes"/>
      <point x="318" y="45"/>
      <point x="351" y="76"/>
      <point x="383" y="135" type="curve" smooth="yes"/>
      <point x="386" y="142"/>
      <point x="395" y="147"/>
      <point x="403" y="147" type="curve" smooth="yes"/>
      <point x="408" y="147" type="line" smooth="yes"/>
      <point x="415" y="147"/>
      <point x="424" y="142"/>
      <point x="428" y="135" type="curve" smooth="yes"/>
      <point x="461" y="77"/>
      <point x="501" y="46"/>
      <point x="557" y="46" type="curve" smooth="yes"/>
      <point x="642" y="46"/>
      <point x="694" y="112"/>
      <point x="694" y="222" type="curve" smooth="yes"/>
      <point x="694" y="347"/>
      <point x="649" y="461"/>
      <point x="567" y="543" type="curve" smooth="yes"/>
      <point x="537" y="573"/>
      <point x="506" y="588"/>
      <point x="469" y="588" type="curve" smooth="yes"/>
      <point x="425" y="588"/>
      <point x="402" y="555"/>
      <point x="402" y="527" type="curve" smooth="yes"/>
      <point x="402" y="497"/>
      <point x="426" y="469"/>
      <point x="467" y="469" type="curve" smooth="yes"/>
      <point x="512" y="469"/>
      <point x="546" y="497"/>
      <point x="579" y="551" type="curve" smooth="yes"/>
      <point x="586" y="562"/>
      <point x="601" y="565"/>
      <point x="611" y="559" type="curve" smooth="yes"/>
      <point x="622" y="552"/>
      <point x="625" y="537"/>
      <point x="619" y="527" type="curve" smooth="yes"/>
      <point x="574" y="455"/>
      <point x="526" y="423"/>
      <point x="467" y="423" type="curve" smooth="yes"/>
      <point x="394" y="423"/>
      <point x="356" y="475"/>
      <point x="356" y="527" type="curve" smooth="yes"/>
      <point x="356" y="575"/>
      <point x="393" y="634"/>
      <point x="469" y="634" type="curve" smooth="yes"/>
      <point x="518" y="634"/>
      <point x="559" y="615"/>
      <point x="599" y="575" type="curve" smooth="yes"/>
      <point x="689" y="485"/>
      <point x="740" y="359"/>
      <point x="740" y="222" type="curve" smooth="yes"/>
      <point x="740" y="76"/>
      <point x="664" y="0"/>
      <point x="557" y="0" type="curve" smooth="yes"/>
      <point x="485" y="0"/>
      <point x="431" y="37"/>
      <point x="388" y="113" type="curve"/>
      <point x="408" y="101" type="line"/>
      <point x="403" y="101" type="line"/>
      <point x="423" y="113" type="line"/>
      <point x="381" y="34"/>
      <point x="334" y="-1"/>
      <point x="261" y="0" type="curve" smooth="yes"/>
      <point x="155" y="1"/>
      <point x="81" y="92"/>
      <point x="81" y="225" type="curve" smooth="yes"/>
      <point x="81" y="370"/>
      <point x="158" y="471"/>
      <point x="234" y="471" type="curve" smooth="yes"/>
      <point x="304" y="471"/>
      <point x="345" y="426"/>
      <point x="345" y="364" type="curve" smooth="yes"/>
      <point x="345" y="301"/>
      <point x="295" y="259"/>
      <point x="234" y="259" type="curve" smooth="yes"/>
      <point x="185" y="259"/>
      <point x="144" y="288"/>
      <point x="111" y="337" type="curve" smooth="yes"/>
      <point x="104" y="348"/>
      <point x="107" y="362"/>
      <point x="117" y="369" type="curve" smooth="yes"/>
      <point x="128" y="376"/>
      <point x="142" y="373"/>
    </contour>
  </outline>
</glyph>
<glyph name="knDDI" format="1">
  <advance width="757"/>
  <outline>
    <contour>
      <point x="375" y="446" type="curve" smooth="yes"/>
      <point x="559" y="446"/>
      <point x="691" y="296"/>
      <point x="691" y="168" type="curve" smooth="yes"/>
      <point x="691" y="67"/>
      <point x="628" y="0"/>
      <point x="523" y="0" type="curve" smooth="yes"/>
      <point x="460" y="0"/>
      <point x="392" y="34"/>
      <point x="349" y="113" type="curve"/>
      <point x="369" y="101" type="line"/>
      <point x="364" y="101" type="line"/>
      <point x="384" y="113" type="line"/>
      <point x="343" y="35"/>
      <point x="297" y="0"/>
      <point x="223" y="0" type="curve" smooth="yes"/>
      <point x="144" y="0"/>
      <point x="73" y="58"/>
      <point x="73" y="164" type="curve" smooth="yes"/>
      <point x="73" y="329"/>
      <point x="219" y="446"/>
    </contour>
    <contour>
      <point x="375" y="400" type="curve" smooth="yes"/>
      <point x="245" y="400"/>
      <point x="119" y="303"/>
      <point x="119" y="164" type="curve" smooth="yes"/>
      <point x="119" y="90"/>
      <point x="166" y="46"/>
      <point x="223" y="46" type="curve" smooth="yes"/>
      <point x="279" y="46"/>
      <point x="313" y="77"/>
      <point x="344" y="135" type="curve" smooth="yes"/>
      <point x="347" y="142"/>
      <point x="356" y="147"/>
      <point x="364" y="147" type="curve" smooth="yes"/>
      <point x="369" y="147" type="line" smooth="yes"/>
      <point x="377" y="147"/>
      <point x="386" y="142"/>
      <point x="389" y="135" type="curve" smooth="yes"/>
      <point x="422" y="74"/>
      <point x="474" y="46"/>
      <point x="523" y="46" type="curve" smooth="yes"/>
      <point x="600" y="46"/>
      <point x="645" y="95"/>
      <point x="645" y="168" type="curve" smooth="yes"/>
      <point x="645" y="278"/>
      <point x="529" y="400"/>
    </contour>
    <contour>
      <point x="616" y="277" type="curve" smooth="yes"/>
      <point x="616" y="379"/>
      <point x="586" y="424"/>
      <point x="538" y="470" type="curve" smooth="yes"/>
      <point x="491" y="517"/>
      <point x="414" y="543"/>
      <point x="332" y="543" type="curve" smooth="yes"/>
      <point x="207" y="543"/>
      <point x="141" y="498"/>
      <point x="141" y="449" type="curve" smooth="yes"/>
      <point x="141" y="421"/>
      <point x="164" y="395"/>
      <point x="197" y="376" type="curve" smooth="yes"/>
      <point x="208" y="370"/>
      <point x="212" y="355"/>
      <point x="206" y="345" type="curve" smooth="yes"/>
      <point x="200" y="334"/>
      <point x="185" y="330"/>
      <point x="175" y="336" type="curve" smooth="yes"/>
      <point x="124" y="365"/>
      <point x="95" y="409"/>
      <point x="95" y="449" type="curve" smooth="yes"/>
      <point x="95" y="510"/>
      <point x="145" y="589"/>
      <point x="332" y="589" type="curve" smooth="yes"/>
      <point x="428" y="589"/>
      <point x="515" y="557"/>
      <point x="570" y="504" type="curve" smooth="yes"/>
      <point x="626" y="450"/>
      <point x="662" y="397"/>
      <point x="662" y="277" type="curve" smooth="yes"/>
      <point x="662" y="265"/>
      <point x="651" y="254"/>
      <point x="639" y="254" type="curve" smooth="yes"/>
      <point x="627" y="254"/>
      <point x="616" y="265"/>
    </contour>
    <contour>
      <point x="561" y="329" type="curve" smooth="yes"/>
      <point x="509" y="329"/>
      <point x="474" y="291"/>
      <point x="474" y="257" type="curve" smooth="yes"/>
      <point x="474" y="226"/>
      <point x="501" y="200"/>
      <point x="537" y="200" type="curve" smooth="yes"/>
      <point x="576" y="200"/>
      <point x="605" y="222"/>
      <point x="623" y="261" type="curve" smooth="yes"/>
      <point x="628" y="272"/>
      <point x="642" y="277"/>
      <point x="654" y="272" type="curve" smooth="yes"/>
      <point x="665" y="267"/>
      <point x="670" y="253"/>
      <point x="665" y="241" type="curve" smooth="yes"/>
      <point x="639" y="184"/>
      <point x="594" y="154"/>
      <point x="537" y="154" type="curve" smooth="yes"/>
      <point x="473" y="154"/>
      <point x="428" y="203"/>
      <point x="428" y="257" type="curve" smooth="yes"/>
      <point x="428" y="309"/>
      <point x="475" y="375"/>
      <point x="561" y="375" type="curve" smooth="yes"/>
      <point x="573" y="375"/>
      <point x="584" y="364"/>
      <point x="584" y="352" type="curve" smooth="yes"/>
      <point x="584" y="340"/>
      <point x="573" y="329"/>
    </contour>
  </outline>
</glyph>
<glyph name="knDHI" format="1">
  <advance width="729"/>
  <outline>
    <contour>
      <point x="392" y="-93" type="curve" smooth="yes"/>
      <point x="392" y="-196" type="line" smooth="yes"/>
      <point x="392" y="-208"/>
      <point x="381" y="-219"/>
      <point x="369" y="-219" type="curve" smooth="yes"/>
      <point x="357" y="-219"/>
      <point x="346" y="-208"/>
      <point x="346" y="-196" type="curve" smooth="yes"/>
      <point x="346" y="-93" type="line" smooth="yes"/>
      <point x="346" y="-81"/>
      <point x="357" y="-70"/>
      <point x="369" y="-70" type="curve" smooth="yes"/>
      <point x="381" y="-70"/>
      <point x="392" y="-81"/>
    </contour>
    <component base="knDI"/>
    <component base="knDI"/>
  </outline>
</glyph>
<glyph name="knDI" format="1">
  <advance width="729"/>
  <outline>
    <contour>
      <point x="371" y="444" type="curve" smooth="yes"/>
      <point x="528" y="444"/>
      <point x="665" y="309"/>
      <point x="665" y="168" type="curve" smooth="yes"/>
      <point x="665" y="59"/>
      <point x="599" y="0"/>
      <point x="516" y="0" type="curve" smooth="yes"/>
      <point x="438" y="0"/>
      <point x="395" y="33"/>
      <point x="352" y="113" type="curve"/>
      <point x="372" y="101" type="line"/>
      <point x="367" y="101" type="line"/>
      <point x="387" y="113" type="line"/>
      <point x="347" y="37"/>
      <point x="302" y="0"/>
      <point x="228" y="0" type="curve" smooth="yes"/>
      <point x="143" y="0"/>
      <point x="80" y="59"/>
      <point x="80" y="168" type="curve" smooth="yes"/>
      <point x="80" y="310"/>
      <point x="212" y="444"/>
    </contour>
    <contour>
      <point x="371" y="398" type="curve" smooth="yes"/>
      <point x="238" y="398"/>
      <point x="126" y="288"/>
      <point x="126" y="168" type="curve" smooth="yes"/>
      <point x="126" y="93"/>
      <point x="167" y="46"/>
      <point x="228" y="46" type="curve" smooth="yes"/>
      <point x="284" y="46"/>
      <point x="317" y="77"/>
      <point x="347" y="135" type="curve" smooth="yes"/>
      <point x="350" y="141"/>
      <point x="359" y="147"/>
      <point x="367" y="147" type="curve" smooth="yes"/>
      <point x="372" y="147" type="line" smooth="yes"/>
      <point x="380" y="147"/>
      <point x="389" y="142"/>
      <point x="392" y="135" type="curve" smooth="yes"/>
      <point x="425" y="75"/>
      <point x="456" y="46"/>
      <point x="516" y="46" type="curve" smooth="yes"/>
      <point x="577" y="46"/>
      <point x="619" y="93"/>
      <point x="619" y="168" type="curve" smooth="yes"/>
      <point x="619" y="287"/>
      <point x="502" y="398"/>
    </contour>
    <contour>
      <point x="597" y="277" type="curve" smooth="yes"/>
      <point x="597" y="379"/>
      <point x="574" y="425"/>
      <point x="528" y="471" type="curve" smooth="yes"/>
      <point x="482" y="517"/>
      <point x="408" y="543"/>
      <point x="329" y="543" type="curve" smooth="yes"/>
      <point x="210" y="543"/>
      <point x="146" y="497"/>
      <point x="146" y="453" type="curve" smooth="yes"/>
      <point x="146" y="422"/>
      <point x="167" y="401"/>
      <point x="203" y="377" type="curve" smooth="yes"/>
      <point x="213" y="370"/>
      <point x="216" y="356"/>
      <point x="209" y="345" type="curve" smooth="yes"/>
      <point x="202" y="335"/>
      <point x="188" y="332"/>
      <point x="177" y="339" type="curve" smooth="yes"/>
      <point x="123" y="375"/>
      <point x="100" y="408"/>
      <point x="100" y="453" type="curve" smooth="yes"/>
      <point x="100" y="507"/>
      <point x="148" y="589"/>
      <point x="329" y="589" type="curve" smooth="yes"/>
      <point x="422" y="589"/>
      <point x="506" y="557"/>
      <point x="560" y="503" type="curve" smooth="yes"/>
      <point x="614" y="449"/>
      <point x="643" y="397"/>
      <point x="643" y="277" type="curve" smooth="yes"/>
      <point x="643" y="265"/>
      <point x="632" y="254"/>
      <point x="620" y="254" type="curve" smooth="yes"/>
      <point x="608" y="254"/>
      <point x="597" y="265"/>
    </contour>
  </outline>
</glyph>
<glyph name="knGAc2" format="1">
  <advance width="0"/>
  <outline>
    <contour>
      <point x="37" y="-349" type="curve" smooth="yes"/>
      <point x="45" y="-329"/>
      <point x="54" y="-302"/>
      <point x="54" y="-274" type="curve" smooth="yes"/>
      <point x="54" y="-203"/>
      <point x="3" y="-142"/>
      <point x="-66" y="-142" type="curve" smooth="yes"/>
      <point x="-135" y="-142"/>
      <point x="-187" y="-205"/>
      <point x="-187" y="-274" type="curve" smooth="yes"/>
      <point x="-187" y="-301"/>
      <point x="-180" y="-327"/>
      <point x="-171" y="-348" type="curve" smooth="yes"/>
      <point x="-166" y="-358"/>
      <point x="-171" y="-371"/>
      <point x="-182" y="-375" type="curve" smooth="yes"/>
      <point x="-192" y="-380"/>
      <point x="-205" y="-375"/>
      <point x="-209" y="-364" type="curve" smooth="yes"/>
      <point x="-220" y="-339"/>
      <point x="-229" y="-307"/>
      <point x="-229" y="-274" type="curve" smooth="yes"/>
      <point x="-229" y="-181"/>
      <point x="-157" y="-100"/>
      <point x="-66" y="-100" type="curve" smooth="yes"/>
      <point x="25" y="-100"/>
      <point x="96" y="-179"/>
      <point x="96" y="-274" type="curve" smooth="yes"/>
      <point x="96" y="-308"/>
      <point x="85" y="-339"/>
      <point x="77" y="-363" type="curve" smooth="yes"/>
      <point x="73" y="-374"/>
      <point x="60" y="-380"/>
      <point x="50" y="-376" type="curve" smooth="yes"/>
      <point x="39" y="-372"/>
      <point x="33" y="-359"/>
    </contour>
  </outline>
</glyph>
<glyph name="knGH" format="1">
  <advance width="1100"/>
  <outline>
    <contour>
      <point x="539" y="456" type="curve" smooth="yes"/>
      <point x="634" y="456" type="line" smooth="yes"/>
      <point x="646" y="456"/>
      <point x="657" y="445"/>
      <point x="657" y="433" type="curve" smooth="yes"/>
      <point x="657" y="421"/>
      <point x="646" y="410"/>
      <point x="634" y="410" type="curve" smooth="yes"/>
      <point x="539" y="410" type="line" smooth="yes"/>
      <point x="527" y="410"/>
      <point x="516" y="421"/>
      <point x="516" y="433" type="curve" smooth="yes"/>
      <point x="516" y="445"/>
      <point x="527" y="456"/>
    </contour>
    <component base="knGHA.base"/>
    <component base="knVirama" xOffset="820"/>
    <component base="knGHA.base"/>
    <component base="knVirama" xOffset="820"/>
  </outline>
</glyph>
<glyph name="knGI" format="1">
  <advance width="590"/>
  <outline>
    <contour>
      <point x="444" y="33" type="curve" smooth="yes"/>
      <point x="465" y="76"/>
      <point x="478" y="118"/>
      <point x="477" y="176" type="curve" smooth="yes"/>
      <point x="476" y="285"/>
      <point x="396" y="394"/>
      <point x="295" y="394" type="curve" smooth="yes"/>
      <point x="192" y="394"/>
      <point x="118" y="286"/>
      <point x="118" y="176" type="curve" smooth="yes"/>
      <point x="118" y="119"/>
      <point x="129" y="75"/>
      <point x="150" y="34" type="curve" smooth="yes"/>
      <point x="156" y="23"/>
      <point x="152" y="8"/>
      <point x="141" y="3" type="curve" smooth="yes"/>
      <point x="130" y="-3"/>
      <point x="115" y="1"/>
      <point x="110" y="12" type="curve" smooth="yes"/>
      <point x="85" y="59"/>
      <point x="72" y="111"/>
      <point x="72" y="176" type="curve" smooth="yes"/>
      <point x="72" y="314"/>
      <point x="170" y="440"/>
      <point x="295" y="440" type="curve" smooth="yes"/>
      <point x="418" y="440"/>
      <point x="522" y="313"/>
      <point x="523" y="176" type="curve" smooth="yes"/>
      <point x="524" y="110"/>
      <point x="509" y="62"/>
      <point x="486" y="13" type="curve" smooth="yes"/>
      <point x="480" y="2"/>
      <point x="466" y="-3"/>
      <point x="455" y="2" type="curve" smooth="yes"/>
      <point x="444" y="8"/>
      <point x="439" y="22"/>
    </contour>
    <contour>
      <point x="467" y="253" type="curve" smooth="yes"/>
      <point x="467" y="394"/>
      <point x="455" y="441"/>
      <point x="410" y="486" type="curve" smooth="yes"/>
      <point x="376" y="520"/>
      <point x="329" y="543"/>
      <point x="265" y="543" type="curve" smooth="yes"/>
      <point x="166" y="543"/>
      <point x="118" y="496"/>
      <point x="118" y="448" type="curve" smooth="yes"/>
      <point x="118" y="419"/>
      <point x="134" y="391"/>
      <point x="163" y="364" type="curve" smooth="yes"/>
      <point x="172" y="355"/>
      <point x="172" y="340"/>
      <point x="164" y="331" type="curve" smooth="yes"/>
      <point x="155" y="322"/>
      <point x="140" y="322"/>
      <point x="131" y="330" type="curve" smooth="yes"/>
      <point x="90" y="369"/>
      <point x="72" y="409"/>
      <point x="72" y="448" type="curve" smooth="yes"/>
      <point x="72" y="512"/>
      <point x="118" y="589"/>
      <point x="265" y="589" type="curve" smooth="yes"/>
      <point x="343" y="589"/>
      <point x="400" y="560"/>
      <point x="442" y="518" type="curve" smooth="yes"/>
      <point x="493" y="467"/>
      <point x="513" y="416"/>
      <point x="513" y="253" type="curve" smooth="yes"/>
      <point x="513" y="241"/>
      <point x="502" y="230"/>
      <point x="490" y="230" type="curve" smooth="yes"/>
      <point x="478" y="230"/>
      <point x="467" y="241"/>
    </contour>
  </outline>
</glyph>
